<svg width="26" height="27" viewBox="0 0 26 27" fill="none" xmlns="http://www.w3.org/2000/svg">
<g clip-path="url(#clip0_3_430)">
<path fill-rule="evenodd" clip-rule="evenodd" d="M13 5.83984C13.6904 5.83984 14.25 6.39948 14.25 7.08984V13.3398C14.25 13.6713 14.1183 13.9893 13.8839 14.2237L9.50888 18.5987C9.02073 19.0868 8.22927 19.0868 7.74112 18.5987C7.25296 18.1105 7.25296 17.3191 7.74112 16.8309L11.75 12.822V7.08984C11.75 6.39948 12.3096 5.83984 13 5.83984Z" fill="#87909E"/>
<path fill-rule="evenodd" clip-rule="evenodd" d="M13 3.33984C7.47715 3.33984 3 7.81699 3 13.3398C3 18.8626 7.47715 23.3398 13 23.3398C18.5228 23.3398 23 18.8626 23 13.3398C23 7.81699 18.5228 3.33984 13 3.33984ZM0.5 13.3398C0.5 6.43628 6.09644 0.839844 13 0.839844C19.9036 0.839844 25.5 6.43628 25.5 13.3398C25.5 20.2434 19.9036 25.8398 13 25.8398C6.09644 25.8398 0.5 20.2434 0.5 13.3398Z" fill="#87909E"/>
</g>
<defs>
<clipPath id="clip0_3_430">
<rect width="26" height="26" fill="white" transform="translate(0 0.339844)"/>
</clipPath>
</defs>
</svg>
