<svg width="17" height="16" viewBox="0 0 17 16" fill="none" xmlns="http://www.w3.org/2000/svg">
<path fill-rule="evenodd" clip-rule="evenodd" d="M10.9614 0.878192C9.78978 -0.293381 7.89029 -0.293382 6.71871 0.878191L1.71672 4.88018C1.13132 5.46558 0.840377 6.23273 0.839996 7V14C0.839996 15.1046 1.73543 16 2.84 16H14.84C15.9446 16 16.84 15.1046 16.84 14V7C16.8401 6.23208 16.5473 5.46413 15.9614 4.87822L10.9614 0.878192ZM14.003 5.86377L8.83993 8.84464L3.67602 5.86325L8.13293 2.29897C8.52345 1.90845 9.15662 1.90845 9.54714 2.29897L14.003 5.86377ZM14.8408 7.68946L9.35146 10.8587C9.32844 10.8724 9.30492 10.8851 9.28097 10.8968C9.15088 10.9609 9.01268 10.9941 8.87525 10.9988C8.69391 11.0054 8.50858 10.9627 8.33984 10.8653L2.84 7.68997V14H14.84L14.8408 7.68946Z" fill="#FD71AF"/>
</svg>
