<svg width="40" height="40" viewBox="0 0 40 40" fill="none" xmlns="http://www.w3.org/2000/svg">
<mask id="mask0_44_924" style="mask-type:luminance" maskUnits="userSpaceOnUse" x="0" y="0" width="40" height="40">
<path d="M0.612305 8.24494C0.612305 5.50182 0.612305 4.13027 1.14615 3.08254C1.61573 2.16092 2.36502 1.41163 3.28664 0.942049C4.33437 0.408203 5.70593 0.408203 8.44904 0.408203H31.9592C34.7023 0.408203 36.0739 0.408203 37.1216 0.942049C38.0432 1.41163 38.7926 2.16092 39.2621 3.08254C39.796 4.13027 39.796 5.50183 39.796 8.24494V31.7551C39.796 34.4982 39.796 35.8698 39.2621 36.9175C38.7926 37.8391 38.0432 38.5885 37.1216 39.058C36.0739 39.5919 34.7023 39.5919 31.9592 39.5919H8.44904C5.70592 39.5919 4.33437 39.5919 3.28664 39.058C2.36502 38.5885 1.61573 37.8391 1.14615 36.9175C0.612305 35.8698 0.612305 34.4982 0.612305 31.7551V8.24494Z" fill="white"/>
</mask>
<g mask="url(#mask0_44_924)">
<path d="M0.612305 8.24494C0.612305 5.50182 0.612305 4.13027 1.14615 3.08254C1.61573 2.16092 2.36502 1.41163 3.28664 0.942049C4.33437 0.408203 5.70593 0.408203 8.44904 0.408203H31.9592C34.7023 0.408203 36.0739 0.408203 37.1216 0.942049C38.0432 1.41163 38.7926 2.16092 39.2621 3.08254C39.796 4.13027 39.796 5.50183 39.796 8.24494V31.7551C39.796 34.4982 39.796 35.8698 39.2621 36.9175C38.7926 37.8391 38.0432 38.5885 37.1216 39.058C36.0739 39.5919 34.7023 39.5919 31.9592 39.5919H8.44904C5.70592 39.5919 4.33437 39.5919 3.28664 39.058C2.36502 38.5885 1.61573 37.8391 1.14615 36.9175C0.612305 35.8698 0.612305 34.4982 0.612305 31.7551V8.24494Z" fill="#AFDFD7"/>
<path d="M12.0409 14.2856C14.6572 14.2856 16.4012 15.9868 16.9095 17.9714C17.0776 18.6274 16.5012 19.1836 15.8078 19.1836H8.27425C7.58083 19.1836 7.00444 18.6274 7.17249 17.9713C7.6808 15.9868 9.4247 14.2856 12.0409 14.2856Z" fill="#53B9AB"/>
<path d="M12.0407 13.4693C13.8441 13.4693 15.306 12.0074 15.306 10.204C15.306 8.40065 13.8441 6.93872 12.0407 6.93872C10.2373 6.93872 8.77539 8.40065 8.77539 10.204C8.77539 12.0074 10.2373 13.4693 12.0407 13.4693Z" fill="#F1FCFA"/>
<path d="M25.102 14.2856C27.7182 14.2856 29.4622 15.9868 29.9706 17.9714C30.1387 18.6274 29.5622 19.1836 28.8689 19.1836H21.3353C20.6419 19.1836 20.0655 18.6274 20.2335 17.9713C20.7418 15.9868 22.4858 14.2856 25.102 14.2856Z" fill="#F1FCFA"/>
<path d="M25.1022 13.4693C26.9056 13.4693 28.3675 12.0074 28.3675 10.204C28.3675 8.40065 26.9056 6.93872 25.1022 6.93872C23.2988 6.93872 21.8369 8.40065 21.8369 10.204C21.8369 12.0074 23.2988 13.4693 25.1022 13.4693Z" fill="#53B9AB"/>
<path d="M38.163 14.2856C40.7793 14.2856 42.5233 15.9868 43.0316 17.9714C43.1997 18.6274 42.6233 19.1836 41.9299 19.1836H34.3963C33.703 19.1836 33.1265 18.6274 33.2945 17.9713C33.8029 15.9868 35.5468 14.2856 38.163 14.2856Z" fill="#53B9AB"/>
<path d="M38.1633 13.4693C39.9666 13.4693 41.4286 12.0074 41.4286 10.204C41.4286 8.40065 39.9666 6.93872 38.1633 6.93872C36.3599 6.93872 34.8979 8.40065 34.8979 10.204C34.8979 12.0074 36.3599 13.4693 38.1633 13.4693Z" fill="#F1FCFA"/>
<path d="M7.14307 23.2655C7.14307 22.3638 7.87403 21.6328 8.77572 21.6328H15.3063C16.208 21.6328 16.939 22.3638 16.939 23.2655V27.3471C16.939 28.2488 16.208 28.9798 15.3063 28.9798H8.77572C7.87403 28.9798 7.14307 28.2488 7.14307 27.3471V23.2655Z" fill="#F1FCFA"/>
<path fill-rule="evenodd" clip-rule="evenodd" d="M12.857 23.2654C13.3079 23.2654 13.6733 23.6309 13.6733 24.0817C13.6733 24.5326 13.3079 24.898 12.857 24.898H9.59172C9.14086 24.898 8.77539 24.5326 8.77539 24.0817C8.77539 23.6309 9.14086 23.2654 9.59172 23.2654H12.857Z" fill="#067A6F"/>
<path d="M20.2041 23.2655C20.2041 22.3638 20.935 21.6328 21.8368 21.6328H28.3674C29.2691 21.6328 30 22.3638 30 23.2655V31.4287C30 32.3304 29.2691 33.0614 28.3674 33.0614H21.8368C20.935 33.0614 20.2041 32.3304 20.2041 31.4287V23.2655Z" fill="#F1FCFA"/>
<path d="M33.2651 23.2655C33.2651 22.3638 33.9961 21.6328 34.8978 21.6328H41.4284C42.3301 21.6328 43.0611 22.3638 43.0611 23.2655V39.592H33.2651V23.2655Z" fill="#F1FCFA"/>
<path fill-rule="evenodd" clip-rule="evenodd" d="M27.5512 23.2654C28.0021 23.2654 28.3675 23.6309 28.3675 24.0817C28.3675 24.5326 28.0021 24.898 27.5512 24.898H22.6532C22.2024 24.898 21.8369 24.5326 21.8369 24.0817C21.8369 23.6309 22.2024 23.2654 22.6532 23.2654H27.5512Z" fill="#53B9AB"/>
<path fill-rule="evenodd" clip-rule="evenodd" d="M40.6124 29.7959C41.0633 29.7959 41.4287 30.1614 41.4287 30.6122C41.4287 31.0631 41.0633 31.4286 40.6124 31.4286H37.3471C36.8962 31.4286 36.5308 31.0631 36.5308 30.6122C36.5308 30.1614 36.8962 29.7959 37.3471 29.7959H40.6124Z" fill="#53B9AB"/>
<path fill-rule="evenodd" clip-rule="evenodd" d="M25.1022 26.5308C25.5531 26.5308 25.9185 26.8962 25.9185 27.3471C25.9185 27.7979 25.5531 28.1634 25.1022 28.1634H22.6532C22.2024 28.1634 21.8369 27.7979 21.8369 27.3471C21.8369 26.8962 22.2024 26.5308 22.6532 26.5308H25.1022Z" fill="#C7EBE5"/>
<path fill-rule="evenodd" clip-rule="evenodd" d="M40.6122 23.2654C41.0631 23.2654 41.4286 23.6309 41.4286 24.0817C41.4286 24.5326 41.0631 24.898 40.6122 24.898H35.7143C35.2634 24.898 34.8979 24.5326 34.8979 24.0817C34.8979 23.6309 35.2634 23.2654 35.7143 23.2654H40.6122Z" fill="#C7EBE5"/>
<path fill-rule="evenodd" clip-rule="evenodd" d="M40.6122 26.5308C41.0631 26.5308 41.4286 26.8962 41.4286 27.3471C41.4286 27.7979 41.0631 28.1634 40.6122 28.1634H35.7143C35.2634 28.1634 34.8979 27.7979 34.8979 27.3471C34.8979 26.8962 35.2634 26.5308 35.7143 26.5308H40.6122Z" fill="#067A6F"/>
</g>
</svg>
