<svg width="40" height="40" viewBox="0 0 40 40" fill="none" xmlns="http://www.w3.org/2000/svg">
<mask id="mask0_44_854" style="mask-type:luminance" maskUnits="userSpaceOnUse" x="0" y="0" width="40" height="40">
<path d="M0 8C0 5.19973 0 3.79961 0.544967 2.73005C1.02433 1.78923 1.78923 1.02433 2.73005 0.544967C3.79961 0 5.19974 0 8 0H32C34.8003 0 36.2004 0 37.2699 0.544967C38.2108 1.02433 38.9757 1.78923 39.455 2.73005C40 3.79961 40 5.19974 40 8V32C40 34.8003 40 36.2004 39.455 37.2699C38.9757 38.2108 38.2108 38.9757 37.2699 39.455C36.2004 40 34.8003 40 32 40H8C5.19973 40 3.79961 40 2.73005 39.455C1.78923 38.9757 1.02433 38.2108 0.544967 37.2699C0 36.2004 0 34.8003 0 32V8Z" fill="white"/>
</mask>
<g mask="url(#mask0_44_854)">
<path d="M0.990471 2.95705L0.990472 2.95704C1.4219 2.11031 2.11031 1.4219 2.95704 0.990472L2.95705 0.990471C3.40959 0.759887 3.95389 0.632055 4.75673 0.56646C5.56541 0.500389 6.59162 0.5 8 0.5H32C33.4084 0.5 34.4346 0.500389 35.2433 0.56646C36.0461 0.632055 36.5904 0.759888 37.0429 0.990466L37.2698 0.545189L37.0429 0.990473C37.8897 1.4219 38.5781 2.11031 39.0095 2.95703L39.0095 2.95706C39.2401 3.4096 39.3679 3.95389 39.4335 4.75673C39.4996 5.56541 39.5 6.59162 39.5 8V32C39.5 33.4084 39.4996 34.4346 39.4335 35.2433C39.3679 36.0461 39.2401 36.5904 39.0095 37.0429L39.0095 37.0429C38.5781 37.8897 37.8897 38.5781 37.0429 39.0095L37.0429 39.0095C36.5904 39.2401 36.0461 39.3679 35.2433 39.4335C34.4346 39.4996 33.4084 39.5 32 39.5H8C6.59162 39.5 5.5654 39.4996 4.75673 39.4335C3.95389 39.3679 3.4096 39.2401 2.95706 39.0095L2.95703 39.0095C2.11031 38.5781 1.4219 37.8897 0.990473 37.0429L0.545189 37.2698L0.990466 37.0429C0.759888 36.5904 0.632055 36.0461 0.56646 35.2433C0.500389 34.4346 0.5 33.4084 0.5 32V8C0.5 6.59162 0.500389 5.5654 0.56646 4.75673C0.632055 3.95389 0.759887 3.40959 0.990471 2.95705Z" fill="#FFC955" fill-opacity="0.2" stroke="#FFC955"/>
<path d="M6.6665 19.1667C6.6665 16.8655 8.532 15 10.8332 15H39.9998V48.3333H6.6665V19.1667Z" fill="#FFC955" fill-opacity="0.4"/>
<path d="M10.8335 14.9999C10.8335 12.6988 12.699 10.8333 15.0002 10.8333H44.1668V44.1666H10.8335V14.9999Z" fill="#FFC955" fill-opacity="0.3"/>
<path d="M15 11C15 8.79088 16.3432 7 18 7H35C37.2091 7 39 8.79086 39 11V35C39 37.2091 37.2091 39 35 39H19C16.7909 39 15 37.2091 15 35V11Z" fill="#FBFAFF"/>
<path d="M21.6482 14.3253L23.0539 19.9482C23.249 20.7284 24.3268 20.807 24.6329 20.0634L25.7308 17.3973L28.3969 16.2995C29.1405 15.9933 29.0619 14.9155 28.2817 14.7205L22.6588 13.3147C22.0484 13.1621 21.4956 13.715 21.6482 14.3253Z" fill="#FFC955"/>
</g>
</svg>
