<svg width="40" height="40" viewBox="0 0 40 40" fill="none" xmlns="http://www.w3.org/2000/svg">
<mask id="mask0_44_895" style="mask-type:luminance" maskUnits="userSpaceOnUse" x="0" y="0" width="40" height="40">
<path d="M0.408203 8.24494C0.408203 5.50182 0.408203 4.13027 0.942048 3.08254C1.41163 2.16092 2.16092 1.41163 3.08254 0.942049C4.13027 0.408203 5.50183 0.408203 8.24494 0.408203H31.7551C34.4982 0.408203 35.8698 0.408203 36.9175 0.942049C37.8391 1.41163 38.5885 2.16092 39.058 3.08254C39.5919 4.13027 39.5919 5.50183 39.5919 8.24494V31.7551C39.5919 34.4982 39.5919 35.8698 39.058 36.9175C38.5885 37.8391 37.8391 38.5885 36.9175 39.058C35.8698 39.5919 34.4982 39.5919 31.7551 39.5919H8.24494C5.50182 39.5919 4.13027 39.5919 3.08254 39.058C2.16092 38.5885 1.41163 37.8391 0.942048 36.9175C0.408203 35.8698 0.408203 34.4982 0.408203 31.7551V8.24494Z" fill="white"/>
</mask>
<g mask="url(#mask0_44_895)">
<path d="M0.408203 8.24494C0.408203 5.50182 0.408203 4.13027 0.942048 3.08254C1.41163 2.16092 2.16092 1.41163 3.08254 0.942049C4.13027 0.408203 5.50183 0.408203 8.24494 0.408203H31.7551C34.4982 0.408203 35.8698 0.408203 36.9175 0.942049C37.8391 1.41163 38.5885 2.16092 39.058 3.08254C39.5919 4.13027 39.5919 5.50183 39.5919 8.24494V31.7551C39.5919 34.4982 39.5919 35.8698 39.058 36.9175C38.5885 37.8391 37.8391 38.5885 36.9175 39.058C35.8698 39.5919 34.4982 39.5919 31.7551 39.5919H8.24494C5.50182 39.5919 4.13027 39.5919 3.08254 39.058C2.16092 38.5885 1.41163 37.8391 0.942048 36.9175C0.408203 35.8698 0.408203 34.4982 0.408203 31.7551V8.24494Z" fill="#C6D4F9"/>
<path d="M23.2651 8.57137C23.2651 7.66968 23.9961 6.93872 24.8978 6.93872H39.5917C40.4934 6.93872 41.2243 7.66968 41.2243 8.57137V23.2653H23.2651V8.57137Z" fill="#8DA4EF"/>
<path d="M16.7349 12.6532C16.7349 11.7514 17.4658 11.0205 18.3675 11.0205H33.0614C33.9631 11.0205 34.694 11.7514 34.694 12.6532V23.2654H16.7349V12.6532Z" fill="#3E63DD"/>
<path d="M10.2041 16.7347C10.2041 15.833 10.935 15.1021 11.8368 15.1021H26.5306C27.4323 15.1021 28.1633 15.833 28.1633 16.7347V23.2653H10.2041V16.7347Z" fill="#3451B2"/>
<path d="M6.93896 25.7144C6.93896 24.3618 8.03541 23.2654 9.38794 23.2654H39.592V39.5919H6.93896V25.7144Z" fill="#F8FAFF"/>
<path fill-rule="evenodd" clip-rule="evenodd" d="M29.3878 26.5308C30.5149 26.5308 31.4286 27.4445 31.4286 28.5716C31.4286 29.6987 30.5149 30.6124 29.3878 30.6124H22.0408C20.9137 30.6124 20 29.6987 20 28.5716C20 27.4445 20.9137 26.5308 22.0408 26.5308H29.3878Z" fill="#3A5CCC"/>
</g>
</svg>
