<svg width="40" height="40" viewBox="0 0 40 40" fill="none" xmlns="http://www.w3.org/2000/svg">
<mask id="mask0_44_876" style="mask-type:luminance" maskUnits="userSpaceOnUse" x="0" y="0" width="40" height="40">
<path d="M0.204102 8.24494C0.204102 5.50182 0.204102 4.13027 0.737947 3.08254C1.20753 2.16092 1.95682 1.41163 2.87844 0.942049C3.92617 0.408203 5.29773 0.408203 8.04084 0.408203H31.551C34.2941 0.408203 35.6657 0.408203 36.7134 0.942049C37.635 1.41163 38.3843 2.16092 38.8539 3.08254C39.3878 4.13027 39.3878 5.50183 39.3878 8.24494V31.7551C39.3878 34.4982 39.3878 35.8698 38.8539 36.9175C38.3843 37.8391 37.635 38.5885 36.7134 39.058C35.6657 39.5919 34.2941 39.5919 31.551 39.5919H8.04084C5.29772 39.5919 3.92617 39.5919 2.87844 39.058C1.95682 38.5885 1.20753 37.8391 0.737947 36.9175C0.204102 35.8698 0.204102 34.4982 0.204102 31.7551V8.24494Z" fill="white"/>
</mask>
<g mask="url(#mask0_44_876)">
<path d="M0.204102 8.24494C0.204102 5.50182 0.204102 4.13027 0.737947 3.08254C1.20753 2.16092 1.95682 1.41163 2.87844 0.942049C3.92617 0.408203 5.29773 0.408203 8.04084 0.408203H31.551C34.2941 0.408203 35.6657 0.408203 36.7134 0.942049C37.635 1.41163 38.3843 2.16092 38.8539 3.08254C39.3878 4.13027 39.3878 5.50183 39.3878 8.24494V31.7551C39.3878 34.4982 39.3878 35.8698 38.8539 36.9175C38.3843 37.8391 37.635 38.5885 36.7134 39.058C35.6657 39.5919 34.2941 39.5919 31.551 39.5919H8.04084C5.29772 39.5919 3.92617 39.5919 2.87844 39.058C1.95682 38.5885 1.20753 37.8391 0.737947 36.9175C0.204102 35.8698 0.204102 34.4982 0.204102 31.7551V8.24494Z" fill="#FFC291"/>
<path d="M6.73486 11.0204C6.73486 8.76615 8.56229 6.93872 10.8165 6.93872H39.3879V39.5918H6.73486V11.0204Z" fill="#FEF8F4"/>
<path fill-rule="evenodd" clip-rule="evenodd" d="M14.898 12.0408C15.0288 12.0408 15.148 12.1157 15.2046 12.2336L16.0105 13.911L17.8547 14.1591C17.9844 14.1765 18.0925 14.2666 18.1329 14.3911C18.1733 14.5155 18.1388 14.652 18.0443 14.7422L16.698 16.027L17.032 17.8577C17.0555 17.9863 17.0031 18.117 16.8973 18.1939C16.7915 18.2707 16.651 18.2802 16.5359 18.2181L14.898 17.3347L13.2601 18.2181C13.145 18.2802 13.0045 18.2707 12.8987 18.1939C12.7929 18.117 12.7406 17.9863 12.764 17.8577L13.0981 16.027L11.7518 14.7422C11.6572 14.652 11.6227 14.5155 11.6631 14.3911C11.7036 14.2666 11.8117 14.1765 11.9413 14.1591L13.7856 13.911L14.5915 12.2336C14.648 12.1157 14.7672 12.0408 14.898 12.0408Z" fill="#99543A"/>
<path fill-rule="evenodd" clip-rule="evenodd" d="M18.5716 23.2654C19.2478 23.2654 19.7961 23.8136 19.7961 24.4899C19.7961 25.1661 19.2478 25.7144 18.5716 25.7144H12.8573C12.1811 25.7144 11.6328 25.1661 11.6328 24.4899C11.6328 23.8136 12.1811 23.2654 12.8573 23.2654H18.5716Z" fill="#F76808"/>
<path fill-rule="evenodd" clip-rule="evenodd" d="M15.3063 28.1633C15.9825 28.1633 16.5308 28.7116 16.5308 29.3878C16.5308 30.0641 15.9825 30.6123 15.3063 30.6123H12.8573C12.1811 30.6123 11.6328 30.0641 11.6328 29.3878C11.6328 28.7116 12.1811 28.1633 12.8573 28.1633H15.3063Z" fill="#ED8A5C"/>
<path fill-rule="evenodd" clip-rule="evenodd" d="M24.2855 28.1633C24.9618 28.1633 25.51 28.7116 25.51 29.3878C25.51 30.0641 24.9618 30.6123 24.2855 30.6123H19.3876C18.7113 30.6123 18.1631 30.0641 18.1631 29.3878C18.1631 28.7116 18.7113 28.1633 19.3876 28.1633H24.2855Z" fill="#FFC291"/>
<path fill-rule="evenodd" clip-rule="evenodd" d="M16.1226 33.0613C16.7989 33.0613 17.3471 33.6095 17.3471 34.2858C17.3471 34.962 16.7989 35.5103 16.1226 35.5103H12.8573C12.1811 35.5103 11.6328 34.962 11.6328 34.2858C11.6328 33.6095 12.1811 33.0613 12.8573 33.0613H16.1226Z" fill="#FFC291"/>
<path d="M23.061 15.1021C23.061 12.8479 24.8885 11.0205 27.1427 11.0205H39.3876V39.5919H23.061V15.1021Z" fill="#FFE0BB"/>
<path d="M28.7754 21.8597V11.0205H34.4897V21.8587C34.4897 22.4855 33.8125 22.8785 33.2684 22.5675L31.6325 21.6328L29.9967 22.5675C29.4525 22.8785 28.7754 22.4865 28.7754 21.8597Z" fill="#ED5F00"/>
</g>
</svg>
