<svg width="16" height="16" viewBox="0 0 16 16" fill="none" xmlns="http://www.w3.org/2000/svg">
<path fill-rule="evenodd" clip-rule="evenodd" d="M5.33317 1.33325C5.50998 1.33325 5.67955 1.40349 5.80457 1.52851C5.9296 1.65354 5.99984 1.82311 5.99984 1.99992V2.66659H7.33317V1.99992C7.33317 1.82311 7.40341 1.65354 7.52843 1.52851C7.65346 1.40349 7.82303 1.33325 7.99984 1.33325C8.17665 1.33325 8.34622 1.40349 8.47124 1.52851C8.59627 1.65354 8.6665 1.82311 8.6665 1.99992V2.66659H9.99984V1.99992C9.99984 1.82311 10.0701 1.65354 10.1951 1.52851C10.3201 1.40349 10.4897 1.33325 10.6665 1.33325C10.8433 1.33325 11.0129 1.40349 11.1379 1.52851C11.2629 1.65354 11.3332 1.82311 11.3332 1.99992V2.66659C11.8636 2.66659 12.3723 2.8773 12.7474 3.25237C13.1225 3.62744 13.3332 4.13615 13.3332 4.66659V12.6666C13.3332 13.197 13.1225 13.7057 12.7474 14.0808C12.3723 14.4559 11.8636 14.6666 11.3332 14.6666H4.6665C4.13607 14.6666 3.62736 14.4559 3.25229 14.0808C2.87722 13.7057 2.6665 13.197 2.6665 12.6666V4.66659C2.6665 4.13615 2.87722 3.62744 3.25229 3.25237C3.62736 2.8773 4.13607 2.66659 4.6665 2.66659V1.99992C4.6665 1.82311 4.73674 1.65354 4.86177 1.52851C4.98679 1.40349 5.15636 1.33325 5.33317 1.33325ZM3.99984 4.66659C3.99984 4.48977 4.07008 4.32021 4.1951 4.19518C4.32012 4.07016 4.48969 3.99992 4.6665 3.99992H11.3332C11.51 3.99992 11.6796 4.07016 11.8046 4.19518C11.9296 4.32021 11.9998 4.48977 11.9998 4.66659V12.6666C11.9998 12.8434 11.9296 13.013 11.8046 13.138C11.6796 13.263 11.51 13.3333 11.3332 13.3333H4.6665C4.48969 13.3333 4.32012 13.263 4.1951 13.138C4.07008 13.013 3.99984 12.8434 3.99984 12.6666V4.66659ZM7.33317 5.33325C7.15636 5.33325 6.98679 5.40349 6.86177 5.52851C6.73674 5.65354 6.6665 5.82311 6.6665 5.99992C6.6665 6.17673 6.73674 6.3463 6.86177 6.47132C6.98679 6.59635 7.15636 6.66659 7.33317 6.66659H9.99984C10.1766 6.66659 10.3462 6.59635 10.4712 6.47132C10.5963 6.3463 10.6665 6.17673 10.6665 5.99992C10.6665 5.82311 10.5963 5.65354 10.4712 5.52851C10.3462 5.40349 10.1766 5.33325 9.99984 5.33325H7.33317ZM10.6665 8.66659C10.6665 8.48977 10.5963 8.32021 10.4712 8.19518C10.3462 8.07016 10.1766 7.99992 9.99984 7.99992H5.99984C5.82303 7.99992 5.65346 8.07016 5.52843 8.19518C5.40341 8.32021 5.33317 8.48977 5.33317 8.66659C5.33317 8.8434 5.40341 9.01297 5.52843 9.13799C5.65346 9.26301 5.82303 9.33325 5.99984 9.33325H9.99984C10.1766 9.33325 10.3462 9.26301 10.4712 9.13799C10.5963 9.01297 10.6665 8.8434 10.6665 8.66659ZM9.99984 10.6666C10.1766 10.6666 10.3462 10.7368 10.4712 10.8618C10.5963 10.9869 10.6665 11.1564 10.6665 11.3333C10.6665 11.5101 10.5963 11.6796 10.4712 11.8047C10.3462 11.9297 10.1766 11.9999 9.99984 11.9999H5.99984C5.82303 11.9999 5.65346 11.9297 5.52843 11.8047C5.40341 11.6796 5.33317 11.5101 5.33317 11.3333C5.33317 11.1564 5.40341 10.9869 5.52843 10.8618C5.65346 10.7368 5.82303 10.6666 5.99984 10.6666H9.99984Z" fill="white"/>
</svg>
