<svg width="16" height="16" viewBox="0 0 16 16" fill="none" xmlns="http://www.w3.org/2000/svg">
<path fill-rule="evenodd" clip-rule="evenodd" d="M10.3934 10.6159C9.51305 11.4378 8.34505 11.8811 7.14104 11.8501C5.93702 11.8191 4.79336 11.3164 3.95643 10.4503C3.11951 9.58419 2.65631 8.42396 2.66664 7.21959C2.67696 6.01522 3.15998 4.8631 4.01163 4.01145C4.86328 3.1598 6.0154 2.67678 7.21977 2.66646C8.42414 2.65613 9.58436 3.11933 10.4505 3.95625C11.3166 4.79318 11.8193 5.93684 11.8503 7.14086C11.8813 8.34488 11.438 9.51288 10.6161 10.3932C10.5252 10.4486 10.4488 10.525 10.3934 10.6159ZM10.9514 11.8946C9.7673 12.8378 8.2671 13.2922 6.75862 13.1643C5.25014 13.0365 3.84779 12.3362 2.83931 11.2071C1.83083 10.078 1.29271 8.60581 1.33536 7.09253C1.37802 5.57924 1.99822 4.13966 3.0687 3.06918C4.13917 1.9987 5.57875 1.37851 7.09204 1.33585C8.60532 1.2932 10.0776 1.83132 11.2066 2.8398C12.3357 3.84827 13.036 5.25063 13.1638 6.75911C13.2917 8.26759 12.8373 9.76779 11.8941 10.9519L14.3974 13.4546C14.5188 13.5803 14.586 13.7487 14.5845 13.9235C14.583 14.0983 14.5129 14.2655 14.3893 14.3891C14.2657 14.5127 14.0985 14.5828 13.9237 14.5843C13.7489 14.5859 13.5805 14.5187 13.4547 14.3972L10.9514 11.8946Z" fill="#656F7D"/>
</svg>
