<svg width="16" height="16" viewBox="0 0 16 16" fill="none" xmlns="http://www.w3.org/2000/svg">
<path fill-rule="evenodd" clip-rule="evenodd" d="M3.33016 13.3334C3.06773 13.3334 2.80788 13.2817 2.56546 13.1812C2.32304 13.0807 2.10281 12.9334 1.91736 12.7477C1.73192 12.562 1.5849 12.3415 1.48472 12.099C1.38453 11.8564 1.33315 11.5965 1.3335 11.3341V4.66408C1.33359 4.40159 1.3854 4.14169 1.48597 3.89922C1.58654 3.65676 1.73391 3.43649 1.91964 3.25101C2.10538 3.06552 2.32584 2.91845 2.56844 2.8182C2.81103 2.71795 3.071 2.66649 3.3335 2.66675H6.66683C6.84363 2.66679 7.01317 2.73705 7.13816 2.86208L8.27616 4.00008H12.6668C13.1973 4.00008 13.706 4.2108 14.081 4.58587C14.4561 4.96094 14.6668 5.46965 14.6668 6.00008V11.3334C14.6668 12.4361 13.7762 13.3334 12.6702 13.3334H3.33016ZM2.66683 11.3341C2.66683 11.7041 2.9635 12.0001 3.33016 12.0001H12.6702C12.7575 12 12.844 11.9827 12.9247 11.9491C13.0053 11.9155 13.0786 11.8664 13.1402 11.8044C13.2018 11.7425 13.2506 11.669 13.2838 11.5882C13.317 11.5074 13.3338 11.4208 13.3335 11.3334V6.00008C13.3335 5.82327 13.2633 5.6537 13.1382 5.52868C13.0132 5.40365 12.8436 5.33342 12.6668 5.33342H8.00016C7.82337 5.33338 7.65383 5.26312 7.52883 5.13808L6.39083 4.00008H3.3335C2.9635 4.00008 2.66683 4.29742 2.66683 4.66408V11.3341Z" fill="#2A2E34"/>
</svg>
