<svg width="16" height="16" viewBox="0 0 16 16" fill="none" xmlns="http://www.w3.org/2000/svg">
<path fill-rule="evenodd" clip-rule="evenodd" d="M8.6665 3.33341C8.6665 3.1566 8.59627 2.98703 8.47124 2.86201C8.34622 2.73699 8.17665 2.66675 7.99984 2.66675C7.82303 2.66675 7.65346 2.73699 7.52843 2.86201C7.40341 2.98703 7.33317 3.1566 7.33317 3.33341V7.33342H3.33317C3.15636 7.33342 2.98679 7.40365 2.86177 7.52868C2.73674 7.6537 2.6665 7.82327 2.6665 8.00008C2.6665 8.17689 2.73674 8.34646 2.86177 8.47149C2.98679 8.59651 3.15636 8.66675 3.33317 8.66675H7.33317V12.6634C7.33317 12.8402 7.40341 13.0098 7.52843 13.1348C7.65346 13.2598 7.82303 13.3301 7.99984 13.3301C8.17665 13.3301 8.34622 13.2598 8.47124 13.1348C8.59627 13.0098 8.6665 12.8402 8.6665 12.6634V8.66675H12.6632C12.84 8.66675 13.0096 8.59651 13.1346 8.47149C13.2596 8.34646 13.3298 8.17689 13.3298 8.00008C13.3298 7.82327 13.2596 7.6537 13.1346 7.52868C13.0096 7.40365 12.84 7.33342 12.6632 7.33342H8.6665V3.33341Z" fill="white"/>
</svg>
