<svg width="17" height="17" viewBox="0 0 17 17" fill="none" xmlns="http://www.w3.org/2000/svg">
<path fill-rule="evenodd" clip-rule="evenodd" d="M3.10325 8.50011C3.10325 7.78484 3.24413 7.07658 3.51785 6.41576C3.79157 5.75494 4.19277 5.15451 4.69854 4.64874C5.20431 4.14297 5.80475 3.74177 6.46557 3.46805C7.12639 3.19433 7.83465 3.05344 8.54992 3.05344C9.26518 3.05344 9.97344 3.19433 10.6343 3.46805C11.2951 3.74177 11.8955 4.14297 12.4013 4.64874C12.9071 5.15451 13.3083 5.75494 13.582 6.41576C13.8557 7.07658 13.9966 7.78484 13.9966 8.50011C13.9966 9.94466 13.4227 11.33 12.4013 12.3515C11.3798 13.3729 9.99446 13.9468 8.54992 13.9468C7.10537 13.9468 5.71999 13.3729 4.69854 12.3515C3.67709 11.33 3.10325 9.94466 3.10325 8.50011ZM8.54992 1.94678C4.92992 1.94678 1.99658 4.88011 1.99658 8.50011C1.99658 12.1201 4.92992 15.0534 8.54992 15.0534C12.1699 15.0534 15.1032 12.1194 15.1032 8.50011C15.1032 4.88078 12.1692 1.94678 8.54992 1.94678ZM7.10325 7.16678C7.10325 6.7831 7.25566 6.41513 7.52697 6.14383C7.79827 5.87253 8.16624 5.72011 8.54992 5.72011H8.81258C9.06655 5.72029 9.31374 5.80212 9.51764 5.95353C9.72154 6.10495 9.87135 6.31791 9.94495 6.56098C10.0186 6.80406 10.012 7.06435 9.92639 7.30344C9.84073 7.54253 9.68046 7.74775 9.46925 7.88878L9.13325 8.11278C8.78363 8.34594 8.49696 8.66178 8.29868 9.0323C8.1004 9.40282 7.99663 9.81654 7.99658 10.2368V10.5001H9.10325V10.2368C9.10325 9.75344 9.34525 9.30144 9.74725 9.03344L10.0832 8.80944C10.492 8.53663 10.8022 8.13958 10.9681 7.67693C11.1339 7.21428 11.1465 6.71057 11.004 6.24021C10.8616 5.76984 10.5717 5.35775 10.177 5.06482C9.78241 4.77189 9.30404 4.61364 8.81258 4.61344H8.54992C7.87273 4.61344 7.22328 4.88246 6.74444 5.3613C6.26559 5.84014 5.99658 6.48959 5.99658 7.16678H7.10325ZM8.54992 12.5001C8.72673 12.5001 8.8963 12.4299 9.02132 12.3048C9.14634 12.1798 9.21658 12.0103 9.21658 11.8334C9.21658 11.6566 9.14634 11.4871 9.02132 11.362C8.8963 11.237 8.72673 11.1668 8.54992 11.1668C8.3731 11.1668 8.20354 11.237 8.07851 11.362C7.95349 11.4871 7.88325 11.6566 7.88325 11.8334C7.88325 12.0103 7.95349 12.1798 8.07851 12.3048C8.20354 12.4299 8.3731 12.5001 8.54992 12.5001Z" fill="#2A2E34"/>
</svg>
