<svg width="16" height="16" viewBox="0 0 16 16" fill="none" xmlns="http://www.w3.org/2000/svg">
<path d="M11.4711 6.80461C11.5926 6.67888 11.6598 6.51048 11.6582 6.33568C11.6567 6.16088 11.5866 5.99367 11.463 5.87007C11.3394 5.74646 11.1722 5.67635 10.9974 5.67483C10.8226 5.67331 10.6542 5.74051 10.5285 5.86195L6.99978 9.39061L5.47112 7.86195C5.34538 7.74051 5.17698 7.67331 5.00218 7.67483C4.82738 7.67635 4.66018 7.74646 4.53657 7.87007C4.41297 7.99367 4.34285 8.16088 4.34133 8.33568C4.33981 8.51048 4.40701 8.67888 4.52845 8.80461L6.52845 10.8046C6.65347 10.9296 6.82301 10.9998 6.99978 10.9998C7.17656 10.9998 7.3461 10.9296 7.47112 10.8046L11.4711 6.80461Z" fill="white"/>
<path fill-rule="evenodd" clip-rule="evenodd" d="M8.00016 1.33325C4.31816 1.33325 1.3335 4.31792 1.3335 7.99992C1.3335 11.6819 4.31816 14.6666 8.00016 14.6666C11.6822 14.6666 14.6668 11.6819 14.6668 7.99992C14.6668 4.31792 11.6822 1.33325 8.00016 1.33325ZM2.66683 7.99992C2.66683 6.58543 3.22873 5.22888 4.22893 4.22868C5.22912 3.22849 6.58567 2.66659 8.00016 2.66659C9.41465 2.66659 10.7712 3.22849 11.7714 4.22868C12.7716 5.22888 13.3335 6.58543 13.3335 7.99992C13.3335 9.41441 12.7716 10.771 11.7714 11.7712C10.7712 12.7713 9.41465 13.3333 8.00016 13.3333C6.58567 13.3333 5.22912 12.7713 4.22893 11.7712C3.22873 10.771 2.66683 9.41441 2.66683 7.99992Z" fill="white"/>
</svg>
