<svg width="17" height="16" viewBox="0 0 17 16" fill="none" xmlns="http://www.w3.org/2000/svg">
<path fill-rule="evenodd" clip-rule="evenodd" d="M6.43014 11.6868C6.3365 11.593 6.28391 11.4659 6.28391 11.3334C6.28391 11.2009 6.3365 11.0739 6.43014 10.9801L9.41014 8.00011L6.43014 5.02011C6.38101 4.97434 6.34161 4.91914 6.31428 4.85781C6.28695 4.79647 6.27226 4.73026 6.27107 4.66313C6.26989 4.59599 6.28224 4.52931 6.30739 4.46705C6.33253 4.40479 6.36996 4.34823 6.41744 4.30076C6.46492 4.25328 6.52148 4.21585 6.58374 4.1907C6.646 4.16555 6.71268 4.1532 6.77982 4.15439C6.84695 4.15557 6.91316 4.17027 6.97449 4.19759C7.03583 4.22492 7.09103 4.26432 7.1368 4.31345L10.4701 7.64678C10.5638 7.74053 10.6164 7.86761 10.6164 8.00011C10.6164 8.13261 10.5638 8.2597 10.4701 8.35345L7.1368 11.6868C7.04305 11.7804 6.91597 11.833 6.78347 11.833C6.65097 11.833 6.52389 11.7804 6.43014 11.6868Z" fill="#656F7D"/>
</svg>
