<svg width="20" height="20" viewBox="0 0 20 20" fill="none" xmlns="http://www.w3.org/2000/svg">
<path fill-rule="evenodd" clip-rule="evenodd" d="M4.75227 4.66343C4.9586 4.30234 5.25674 4.00222 5.61647 3.79353C5.9762 3.58483 6.38472 3.47498 6.80061 3.4751H13.1989C13.6147 3.47512 14.023 3.58505 14.3826 3.79374C14.7422 4.00243 15.0402 4.30246 15.2464 4.66343L18.1006 9.65676C18.1602 9.76135 18.1916 9.8797 18.1914 10.0001V14.1668C18.1914 14.7922 17.943 15.3921 17.5007 15.8344C17.0584 16.2766 16.4586 16.5251 15.8331 16.5251H4.16644C3.54097 16.5251 2.94112 16.2766 2.49885 15.8344C2.05657 15.3921 1.80811 14.7922 1.80811 14.1668V10.0001C1.80824 9.87962 1.83984 9.76127 1.89977 9.65676L4.75227 4.66343ZM6.80061 4.85843C6.45061 4.85843 6.12727 5.04593 5.95394 5.3501L3.69144 9.30843H6.66644C6.75728 9.30841 6.84723 9.32628 6.93116 9.36103C7.0151 9.39577 7.09136 9.44671 7.15561 9.51093L8.61977 10.9751H11.3798L12.8439 9.51093C12.9082 9.44671 12.9844 9.39577 13.0684 9.36103C13.1523 9.32628 13.2423 9.30841 13.3331 9.30843H16.3081L14.0456 5.3501C13.9604 5.20077 13.8372 5.07663 13.6885 4.99029C13.5398 4.90394 13.3709 4.85845 13.1989 4.85843H6.80061ZM16.8081 10.6918H13.6198L12.1556 12.1559C12.0914 12.2202 12.0151 12.2711 11.9312 12.3058C11.8472 12.3406 11.7573 12.3585 11.6664 12.3584H8.33311C8.24227 12.3585 8.15231 12.3406 8.06838 12.3058C7.98445 12.2711 7.90818 12.2202 7.84394 12.1559L6.37977 10.6918H3.19144V14.1668C3.19144 14.7051 3.62811 15.1418 4.16644 15.1418H15.8331C16.0917 15.1418 16.3397 15.039 16.5225 14.8562C16.7054 14.6733 16.8081 14.4254 16.8081 14.1668V10.6918Z" fill="#4F5762"/>
</svg>
