<svg width="17" height="16" viewBox="0 0 17 16" fill="none" xmlns="http://www.w3.org/2000/svg">
<path d="M2.25408 4.66667C2.25408 4.48986 2.32432 4.32029 2.44935 4.19526C2.57437 4.07024 2.74394 4 2.92075 4H14.9194C15.0962 4 15.2658 4.07024 15.3908 4.19526C15.5158 4.32029 15.5861 4.48986 15.5861 4.66667C15.5861 4.84348 15.5158 5.01305 15.3908 5.13807C15.2658 5.2631 15.0962 5.33333 14.9194 5.33333H2.92008C2.74327 5.33333 2.5737 5.2631 2.44868 5.13807C2.32366 5.01305 2.25408 4.84348 2.25408 4.66667ZM4.50408 8.416C4.50408 8.23919 4.57432 8.06962 4.69935 7.9446C4.82437 7.81957 4.99394 7.74933 5.17075 7.74933H12.6701C12.8469 7.74933 13.0165 7.81957 13.1415 7.9446C13.2665 8.06962 13.3368 8.23919 13.3368 8.416C13.3368 8.59281 13.2665 8.76238 13.1415 8.8874C13.0165 9.01243 12.8469 9.08267 12.6701 9.08267H5.17075C4.99394 9.08267 4.82437 9.01243 4.69935 8.8874C4.57432 8.76238 4.50408 8.59281 4.50408 8.416ZM7.42008 11.4993C7.24327 11.4993 7.0737 11.5696 6.94868 11.6946C6.82366 11.8196 6.75342 11.9892 6.75342 12.166C6.75342 12.3428 6.82366 12.5124 6.94868 12.6374C7.0737 12.7624 7.24327 12.8327 7.42008 12.8327H10.4201C10.5969 12.8327 10.7665 12.7624 10.8915 12.6374C11.0165 12.5124 11.0868 12.3428 11.0868 12.166C11.0868 11.9892 11.0165 11.8196 10.8915 11.6946C10.7665 11.5696 10.5969 11.4993 10.4201 11.4993H7.42008Z" fill="#4F5762"/>
</svg>
