<svg width="16" height="16" viewBox="0 0 16 16" fill="none" xmlns="http://www.w3.org/2000/svg">
<path fill-rule="evenodd" clip-rule="evenodd" d="M3.99984 3.33325C3.99984 3.15644 4.07008 2.98687 4.1951 2.86185C4.32012 2.73682 4.48969 2.66659 4.6665 2.66659H8.78117C8.95797 2.66662 9.12751 2.73689 9.2525 2.86192L11.8045 5.41392C11.9295 5.53891 11.9998 5.70846 11.9998 5.88525V12.6666C11.9998 12.8434 11.9296 13.013 11.8046 13.138C11.6796 13.263 11.51 13.3333 11.3332 13.3333H4.6665C4.48969 13.3333 4.32012 13.263 4.1951 13.138C4.07008 13.013 3.99984 12.8434 3.99984 12.6666V3.33325ZM4.6665 1.33325C4.13607 1.33325 3.62736 1.54397 3.25229 1.91904C2.87722 2.29411 2.6665 2.80282 2.6665 3.33325V12.6666C2.6665 13.197 2.87722 13.7057 3.25229 14.0808C3.62736 14.4559 4.13607 14.6666 4.6665 14.6666H11.3332C11.8636 14.6666 12.3723 14.4559 12.7474 14.0808C13.1225 13.7057 13.3332 13.197 13.3332 12.6666V5.88525C13.3329 5.35509 13.1221 4.84674 12.7472 4.47192L10.1952 1.91859C9.82008 1.54373 9.31146 1.33319 8.78117 1.33325H4.6665ZM5.99984 5.33325C5.82303 5.33325 5.65346 5.40349 5.52843 5.52851C5.40341 5.65354 5.33317 5.82311 5.33317 5.99992C5.33317 6.17673 5.40341 6.3463 5.52843 6.47132C5.65346 6.59635 5.82303 6.66659 5.99984 6.66659H7.99984C8.17665 6.66659 8.34622 6.59635 8.47124 6.47132C8.59627 6.3463 8.6665 6.17673 8.6665 5.99992C8.6665 5.82311 8.59627 5.65354 8.47124 5.52851C8.34622 5.40349 8.17665 5.33325 7.99984 5.33325H5.99984ZM5.99984 7.99992C5.82303 7.99992 5.65346 8.07016 5.52843 8.19518C5.40341 8.32021 5.33317 8.48977 5.33317 8.66659C5.33317 8.8434 5.40341 9.01297 5.52843 9.13799C5.65346 9.26301 5.82303 9.33325 5.99984 9.33325H9.99984C10.1766 9.33325 10.3462 9.26301 10.4712 9.13799C10.5963 9.01297 10.6665 8.8434 10.6665 8.66659C10.6665 8.48977 10.5963 8.32021 10.4712 8.19518C10.3462 8.07016 10.1766 7.99992 9.99984 7.99992H5.99984ZM5.33317 11.3333C5.33317 11.1564 5.40341 10.9869 5.52843 10.8618C5.65346 10.7368 5.82303 10.6666 5.99984 10.6666H9.99984C10.1766 10.6666 10.3462 10.7368 10.4712 10.8618C10.5963 10.9869 10.6665 11.1564 10.6665 11.3333C10.6665 11.5101 10.5963 11.6796 10.4712 11.8047C10.3462 11.9297 10.1766 11.9999 9.99984 11.9999H5.99984C5.82303 11.9999 5.65346 11.9297 5.52843 11.8047C5.40341 11.6796 5.33317 11.5101 5.33317 11.3333Z" fill="white"/>
</svg>
