<svg width="17" height="16" viewBox="0 0 17 16" fill="none" xmlns="http://www.w3.org/2000/svg">
<path d="M13.3 9.06675C12.9817 9.06675 12.6765 8.94032 12.4515 8.71528C12.2264 8.49023 12.1 8.18501 12.1 7.86675C12.1 7.54849 12.2264 7.24326 12.4515 7.01822C12.6765 6.79318 12.9817 6.66675 13.3 6.66675C13.6183 6.66675 13.9235 6.79318 14.1485 7.01822C14.3736 7.24326 14.5 7.54849 14.5 7.86675C14.5 8.18501 14.3736 8.49023 14.1485 8.71528C13.9235 8.94032 13.6183 9.06675 13.3 9.06675ZM8.5 9.06675C8.18174 9.06675 7.87652 8.94032 7.65147 8.71528C7.42643 8.49023 7.3 8.18501 7.3 7.86675C7.3 7.54849 7.42643 7.24326 7.65147 7.01822C7.87652 6.79318 8.18174 6.66675 8.5 6.66675C8.81826 6.66675 9.12348 6.79318 9.34853 7.01822C9.57357 7.24326 9.7 7.54849 9.7 7.86675C9.7 8.18501 9.57357 8.49023 9.34853 8.71528C9.12348 8.94032 8.81826 9.06675 8.5 9.06675ZM3.7 9.06675C3.38174 9.06675 3.07652 8.94032 2.85147 8.71528C2.62643 8.49023 2.5 8.18501 2.5 7.86675C2.5 7.54849 2.62643 7.24326 2.85147 7.01822C3.07652 6.79318 3.38174 6.66675 3.7 6.66675C4.01826 6.66675 4.32348 6.79318 4.54853 7.01822C4.77357 7.24326 4.9 7.54849 4.9 7.86675C4.9 8.18501 4.77357 8.49023 4.54853 8.71528C4.32348 8.94032 4.01826 9.06675 3.7 9.06675Z" fill="#4F5762"/>
</svg>
