<svg width="17" height="16" viewBox="0 0 17 16" fill="none" xmlns="http://www.w3.org/2000/svg">
<path fill-rule="evenodd" clip-rule="evenodd" d="M8.23014 2.66659C6.81566 2.66659 5.4591 3.22849 4.45891 4.22868C3.45871 5.22888 2.89681 6.58543 2.89681 7.99992C2.89681 9.41441 3.45871 10.771 4.45891 11.7712C5.4591 12.7713 6.81566 13.3333 8.23014 13.3333C9.64463 13.3333 11.0012 12.7713 12.0014 11.7712C13.0016 10.771 13.5635 9.41441 13.5635 7.99992C13.5635 6.58543 13.0016 5.22888 12.0014 4.22868C11.0012 3.22849 9.64463 2.66659 8.23014 2.66659ZM1.56348 7.99992C1.56348 4.31792 4.54814 1.33325 8.23014 1.33325C11.9121 1.33325 14.8968 4.31792 14.8968 7.99992C14.8968 11.6819 11.9121 14.6666 8.23014 14.6666C4.54814 14.6666 1.56348 11.6819 1.56348 7.99992ZM8.23014 4.74059C8.40695 4.74059 8.57652 4.81082 8.70155 4.93585C8.82657 5.06087 8.89681 5.23044 8.89681 5.40725V7.33325H10.9708C11.1476 7.33325 11.3172 7.40349 11.4422 7.52851C11.5672 7.65354 11.6375 7.82311 11.6375 7.99992C11.6375 8.17673 11.5672 8.3463 11.4422 8.47132C11.3172 8.59635 11.1476 8.66659 10.9708 8.66659H8.89681V10.7406C8.89681 10.9174 8.82657 11.087 8.70155 11.212C8.57652 11.337 8.40695 11.4073 8.23014 11.4073C8.05333 11.4073 7.88376 11.337 7.75874 11.212C7.63371 11.087 7.56348 10.9174 7.56348 10.7406V8.66659H5.63748C5.46067 8.66659 5.2911 8.59635 5.16607 8.47132C5.04105 8.3463 4.97081 8.17673 4.97081 7.99992C4.97081 7.82311 5.04105 7.65354 5.16607 7.52851C5.2911 7.40349 5.46067 7.33325 5.63748 7.33325H7.56348V5.40725C7.56348 5.23044 7.63371 5.06087 7.75874 4.93585C7.88376 4.81082 8.05333 4.74059 8.23014 4.74059Z" fill="white"/>
</svg>
