<svg width="16" height="16" viewBox="0 0 16 16" fill="none" xmlns="http://www.w3.org/2000/svg">
<path d="M12.8 9.06675C12.4817 9.06675 12.1765 8.94032 11.9515 8.71528C11.7264 8.49023 11.6 8.18501 11.6 7.86675C11.6 7.54849 11.7264 7.24326 11.9515 7.01822C12.1765 6.79318 12.4817 6.66675 12.8 6.66675C13.1183 6.66675 13.4235 6.79318 13.6485 7.01822C13.8736 7.24326 14 7.54849 14 7.86675C14 8.18501 13.8736 8.49023 13.6485 8.71528C13.4235 8.94032 13.1183 9.06675 12.8 9.06675ZM8 9.06675C7.68174 9.06675 7.37652 8.94032 7.15147 8.71528C6.92643 8.49023 6.8 8.18501 6.8 7.86675C6.8 7.54849 6.92643 7.24326 7.15147 7.01822C7.37652 6.79318 7.68174 6.66675 8 6.66675C8.31826 6.66675 8.62348 6.79318 8.84853 7.01822C9.07357 7.24326 9.2 7.54849 9.2 7.86675C9.2 8.18501 9.07357 8.49023 8.84853 8.71528C8.62348 8.94032 8.31826 9.06675 8 9.06675ZM3.2 9.06675C2.88174 9.06675 2.57652 8.94032 2.35147 8.71528C2.12643 8.49023 2 8.18501 2 7.86675C2 7.54849 2.12643 7.24326 2.35147 7.01822C2.57652 6.79318 2.88174 6.66675 3.2 6.66675C3.51826 6.66675 3.82348 6.79318 4.04853 7.01822C4.27357 7.24326 4.4 7.54849 4.4 7.86675C4.4 8.18501 4.27357 8.49023 4.04853 8.71528C3.82348 8.94032 3.51826 9.06675 3.2 9.06675Z" fill="#656F7D"/>
</svg>
