<svg width="16" height="16" viewBox="0 0 16 16" fill="none" xmlns="http://www.w3.org/2000/svg">
<path fill-rule="evenodd" clip-rule="evenodd" d="M3.70022 3.44191C3.46093 3.48416 3.23041 3.56618 3.01822 3.68458C2.82489 3.79858 2.46555 4.15791 2.35155 4.35125C2.22916 4.56985 2.14654 4.80844 2.10755 5.05591C2.07222 5.30458 2.07222 11.0952 2.10755 11.3439C2.16955 11.7699 2.33489 12.0932 2.65422 12.4126C2.97822 12.7366 3.30955 12.9039 3.73955 12.9599C3.99622 12.9932 9.73756 12.9932 9.99422 12.9599C10.2476 12.9232 10.4922 12.8406 10.7156 12.7152C10.9089 12.6012 11.2682 12.2419 11.3822 12.0486C11.5842 11.7046 11.6522 11.3806 11.6529 10.7539L11.6536 10.3479L12.6736 10.8552C13.8196 11.4252 13.8882 11.4486 14.2436 11.3899C14.4922 11.355 14.7217 11.2371 14.8949 11.0552C15.0742 10.8746 15.1809 10.6752 15.2249 10.4386C15.2642 10.2246 15.2642 6.17525 15.2249 5.96125C15.1818 5.72633 15.0665 5.51073 14.8949 5.34458C14.7222 5.16378 14.4942 5.04557 14.2469 5.00858C13.8956 4.94858 13.8202 4.97458 12.6736 5.54458L11.6536 6.05191L11.6529 5.64591C11.6522 5.01925 11.5842 4.69525 11.3822 4.35125C11.2682 4.15791 10.9089 3.79858 10.7156 3.68458C10.497 3.56219 10.2584 3.47957 10.0109 3.44058C9.78489 3.40858 3.92355 3.40925 3.70022 3.44191ZM10.0069 4.63991C10.1869 4.70725 10.3582 4.87858 10.4276 5.06191C10.4789 5.19658 10.4802 5.27792 10.4802 8.19991C10.4802 11.1219 10.4789 11.2032 10.4276 11.3379C10.3891 11.4327 10.332 11.5189 10.2598 11.5913C10.1875 11.6638 10.1016 11.7211 10.0069 11.7599C9.86822 11.8119 9.79489 11.8132 6.86689 11.8132C3.93889 11.8132 3.86555 11.8119 3.72689 11.7599C3.63221 11.7211 3.54624 11.6638 3.474 11.5913C3.40177 11.5189 3.34472 11.4327 3.30622 11.3379C3.25489 11.2032 3.25355 11.1219 3.25355 8.20058C3.25355 5.27191 3.25489 5.19858 3.30689 5.05991C3.38506 4.87113 3.5342 4.72056 3.72222 4.64058C3.84889 4.59058 3.95622 4.58925 6.85889 4.58791C9.79622 4.58658 9.86822 4.58791 10.0069 4.63991ZM14.0802 8.19991C14.0802 9.32192 14.0742 10.2399 14.0669 10.2399C14.0596 10.2399 13.5136 9.96991 12.8536 9.63991L11.6536 9.03992V7.35991L12.8469 6.76125C13.2489 6.55658 13.6536 6.35658 14.0602 6.16125C14.0716 6.16058 14.0802 7.07791 14.0802 8.19991Z" fill="white"/>
</svg>
