<svg width="20" height="20" viewBox="0 0 20 20" fill="none" xmlns="http://www.w3.org/2000/svg">
<path fill-rule="evenodd" clip-rule="evenodd" d="M4.62503 4.30239C4.32592 4.3552 4.03777 4.45773 3.77253 4.60573C3.53087 4.74823 3.0817 5.19739 2.9392 5.43906C2.78621 5.71231 2.68294 6.01055 2.6342 6.31989C2.59003 6.63073 2.59003 13.8691 2.6342 14.1799C2.7117 14.7124 2.91837 15.1166 3.31753 15.5157C3.72253 15.9207 4.1367 16.1299 4.6742 16.1999C4.99503 16.2416 12.1717 16.2416 12.4925 16.1999C12.8092 16.1541 13.115 16.0507 13.3942 15.8941C13.6359 15.7516 14.085 15.3024 14.2275 15.0607C14.48 14.6307 14.565 14.2257 14.5659 13.4424L14.5667 12.9349L15.8417 13.5691C17.2742 14.2816 17.36 14.3107 17.8042 14.2374C18.115 14.1937 18.4019 14.0463 18.6184 13.8191C18.8425 13.5932 18.9759 13.3441 19.0309 13.0482C19.08 12.7807 19.08 7.71906 19.0309 7.45156C18.977 7.15791 18.8328 6.88841 18.6184 6.68073C18.4025 6.45472 18.1175 6.30696 17.8084 6.26073C17.3692 6.18573 17.275 6.21823 15.8417 6.93073L14.5667 7.56489L14.5659 7.05739C14.565 6.27406 14.48 5.86906 14.2275 5.43906C14.085 5.19739 13.6359 4.74823 13.3942 4.60573C13.121 4.45273 12.8227 4.34946 12.5134 4.30073C12.2309 4.26073 4.9042 4.26156 4.62503 4.30239ZM12.5084 5.79989C12.7334 5.88406 12.9475 6.09823 13.0342 6.32739C13.0984 6.49573 13.1 6.59739 13.1 10.2499C13.1 13.9024 13.0984 14.0041 13.0342 14.1724C12.9861 14.2909 12.9148 14.3986 12.8245 14.4892C12.7342 14.5797 12.6267 14.6514 12.5084 14.6999C12.335 14.7649 12.2434 14.7666 8.58337 14.7666C4.92337 14.7666 4.8317 14.7649 4.65837 14.6999C4.54002 14.6514 4.43255 14.5797 4.34226 14.4892C4.25196 14.3986 4.18066 14.2909 4.13253 14.1724C4.06837 14.0041 4.0667 13.9024 4.0667 10.2507C4.0667 6.58989 4.06837 6.49823 4.13337 6.32489C4.23109 6.08891 4.4175 5.9007 4.65253 5.80073C4.81087 5.73823 4.94503 5.73656 8.57337 5.73489C12.245 5.73323 12.335 5.73489 12.5084 5.79989ZM17.6 10.2499C17.6 11.6524 17.5925 12.7999 17.5834 12.7999C17.5742 12.7999 16.8917 12.4624 16.0667 12.0499L14.5667 11.2999V9.19989L16.0584 8.45156C16.5609 8.19573 17.0667 7.94573 17.575 7.70156C17.5892 7.70073 17.6 8.84739 17.6 10.2499Z" fill="#4F5762"/>
</svg>
