<svg width="17" height="16" viewBox="0 0 17 16" fill="none" xmlns="http://www.w3.org/2000/svg">
<path fill-rule="evenodd" clip-rule="evenodd" d="M10.6131 10.6159C9.73278 11.4378 8.56478 11.8811 7.36076 11.8501C6.15675 11.8191 5.01308 11.3164 4.17616 10.4503C3.33924 9.58419 2.87604 8.42396 2.88636 7.21959C2.89669 6.01522 3.37971 4.8631 4.23136 4.01145C5.08301 3.1598 6.23512 2.67678 7.43949 2.66646C8.64386 2.65613 9.80409 3.11933 10.6702 3.95625C11.5363 4.79318 12.039 5.93684 12.07 7.14086C12.101 8.34488 11.6577 9.51288 10.8358 10.3932C10.7449 10.4486 10.6685 10.525 10.6131 10.6159ZM11.1711 11.8946C9.98703 12.8378 8.48683 13.2922 6.97835 13.1643C5.46987 13.0365 4.06751 12.3362 3.05903 11.2071C2.05056 10.078 1.51243 8.60581 1.55509 7.09253C1.59775 5.57924 2.21794 4.13966 3.28842 3.06918C4.3589 1.9987 5.79848 1.37851 7.31176 1.33585C8.82505 1.2932 10.2973 1.83132 11.4264 2.8398C12.5554 3.84827 13.2557 5.25063 13.3836 6.75911C13.5114 8.26759 13.0571 9.76779 12.1138 10.9519L14.6171 13.4546C14.7386 13.5803 14.8058 13.7487 14.8042 13.9235C14.8027 14.0983 14.7326 14.2655 14.609 14.3891C14.4854 14.5127 14.3182 14.5828 14.1434 14.5843C13.9686 14.5859 13.8002 14.5187 13.6745 14.3972L11.1711 11.8946Z" fill="#4F5762"/>
</svg>
