<svg width="15" height="14" viewBox="0 0 15 14" fill="none" xmlns="http://www.w3.org/2000/svg">
<path fill-rule="evenodd" clip-rule="evenodd" d="M4.25016 2.91675C4.25016 2.76204 4.31162 2.61367 4.42102 2.50427C4.53041 2.39487 4.67879 2.33341 4.8335 2.33341H8.43383C8.58853 2.33345 8.73688 2.39493 8.84625 2.50433L11.0792 4.73733C11.1887 4.8467 11.2501 4.99505 11.2502 5.14975V11.0834C11.2502 11.2381 11.1887 11.3865 11.0793 11.4959C10.9699 11.6053 10.8215 11.6667 10.6668 11.6667H4.8335C4.67879 11.6667 4.53041 11.6053 4.42102 11.4959C4.31162 11.3865 4.25016 11.2381 4.25016 11.0834V2.91675ZM4.8335 1.16675C4.36937 1.16675 3.92425 1.35112 3.59606 1.67931C3.26787 2.0075 3.0835 2.45262 3.0835 2.91675V11.0834C3.0835 11.5475 3.26787 11.9927 3.59606 12.3209C3.92425 12.649 4.36937 12.8334 4.8335 12.8334H10.6668C11.131 12.8334 11.5761 12.649 11.9043 12.3209C12.2325 11.9927 12.4168 11.5475 12.4168 11.0834V5.14975C12.4166 4.68586 12.2321 4.24105 11.9041 3.91308L9.67108 1.67891C9.34287 1.35092 8.89784 1.16669 8.43383 1.16675H4.8335ZM6.00016 4.66675C5.84545 4.66675 5.69708 4.72821 5.58768 4.8376C5.47829 4.947 5.41683 5.09537 5.41683 5.25008C5.41683 5.40479 5.47829 5.55316 5.58768 5.66256C5.69708 5.77196 5.84545 5.83341 6.00016 5.83341H7.75016C7.90487 5.83341 8.05325 5.77196 8.16264 5.66256C8.27204 5.55316 8.3335 5.40479 8.3335 5.25008C8.3335 5.09537 8.27204 4.947 8.16264 4.8376C8.05325 4.72821 7.90487 4.66675 7.75016 4.66675H6.00016ZM6.00016 7.00008C5.84545 7.00008 5.69708 7.06154 5.58768 7.17094C5.47829 7.28033 5.41683 7.4287 5.41683 7.58341C5.41683 7.73812 5.47829 7.8865 5.58768 7.99589C5.69708 8.10529 5.84545 8.16675 6.00016 8.16675H9.50016C9.65487 8.16675 9.80325 8.10529 9.91264 7.99589C10.022 7.8865 10.0835 7.73812 10.0835 7.58341C10.0835 7.4287 10.022 7.28033 9.91264 7.17094C9.80325 7.06154 9.65487 7.00008 9.50016 7.00008H6.00016ZM5.41683 9.91675C5.41683 9.76204 5.47829 9.61366 5.58768 9.50427C5.69708 9.39487 5.84545 9.33341 6.00016 9.33341H9.50016C9.65487 9.33341 9.80325 9.39487 9.91264 9.50427C10.022 9.61366 10.0835 9.76204 10.0835 9.91675C10.0835 10.0715 10.022 10.2198 9.91264 10.3292C9.80325 10.4386 9.65487 10.5001 9.50016 10.5001H6.00016C5.84545 10.5001 5.69708 10.4386 5.58768 10.3292C5.47829 10.2198 5.41683 10.0715 5.41683 9.91675Z" fill="#656F7D"/>
</svg>
