<svg width="20" height="20" viewBox="0 0 20 20" fill="none" xmlns="http://www.w3.org/2000/svg">
<path fill-rule="evenodd" clip-rule="evenodd" d="M5.83343 3.19168C5.57484 3.19168 5.32685 3.29441 5.144 3.47725C4.96115 3.6601 4.85843 3.9081 4.85843 4.16668V15.8333C4.85843 16.3717 5.2951 16.8083 5.83343 16.8083H14.1668C14.4254 16.8083 14.6733 16.7056 14.8562 16.5228C15.039 16.3399 15.1418 16.0919 15.1418 15.8333V7.35668C15.1418 7.09835 15.0393 6.85002 14.8559 6.66752L11.6668 3.47752C11.5762 3.38686 11.4686 3.31496 11.3502 3.26591C11.2318 3.21687 11.1049 3.19164 10.9768 3.19168H5.83343ZM3.4751 4.16668C3.4751 3.54121 3.72356 2.94136 4.16584 2.49909C4.60811 2.05682 5.20796 1.80835 5.83343 1.80835H10.9759C11.6018 1.80835 12.2009 2.05668 12.6443 2.49918L15.8334 5.68918C16.2751 6.13168 16.5243 6.73085 16.5243 7.35668V15.8333C16.5243 16.4587 16.2759 17.0584 15.8338 17.5006C15.3917 17.9429 14.7921 18.1915 14.1668 18.1917H5.83343C5.20796 18.1917 4.60811 17.9432 4.16584 17.5009C3.72356 17.0587 3.4751 16.4588 3.4751 15.8333V4.16668ZM6.80843 7.50002C6.80843 7.31657 6.8813 7.14065 7.01102 7.01093C7.14073 6.88122 7.31666 6.80835 7.5001 6.80835H10.0001C10.1835 6.80835 10.3595 6.88122 10.4892 7.01093C10.6189 7.14065 10.6918 7.31657 10.6918 7.50002C10.6918 7.68346 10.6189 7.85939 10.4892 7.9891C10.3595 8.11881 10.1835 8.19168 10.0001 8.19168H7.5001C7.31666 8.19168 7.14073 8.11881 7.01102 7.9891C6.8813 7.85939 6.80843 7.68346 6.80843 7.50002ZM6.80843 10.8333C6.80843 10.6499 6.8813 10.474 7.01102 10.3443C7.14073 10.2146 7.31666 10.1417 7.5001 10.1417H12.5001C12.6835 10.1417 12.8595 10.2146 12.9892 10.3443C13.1189 10.474 13.1918 10.6499 13.1918 10.8333C13.1918 11.0168 13.1189 11.1927 12.9892 11.3224C12.8595 11.4521 12.6835 11.525 12.5001 11.525H7.5001C7.40927 11.525 7.31933 11.5071 7.23541 11.4724C7.15149 11.4376 7.07524 11.3867 7.01102 11.3224C6.94679 11.2582 6.89584 11.182 6.86108 11.098C6.82632 11.0141 6.80843 10.9242 6.80843 10.8333ZM6.80843 14.1667C6.80843 13.9832 6.8813 13.8073 7.01102 13.6776C7.14073 13.5479 7.31666 13.475 7.5001 13.475H12.5001C12.6835 13.475 12.8595 13.5479 12.9892 13.6776C13.1189 13.8073 13.1918 13.9832 13.1918 14.1667C13.1918 14.3501 13.1189 14.5261 12.9892 14.6558C12.8595 14.7855 12.6835 14.8583 12.5001 14.8583H7.5001C7.31666 14.8583 7.14073 14.7855 7.01102 14.6558C6.8813 14.5261 6.80843 14.3501 6.80843 14.1667Z" fill="#FFC955"/>
</svg>
