<svg width="10" height="10" viewBox="0 0 10 10" fill="none" xmlns="http://www.w3.org/2000/svg">
<path fill-rule="evenodd" clip-rule="evenodd" d="M4.99993 7.08333C4.88943 7.0833 4.78346 7.03939 4.70534 6.96124L2.20534 4.46124C2.12944 4.38266 2.08745 4.27741 2.08839 4.16816C2.08934 4.05891 2.13316 3.95441 2.21042 3.87715C2.28767 3.7999 2.39218 3.75608 2.50143 3.75513C2.61067 3.75418 2.71592 3.79618 2.79451 3.87208L4.99993 6.07749L7.20534 3.87208C7.24378 3.83228 7.28976 3.80054 7.34059 3.7787C7.39143 3.75686 7.4461 3.74537 7.50143 3.74489C7.55675 3.74441 7.61162 3.75495 7.66282 3.7759C7.71403 3.79685 7.76055 3.82779 7.79967 3.86691C7.8388 3.90603 7.86973 3.95256 7.89068 4.00376C7.91163 4.05497 7.92218 4.10984 7.9217 4.16516C7.92122 4.22049 7.90972 4.27516 7.88788 4.326C7.86605 4.37683 7.8343 4.42281 7.79451 4.46124L5.29451 6.96124C5.21639 7.03939 5.11042 7.0833 4.99993 7.08333Z" fill="white"/>
</svg>
