<svg width="16" height="16" viewBox="0 0 16 16" fill="none" xmlns="http://www.w3.org/2000/svg">
<path d="M2.03465 2.25546C2.94217 1.37738 4.39049 1.39082 5.32489 2.24074C5.3631 2.27574 5.39161 2.32003 5.40767 2.3693C5.42373 2.41856 5.42679 2.47115 5.41656 2.52194C5.40632 2.57274 5.38313 2.62003 5.34925 2.65924C5.31536 2.69844 5.27192 2.72822 5.22313 2.7457C3.96284 3.21125 2.8817 4.06282 2.13385 5.17898C2.1056 5.22119 2.0671 5.25555 2.02195 5.27883C1.9768 5.30211 1.92648 5.31355 1.8757 5.31208C1.82493 5.31061 1.77535 5.29627 1.73163 5.27042C1.6879 5.24457 1.65145 5.20804 1.62569 5.16426C1.35867 4.70358 1.25379 4.16668 1.32781 3.63938C1.40183 3.11208 1.65111 2.62481 2.03465 2.25546ZM13.4593 2.23498C12.5377 1.37098 11.0894 1.40682 10.1684 2.27146C10.131 2.30702 10.1033 2.35163 10.0881 2.40098C10.0729 2.45033 10.0706 2.50277 10.0816 2.55325C10.0925 2.60372 10.1162 2.65053 10.1505 2.68917C10.1848 2.72781 10.2284 2.75698 10.2772 2.77386C11.5448 3.21996 12.6392 4.05497 13.4043 5.15978C13.4332 5.20148 13.4722 5.23518 13.5176 5.25772C13.5631 5.28026 13.6135 5.29091 13.6642 5.28867C13.7149 5.28644 13.7642 5.27139 13.8075 5.24493C13.8508 5.21847 13.8867 5.18147 13.9118 5.13738C14.1718 4.67268 14.2685 4.13422 14.1865 3.60808C14.1045 3.08193 13.8484 2.59847 13.4593 2.23498ZM8.32009 6.7201C8.32009 6.55036 8.25266 6.38757 8.13264 6.26755C8.01262 6.14753 7.84983 6.0801 7.68009 6.0801C7.51035 6.0801 7.34757 6.14753 7.22754 6.26755C7.10752 6.38757 7.04009 6.55036 7.04009 6.7201V8.9601C7.04013 9.12982 7.10758 9.29258 7.22761 9.41258L8.69513 10.8251C8.81584 10.9416 8.9775 11.0061 9.14531 11.0047C9.31311 11.0032 9.47363 10.9359 9.5923 10.8173C9.71096 10.6986 9.77826 10.5381 9.77972 10.3703C9.78118 10.2025 9.71667 10.0408 9.60009 9.9201L8.32009 8.69514V6.7201Z" fill="white"/>
<path fill-rule="evenodd" clip-rule="evenodd" d="M2.27637 8.88372C2.27635 8.0159 2.48108 7.16032 2.87393 6.38651C3.26678 5.6127 3.83666 4.9425 4.53726 4.43037C5.23785 3.91824 6.04939 3.57863 6.90593 3.43915C7.76247 3.29967 8.63983 3.36424 9.46671 3.62763C10.2936 3.89102 11.0467 4.34579 11.6647 4.95497C12.2828 5.56416 12.7484 6.31058 13.0237 7.13357C13.299 7.95655 13.3763 8.83289 13.2492 9.69136C13.1221 10.5498 12.7943 11.3662 12.2924 12.0741L13.4988 13.2805C13.5597 13.3414 13.608 13.4137 13.6409 13.4933C13.6739 13.5728 13.6908 13.6581 13.6908 13.7442C13.6908 13.8303 13.6739 13.9156 13.6409 13.9951C13.608 14.0747 13.5597 14.147 13.4988 14.2079C13.4379 14.2688 13.3656 14.3171 13.286 14.35C13.2065 14.383 13.1212 14.3999 13.0351 14.3999C12.949 14.3999 12.8637 14.383 12.7841 14.35C12.7046 14.3171 12.6323 14.2688 12.5714 14.2079L11.4111 13.0469C10.4084 13.9211 9.12273 14.4018 7.79253 14.3999C6.46068 14.402 5.1734 13.9203 4.17013 13.0444L3.00789 14.2079C2.88483 14.3309 2.71792 14.4001 2.54389 14.4001C2.36986 14.4001 2.20295 14.3309 2.07989 14.2079C1.95683 14.0848 1.8877 13.9179 1.8877 13.7439C1.8877 13.5698 1.95683 13.4029 2.07989 13.2799L3.29013 12.0703C2.62934 11.1393 2.2752 10.0254 2.27701 8.88372H2.27637ZM7.79253 4.6706C7.23484 4.66373 6.68134 4.76763 6.16412 4.97629C5.64689 5.18496 5.17624 5.49422 4.77944 5.88616C4.38264 6.27809 4.0676 6.7449 3.85258 7.25952C3.63756 7.77413 3.52684 8.32631 3.52684 8.88404C3.52684 9.44177 3.63756 9.99395 3.85258 10.5086C4.0676 11.0232 4.38264 11.49 4.77944 11.8819C5.17624 12.2739 5.64689 12.5831 6.16412 12.7918C6.68134 13.0004 7.23484 13.1044 7.79253 13.0975C8.90101 13.0838 9.95945 12.6339 10.7385 11.8452C11.5175 11.0565 11.9544 9.9926 11.9544 8.88404C11.9544 7.77548 11.5175 6.71157 10.7385 5.92288C9.95945 5.13419 8.90101 4.68426 7.79253 4.6706Z" fill="white"/>
</svg>
