<svg width="16" height="16" viewBox="0 0 16 16" fill="none" xmlns="http://www.w3.org/2000/svg">
<path fill-rule="evenodd" clip-rule="evenodd" d="M8.00016 2.66659C6.58567 2.66659 5.22912 3.22849 4.22893 4.22868C3.22873 5.22888 2.66683 6.58543 2.66683 7.99992C2.66683 9.41441 3.22873 10.771 4.22893 11.7712C5.22912 12.7713 6.58567 13.3333 8.00016 13.3333C9.41465 13.3333 10.7712 12.7713 11.7714 11.7712C12.7716 10.771 13.3335 9.41441 13.3335 7.99992C13.3335 6.58543 12.7716 5.22888 11.7714 4.22868C10.7712 3.22849 9.41465 2.66659 8.00016 2.66659ZM1.3335 7.99992C1.3335 4.31792 4.31816 1.33325 8.00016 1.33325C11.6822 1.33325 14.6668 4.31792 14.6668 7.99992C14.6668 11.6819 11.6822 14.6666 8.00016 14.6666C4.31816 14.6666 1.3335 11.6819 1.3335 7.99992ZM8.00016 4.74059C8.17697 4.74059 8.34654 4.81082 8.47157 4.93585C8.59659 5.06087 8.66683 5.23044 8.66683 5.40725V7.33325H10.7408C10.9176 7.33325 11.0872 7.40349 11.2122 7.52851C11.3373 7.65354 11.4075 7.82311 11.4075 7.99992C11.4075 8.17673 11.3373 8.3463 11.2122 8.47132C11.0872 8.59635 10.9176 8.66659 10.7408 8.66659H8.66683V10.7406C8.66683 10.9174 8.59659 11.087 8.47157 11.212C8.34654 11.337 8.17697 11.4073 8.00016 11.4073C7.82335 11.4073 7.65378 11.337 7.52876 11.212C7.40373 11.087 7.3335 10.9174 7.3335 10.7406V8.66659H5.4075C5.23069 8.66659 5.06112 8.59635 4.93609 8.47132C4.81107 8.3463 4.74083 8.17673 4.74083 7.99992C4.74083 7.82311 4.81107 7.65354 4.93609 7.52851C5.06112 7.40349 5.23069 7.33325 5.4075 7.33325H7.3335V5.40725C7.3335 5.23044 7.40373 5.06087 7.52876 4.93585C7.65378 4.81082 7.82335 4.74059 8.00016 4.74059Z" fill="#656F7D"/>
</svg>
