<svg width="18" height="18" viewBox="0 0 18 18" fill="none" xmlns="http://www.w3.org/2000/svg">
<path fill-rule="evenodd" clip-rule="evenodd" d="M9.0001 3.13135C9.16519 3.13135 9.32353 3.19693 9.44027 3.31367C9.55701 3.43041 9.6226 3.58875 9.6226 3.75385V8.3776H14.2501C14.3318 8.3776 14.4128 8.3937 14.4883 8.42498C14.5638 8.45627 14.6325 8.50212 14.6903 8.55992C14.7481 8.61773 14.7939 8.68635 14.8252 8.76188C14.8565 8.8374 14.8726 8.91835 14.8726 9.0001C14.8726 9.08185 14.8565 9.16279 14.8252 9.23832C14.7939 9.31384 14.7481 9.38247 14.6903 9.44027C14.6325 9.49808 14.5638 9.54393 14.4883 9.57521C14.4128 9.6065 14.3318 9.6226 14.2501 9.6226H9.6226V14.2501C9.6226 14.3318 9.6065 14.4128 9.57521 14.4883C9.54393 14.5638 9.49808 14.6325 9.44027 14.6903C9.38247 14.7481 9.31384 14.7939 9.23832 14.8252C9.16279 14.8565 9.08185 14.8726 9.0001 14.8726C8.91835 14.8726 8.8374 14.8565 8.76188 14.8252C8.68635 14.7939 8.61773 14.7481 8.55992 14.6903C8.50212 14.6325 8.45627 14.5638 8.42498 14.4883C8.3937 14.4128 8.3776 14.3318 8.3776 14.2501V9.6226H3.75385C3.58875 9.6226 3.43041 9.55701 3.31367 9.44027C3.19693 9.32353 3.13135 9.16519 3.13135 9.0001C3.13135 8.835 3.19693 8.67666 3.31367 8.55992C3.43041 8.44318 3.58875 8.3776 3.75385 8.3776H8.3776V3.75385C8.3776 3.58875 8.44318 3.43041 8.55992 3.31367C8.67666 3.19693 8.835 3.13135 9.0001 3.13135Z" fill="#4F5762"/>
</svg>
