<svg width="20" height="20" viewBox="0 0 20 20" fill="none" xmlns="http://www.w3.org/2000/svg">
<path fill-rule="evenodd" clip-rule="evenodd" d="M9.52061 7.06997C8.31227 6.33413 6.80811 7.2283 6.80811 8.61497V13.0516C6.80811 14.4383 8.31311 15.3325 9.52061 14.5966L13.1606 12.3783C14.3131 11.6766 14.3131 9.98997 13.1606 9.2883L9.52061 7.06997ZM8.19144 8.61497C8.19144 8.2708 8.54644 8.09663 8.79977 8.2508L12.4414 10.4691C12.7081 10.6325 12.7081 11.0341 12.4414 11.1975L8.79977 13.4158C8.73719 13.4522 8.666 13.4711 8.59362 13.4707C8.52123 13.4702 8.45029 13.4504 8.38817 13.4132C8.32606 13.376 8.27505 13.3228 8.24045 13.2593C8.20585 13.1957 8.18893 13.124 8.19144 13.0516V8.61497Z" fill="#4F5762"/>
<path fill-rule="evenodd" clip-rule="evenodd" d="M6.66644 0.141602C6.483 0.141602 6.30707 0.214473 6.17736 0.344186C6.04764 0.473899 5.97477 0.649827 5.97477 0.833268C5.97477 1.01671 6.04764 1.19264 6.17736 1.32235C6.30707 1.45206 6.483 1.52493 6.66644 1.52493H9.30811V2.66993C5.10811 3.0216 1.80811 6.54243 1.80811 10.8333C1.80811 15.3574 5.47561 19.0249 9.99977 19.0249C14.5239 19.0249 18.1914 15.3574 18.1914 10.8333C18.1914 6.5416 14.8914 3.0216 10.6914 2.66993V1.52493H13.3331C13.5165 1.52493 13.6925 1.45206 13.8222 1.32235C13.9519 1.19264 14.0248 1.01671 14.0248 0.833268C14.0248 0.649827 13.9519 0.473899 13.8222 0.344186C13.6925 0.214473 13.5165 0.141602 13.3331 0.141602H6.66644ZM3.19144 10.8333C3.19144 9.93919 3.36754 9.05386 3.70969 8.22783C4.05184 7.40181 4.55334 6.65126 5.18555 6.01905C5.81777 5.38684 6.56831 4.88534 7.39434 4.54319C8.22036 4.20104 9.10569 4.02493 9.99977 4.02493C10.8939 4.02493 11.7792 4.20104 12.6052 4.54319C13.4312 4.88534 14.1818 5.38684 14.814 6.01905C15.4462 6.65126 15.9477 7.40181 16.2899 8.22783C16.632 9.05386 16.8081 9.93919 16.8081 10.8333C16.8081 12.639 16.0908 14.3707 14.814 15.6475C13.5372 16.9243 11.8055 17.6416 9.99977 17.6416C8.19409 17.6416 6.46236 16.9243 5.18555 15.6475C3.90874 14.3707 3.19144 12.639 3.19144 10.8333Z" fill="#4F5762"/>
</svg>
