<svg width="17" height="17" viewBox="0 0 17 17" fill="none" xmlns="http://www.w3.org/2000/svg">
<path fill-rule="evenodd" clip-rule="evenodd" d="M8.08974 3.05277C7.52924 3.05277 6.99171 3.27542 6.59538 3.67175C6.19906 4.06808 5.9764 4.60561 5.9764 5.1661C5.9764 5.72659 6.19906 6.26413 6.59538 6.66045C6.99171 7.05678 7.52924 7.27944 8.08974 7.27944C8.65023 7.27944 9.18776 7.05678 9.58409 6.66045C9.98041 6.26413 10.2031 5.72659 10.2031 5.1661C10.2031 4.60561 9.98041 4.06808 9.58409 3.67175C9.18776 3.27542 8.65023 3.05277 8.08974 3.05277ZM10.1431 7.64832C10.6536 7.22592 11.0213 6.65628 11.1961 6.01714C11.3709 5.37801 11.3443 4.7005 11.1198 4.07708C10.8953 3.45365 10.4839 2.91467 9.94183 2.53368C9.3997 2.15269 8.75323 1.94824 8.09062 1.94824C7.42802 1.94824 6.78154 2.15269 6.23942 2.53368C5.6973 2.91467 5.28593 3.45365 5.06146 4.07708C4.83698 4.7005 4.81032 5.37801 4.98512 6.01714C5.15992 6.65628 5.52767 7.22592 6.03818 7.64832C4.87272 8.08214 3.87451 8.87378 3.18661 9.90978C2.49871 10.9458 2.15644 12.173 2.20885 13.4154C2.21774 13.627 2.34574 13.8154 2.5404 13.8999C4.57578 14.788 6.79498 15.1734 9.01062 15.0234C9.15484 15.0107 9.28835 14.9421 9.38257 14.8322C9.47678 14.7222 9.5242 14.5798 9.51467 14.4353C9.50514 14.2909 9.43942 14.1559 9.33158 14.0593C9.22374 13.9627 9.08237 13.9122 8.93774 13.9185C7.01866 14.0486 5.09504 13.7426 3.31107 13.0234C3.33857 12.1016 3.63212 11.2075 4.15633 10.4487C4.68053 9.68998 5.41301 9.09906 6.26546 8.7472C7.11791 8.39534 8.05394 8.29756 8.96071 8.46565C9.86747 8.63374 10.7063 9.06052 11.376 9.69455C11.4287 9.74451 11.4908 9.78359 11.5587 9.80955C11.6265 9.83552 11.6989 9.84786 11.7715 9.84588C11.8441 9.8439 11.9157 9.82763 11.982 9.79801C12.0484 9.76838 12.1082 9.72598 12.1582 9.67321C12.2081 9.62045 12.2472 9.55836 12.2732 9.4905C12.2992 9.42263 12.3115 9.35032 12.3095 9.27768C12.3075 9.20505 12.2913 9.13351 12.2616 9.06716C12.232 9.00082 12.1896 8.94095 12.1368 8.89099C11.5623 8.34668 10.8839 7.92374 10.1422 7.64744L10.1431 7.64832ZM12.7564 10.6128C13.0622 10.6128 13.3102 10.8617 13.3102 11.1665V12.6128H14.7564C14.9032 12.6128 15.0439 12.6711 15.1477 12.7748C15.2514 12.8786 15.3097 13.0193 15.3097 13.1661C15.3097 13.3129 15.2514 13.4536 15.1477 13.5574C15.0439 13.6611 14.9032 13.7194 14.7564 13.7194H13.3102V15.1665C13.3102 15.3133 13.2519 15.454 13.1481 15.5578C13.0443 15.6616 12.9036 15.7199 12.7568 15.7199C12.6101 15.7199 12.4694 15.6616 12.3656 15.5578C12.2618 15.454 12.2035 15.3133 12.2035 15.1665V13.7194H10.7564C10.6096 13.7194 10.4689 13.6611 10.3651 13.5574C10.2614 13.4536 10.2031 13.3129 10.2031 13.1661C10.2031 13.0193 10.2614 12.8786 10.3651 12.7748C10.4689 12.6711 10.6096 12.6128 10.7564 12.6128H12.2035V11.1665C12.2035 10.8608 12.4515 10.6128 12.7564 10.6128Z" fill="#2A2E34"/>
</svg>
