<svg width="14" height="14" viewBox="0 0 14 14" fill="none" xmlns="http://www.w3.org/2000/svg">
<path fill-rule="evenodd" clip-rule="evenodd" d="M6.99999 9.91676C6.8453 9.91672 6.69695 9.85524 6.58758 9.74584L3.08758 6.24584C2.98132 6.13582 2.92252 5.98847 2.92385 5.83552C2.92518 5.68257 2.98653 5.53627 3.09468 5.42811C3.20284 5.31996 3.34914 5.25861 3.50209 5.25728C3.65504 5.25595 3.80239 5.31475 3.91241 5.42101L6.99999 8.50859L10.0876 5.42101C10.1414 5.36529 10.2058 5.32085 10.2769 5.29028C10.3481 5.25971 10.4246 5.24362 10.5021 5.24294C10.5795 5.24227 10.6564 5.25703 10.728 5.28636C10.7997 5.31569 10.8649 5.359 10.9196 5.41377C10.9744 5.46855 11.0177 5.53368 11.0471 5.60537C11.0764 5.67705 11.0911 5.75387 11.0905 5.83132C11.0898 5.90878 11.0737 5.98532 11.0431 6.05649C11.0126 6.12766 10.9681 6.19203 10.9124 6.24584L7.41241 9.74584C7.30304 9.85524 7.15469 9.91672 6.99999 9.91676Z" fill="white"/>
</svg>
