<svg width="13" height="12" viewBox="0 0 13 12" fill="none" xmlns="http://www.w3.org/2000/svg">
<path fill-rule="evenodd" clip-rule="evenodd" d="M6.08964 1C6.22225 1 6.34943 1.05268 6.44319 1.14645C6.53696 1.24021 6.58964 1.36739 6.58964 1.5V9.293L8.73614 7.1465C8.83044 7.05542 8.95674 7.00502 9.08784 7.00616C9.21894 7.0073 9.34435 7.05989 9.43705 7.15259C9.52975 7.24529 9.58234 7.3707 9.58348 7.5018C9.58462 7.6329 9.53422 7.7592 9.44314 7.8535L6.44314 10.8535C6.34938 10.9472 6.22222 10.9999 6.08964 10.9999C5.95706 10.9999 5.8299 10.9472 5.73614 10.8535L2.73614 7.8535C2.68839 7.80738 2.65029 7.7522 2.62409 7.6912C2.59789 7.6302 2.58409 7.56459 2.58351 7.4982C2.58294 7.43181 2.59559 7.36597 2.62073 7.30452C2.64587 7.24307 2.683 7.18725 2.72994 7.1403C2.77689 7.09336 2.83271 7.05623 2.89416 7.03109C2.95561 7.00595 3.02145 6.9933 3.08784 6.99387C3.15423 6.99445 3.21984 7.00824 3.28084 7.03445C3.34184 7.06065 3.39702 7.09874 3.44314 7.1465L5.58964 9.293V1.5C5.58964 1.36739 5.64232 1.24021 5.73609 1.14645C5.82985 1.05268 5.95703 1 6.08964 1Z" fill="#FFC955"/>
</svg>
