<svg width="18" height="18" viewBox="0 0 18 18" fill="none" xmlns="http://www.w3.org/2000/svg">
<path fill-rule="evenodd" clip-rule="evenodd" d="M9 2.36775C8.76787 2.36795 8.54533 2.46035 8.38133 2.62463C8.21732 2.78892 8.1253 3.01162 8.1255 3.24375C8.1257 3.47588 8.2181 3.69843 8.38239 3.86243C8.54667 4.02643 8.76937 4.11845 9.0015 4.11825C9.23363 4.11805 9.45618 4.02565 9.62018 3.86136C9.78418 3.69708 9.8762 3.47438 9.876 3.24225C9.8758 3.01012 9.7834 2.78758 9.61912 2.62357C9.45483 2.45957 9.23213 2.36755 9 2.36775ZM6.885 3.24375C6.8846 2.68235 7.10718 2.14377 7.5038 1.74645C7.90042 1.34913 8.4386 1.1256 9 1.125C9.50749 1.12514 9.99807 1.30743 10.3825 1.63871C10.767 1.96999 11.0197 2.42826 11.0948 2.93016C11.1699 3.43206 11.0624 3.94424 10.7918 4.37356C10.5212 4.80287 10.1055 5.1208 9.62025 5.2695V7.58025C10.0705 7.71919 10.4616 8.00421 10.7318 8.39025L12.9255 7.67625V7.638C12.9251 7.0766 13.1477 6.53802 13.5443 6.1407C13.9409 5.74338 14.4791 5.51985 15.0405 5.51925C15.3185 5.51945 15.5938 5.57441 15.8506 5.68099C16.1074 5.78757 16.3407 5.94369 16.5372 6.14044C16.7336 6.33718 16.8894 6.5707 16.9957 6.82765C17.1019 7.0846 17.1564 7.35996 17.1562 7.638C17.1564 8.19927 16.9338 8.73765 16.5372 9.13481C16.1406 9.53197 15.6025 9.7554 15.0413 9.756C14.7017 9.75639 14.3672 9.67493 14.0658 9.51852C13.7645 9.36211 13.5053 9.13537 13.3102 8.8575L11.115 9.5715V9.606C11.115 10.0845 10.9575 10.5255 10.6905 10.8795L12.0503 12.753C12.3691 12.6438 12.7095 12.6122 13.043 12.661C13.3765 12.7098 13.6935 12.8375 13.9677 13.0335C14.2419 13.2295 14.4654 13.4882 14.6195 13.7879C14.7736 14.0877 14.8539 14.4199 14.8538 14.757C14.8539 15.3184 14.6312 15.8569 14.2344 16.2541C13.8377 16.6513 13.2994 16.8746 12.738 16.875C12.3445 16.875 11.9588 16.7653 11.6241 16.5582C11.2895 16.3511 11.0192 16.0549 10.8435 15.7028C10.6679 15.3506 10.5939 14.9565 10.6298 14.5646C10.6657 14.1727 10.8101 13.7986 11.0468 13.4843L9.687 11.6108C9.24183 11.7641 8.75817 11.7641 8.313 11.6108L6.9525 13.4843C7.18916 13.7986 7.33355 14.1726 7.36947 14.5644C7.4054 14.9562 7.33144 15.3503 7.15588 15.7024C6.98033 16.0546 6.71013 16.3508 6.3756 16.5579C6.04108 16.765 5.65545 16.8748 5.262 16.875C4.7006 16.8744 4.16242 16.6509 3.7658 16.2535C3.36918 15.8562 3.1466 15.3176 3.147 14.7562C3.14699 14.4193 3.22739 14.0873 3.3815 13.7877C3.53562 13.4881 3.75901 13.2296 4.0331 13.0337C4.3072 12.8378 4.62409 12.7101 4.95744 12.6613C5.2908 12.6125 5.63099 12.6439 5.94975 12.753L7.3095 10.8795C7.02578 10.5032 6.87609 10.0427 6.88425 9.5715L4.68975 8.8575C4.4948 9.13531 4.23575 9.36202 3.93455 9.51843C3.63335 9.67484 3.29889 9.75633 2.9595 9.756C2.3981 9.7556 1.85984 9.53226 1.46308 9.13508C1.06632 8.7379 0.843552 8.1994 0.843751 7.638C0.843352 7.0766 1.06593 6.53802 1.46255 6.1407C1.85917 5.74338 2.39735 5.51985 2.95875 5.51925C3.24004 5.5194 3.51848 5.5756 3.77781 5.68457C4.03714 5.79354 4.27215 5.95309 4.46913 6.1539C4.6661 6.35471 4.82109 6.59277 4.92503 6.85415C5.02897 7.11553 5.07978 7.39501 5.0745 7.67625L7.26825 8.3895C7.53854 8.00374 7.92962 7.719 8.37975 7.58025V5.2695C7.9466 5.13619 7.5676 4.86749 7.29843 4.50288C7.02926 4.13827 6.88409 3.69696 6.88425 3.24375H6.885ZM2.9595 6.76125C2.84451 6.7613 2.73066 6.784 2.62444 6.82805C2.51823 6.8721 2.42172 6.93664 2.34045 7.01798C2.25918 7.09932 2.19472 7.19588 2.15076 7.30213C2.1068 7.40839 2.0842 7.52226 2.08425 7.63725C2.0843 7.75224 2.107 7.86609 2.15105 7.97231C2.1951 8.07853 2.25964 8.17503 2.34098 8.2563C2.42232 8.33757 2.51888 8.40203 2.62513 8.44599C2.73139 8.48995 2.84526 8.51255 2.96025 8.5125C3.07519 8.51245 3.18899 8.48976 3.29517 8.44573C3.40134 8.4017 3.4978 8.33719 3.57904 8.25588C3.66028 8.17457 3.7247 8.07806 3.76864 7.97185C3.81258 7.86564 3.83517 7.75181 3.83513 7.63688C3.83508 7.52194 3.81239 7.40813 3.76836 7.30196C3.72433 7.19579 3.65981 7.09933 3.57851 7.01809C3.4972 6.93685 3.40068 6.87242 3.29447 6.82848C3.18826 6.78454 3.07444 6.7612 2.9595 6.76125ZM15.0405 6.76125C14.9255 6.76135 14.8117 6.7841 14.7055 6.82819C14.5993 6.87229 14.5028 6.93687 14.4216 7.01825C14.3403 7.09962 14.2759 7.19621 14.232 7.30248C14.1881 7.40875 14.1655 7.52264 14.1656 7.63763C14.1657 7.75261 14.1885 7.86646 14.2326 7.97266C14.2767 8.07885 14.3412 8.17533 14.4226 8.25657C14.504 8.33781 14.6006 8.40222 14.7069 8.44613C14.8131 8.49005 14.927 8.5126 15.042 8.5125C15.1569 8.5124 15.2707 8.48967 15.3769 8.44559C15.483 8.40151 15.5795 8.33696 15.6607 8.25561C15.7419 8.17427 15.8063 8.07773 15.8502 7.9715C15.8941 7.86527 15.9166 7.75144 15.9165 7.6365C15.9164 7.52156 15.8937 7.40777 15.8496 7.30161C15.8055 7.19546 15.741 7.09903 15.6596 7.01782C15.5783 6.93662 15.4817 6.87223 15.3755 6.82834C15.2693 6.78444 15.1554 6.76115 15.0405 6.76125ZM9 8.7315C8.88506 8.73155 8.77126 8.75424 8.66509 8.79827C8.55891 8.8423 8.46245 8.90681 8.38122 8.98812C8.21714 9.15233 8.12503 9.37499 8.12513 9.60712C8.12523 9.83926 8.21753 10.0618 8.38175 10.2259C8.54596 10.39 8.76862 10.4821 9.00075 10.482C9.23298 10.4819 9.45566 10.3896 9.6198 10.2253C9.78394 10.061 9.8761 9.83823 9.876 9.606C9.8759 9.37377 9.78355 9.15109 9.61927 8.98695C9.45499 8.82281 9.23223 8.73065 9 8.73075V8.7315ZM5.262 13.8818C5.02987 13.8819 4.80733 13.9744 4.64332 14.1386C4.47932 14.3029 4.3873 14.5256 4.3875 14.7577C4.3877 14.9899 4.4801 15.2124 4.64439 15.3764C4.80867 15.5404 5.03137 15.6324 5.2635 15.6322C5.37844 15.6322 5.49223 15.6094 5.59839 15.5653C5.70454 15.5213 5.80097 15.4567 5.88218 15.3754C5.96338 15.294 6.02777 15.1975 6.07166 15.0913C6.11556 14.985 6.1381 14.8712 6.138 14.7562C6.1379 14.6413 6.11517 14.5275 6.07109 14.4214C6.02701 14.3152 5.96246 14.2188 5.88111 14.1376C5.79977 14.0564 5.70323 13.992 5.597 13.9481C5.49077 13.9042 5.37694 13.8817 5.262 13.8818ZM12.738 13.8818C12.623 13.8818 12.5092 13.9044 12.403 13.9485C12.2968 13.9925 12.2003 14.0571 12.1191 14.1384C12.0379 14.2198 11.9735 14.3164 11.9296 14.4226C11.8858 14.5289 11.8633 14.6428 11.8635 14.7577C11.8636 14.9309 11.9151 15.1 12.0114 15.2439C12.1077 15.3877 12.2445 15.4998 12.4045 15.5659C12.5645 15.632 12.7405 15.6492 12.9102 15.6153C13.08 15.5814 13.2359 15.4979 13.3582 15.3754C13.4805 15.2529 13.5637 15.0968 13.5973 14.927C13.631 14.7572 13.6135 14.5812 13.5471 14.4214C13.4807 14.2615 13.3684 14.1249 13.2244 14.0288C13.0804 13.9328 12.9111 13.8816 12.738 13.8818Z" fill="#4F5762"/>
</svg>
