<svg width="17" height="16" viewBox="0 0 17 16" fill="none" xmlns="http://www.w3.org/2000/svg">
<path fill-rule="evenodd" clip-rule="evenodd" d="M11.1434 10.6159C10.2631 11.4378 9.09505 11.8811 7.89104 11.8501C6.68702 11.8191 5.54336 11.3164 4.70643 10.4503C3.86951 9.58419 3.40631 8.42396 3.41664 7.21959C3.42696 6.01522 3.90998 4.8631 4.76163 4.01145C5.61328 3.1598 6.7654 2.67678 7.96977 2.66646C9.17414 2.65613 10.3344 3.11933 11.2005 3.95625C12.0666 4.79318 12.5693 5.93684 12.6003 7.14086C12.6313 8.34488 12.188 9.51288 11.3661 10.3932C11.2752 10.4486 11.1988 10.525 11.1434 10.6159ZM11.7014 11.8946C10.5173 12.8378 9.0171 13.2922 7.50862 13.1643C6.00014 13.0365 4.59779 12.3362 3.58931 11.2071C2.58083 10.078 2.04271 8.60581 2.08536 7.09253C2.12802 5.57924 2.74822 4.13966 3.8187 3.06918C4.88917 1.9987 6.32875 1.37851 7.84204 1.33585C9.35532 1.2932 10.8276 1.83132 11.9566 2.8398C13.0857 3.84827 13.786 5.25063 13.9138 6.75911C14.0417 8.26759 13.5873 9.76779 12.6441 10.9519L15.1474 13.4546C15.2688 13.5803 15.336 13.7487 15.3345 13.9235C15.333 14.0983 15.2629 14.2655 15.1393 14.3891C15.0157 14.5127 14.8485 14.5828 14.6737 14.5843C14.4989 14.5859 14.3305 14.5187 14.2047 14.3972L11.7014 11.8946Z" fill="#4F5762"/>
</svg>
