<svg width="34" height="43" viewBox="0 0 34 43" fill="none" xmlns="http://www.w3.org/2000/svg">
<g filter="url(#filter0_dd_44_812)">
<mask id="mask0_44_812" style="mask-type:alpha" maskUnits="userSpaceOnUse" x="0" y="0" width="29" height="39">
<path d="M0.374512 34.7593V4.24104C0.374512 3.36249 0.723514 2.51992 1.34474 1.8987C1.96597 1.27747 2.80853 0.928467 3.68708 0.928467H19.4145C20.2904 0.928529 21.1307 1.27532 21.7517 1.89304L27.9699 8.08275C28.2792 8.39046 28.5246 8.75625 28.6921 9.15909C28.8596 9.56194 28.9459 9.9939 28.9459 10.4302V34.7593C28.9459 35.1943 28.8603 35.6249 28.6938 36.0268C28.5274 36.4286 28.2834 36.7937 27.9759 37.1013C27.6683 37.4088 27.3032 37.6528 26.9014 37.8192C26.4996 37.9857 26.0689 38.0713 25.6339 38.0713H3.68708C3.2521 38.0714 2.82136 37.9858 2.41946 37.8194C2.01756 37.653 1.65238 37.409 1.34478 37.1015C1.03717 36.7939 0.793156 36.4288 0.626676 36.0269C0.460197 35.625 0.374512 35.1943 0.374512 34.7593Z" fill="#D9D9D9"/>
</mask>
<g mask="url(#mask0_44_812)">
<path d="M0.374512 34.6427V4.35704C0.374512 3.44772 0.735735 2.57565 1.37872 1.93267C2.0217 1.28969 2.89377 0.928467 3.80308 0.928467H19.3219C20.2247 0.92849 21.091 1.28453 21.7328 1.91932L27.9282 8.04732C28.2506 8.3661 28.5065 8.74564 28.6812 9.16397C28.8559 9.5823 28.9459 10.0311 28.9459 10.4845V34.6427C28.9459 35.5521 28.5847 36.4241 27.9417 37.0671C27.2987 37.7101 26.4267 38.0713 25.5174 38.0713H3.80308C2.89377 38.0713 2.0217 37.7101 1.37872 37.0671C0.735735 36.4241 0.374512 35.5521 0.374512 34.6427Z" fill="url(#paint0_linear_44_812)"/>
<path fill-rule="evenodd" clip-rule="evenodd" d="M1.51737 4.35704V34.6427C1.51737 35.249 1.75818 35.8303 2.18684 36.259C2.61549 36.6877 3.19687 36.9285 3.80308 36.9285H25.5174C26.1236 36.9285 26.705 36.6877 27.1336 36.259C27.5623 35.8303 27.8031 35.249 27.8031 34.6427V10.4845C27.803 10.1823 27.743 9.88311 27.6266 9.60426C27.5102 9.32541 27.3396 9.07241 27.1248 8.8599L20.9288 2.73132C20.501 2.30857 19.9239 2.07144 19.3225 2.07132H3.80308C3.19687 2.07132 2.61549 2.31214 2.18684 2.74079C1.75818 3.16945 1.51737 3.75083 1.51737 4.35704ZM0.374512 4.35704V34.6427C0.374512 35.5521 0.735735 36.4241 1.37872 37.0671C2.0217 37.7101 2.89377 38.0713 3.80308 38.0713H25.5174C26.4267 38.0713 27.2987 37.7101 27.9417 37.0671C28.5847 36.4241 28.9459 35.5521 28.9459 34.6427V10.4845C28.9459 10.0312 28.856 9.58237 28.6814 9.16403C28.5068 8.7457 28.251 8.36615 27.9288 8.04732L21.7322 1.91932C21.0904 1.28453 20.2241 0.92849 19.3214 0.928467H3.80308C2.89377 0.928467 2.0217 1.28969 1.37872 1.93267C0.735735 2.57565 0.374512 3.44772 0.374512 4.35704Z" fill="white"/>
<path fill-rule="evenodd" clip-rule="evenodd" d="M0.94594 4.35704V34.6427C0.94594 35.4005 1.24696 36.1272 1.78278 36.6631C2.3186 37.1989 3.04532 37.4999 3.80308 37.4999H25.5174C26.2751 37.4999 27.0019 37.1989 27.5377 36.6631C28.0735 36.1272 28.3745 35.4005 28.3745 34.6427V10.4845C28.3744 10.1067 28.2995 9.73271 28.1539 9.38411C28.0083 9.03552 27.7951 8.71925 27.5265 8.45361L21.3311 2.32561C20.7962 1.79659 20.0742 1.49989 19.3219 1.4999H3.80308C3.04532 1.4999 2.3186 1.80091 1.78278 2.33673C1.24696 2.87255 0.94594 3.59928 0.94594 4.35704ZM0.374512 4.35704V34.6427C0.374512 35.5521 0.735735 36.4241 1.37872 37.0671C2.0217 37.7101 2.89377 38.0713 3.80308 38.0713H25.5174C26.4267 38.0713 27.2987 37.7101 27.9417 37.0671C28.5847 36.4241 28.9459 35.5521 28.9459 34.6427V10.4845C28.9459 10.0312 28.856 9.58237 28.6814 9.16403C28.5068 8.7457 28.251 8.36615 27.9288 8.04732L21.7322 1.91932C21.0904 1.28453 20.2241 0.92849 19.3214 0.928467H3.80308C2.89377 0.928467 2.0217 1.28969 1.37872 1.93267C0.735735 2.57565 0.374512 3.44772 0.374512 4.35704Z" fill="url(#paint1_linear_44_812)"/>
<g filter="url(#filter1_d_44_812)">
<path d="M31.2317 9.49996L20.3745 -1.35718V5.71482C20.3745 6.7187 20.7733 7.68147 21.4832 8.39132C22.193 9.10117 23.1558 9.49996 24.1597 9.49996H31.2317Z" fill="url(#paint2_linear_44_812)"/>
</g>
<g filter="url(#filter2_d_44_812)">
<path fill-rule="evenodd" clip-rule="evenodd" d="M20.3745 -1.35718V5.71482C20.3745 6.7187 20.7733 7.68147 21.4832 8.39132C22.193 9.10117 23.1558 9.49996 24.1597 9.49996H31.2317L20.3745 -1.35718ZM21.5174 1.40168V5.71482C21.5174 6.4156 21.7958 7.08767 22.2913 7.5832C22.7868 8.07872 23.4589 8.35711 24.1597 8.35711H28.4728L21.5174 1.40168Z" fill="white"/>
</g>
<path fill-rule="evenodd" clip-rule="evenodd" d="M20.3745 -1.35718V5.71482C20.3745 6.7187 20.7733 7.68147 21.4832 8.39132C22.193 9.10117 23.1558 9.49996 24.1597 9.49996H31.2317L20.3745 -1.35718ZM20.9459 0.0222505V5.71482C20.9459 6.56715 21.2845 7.38457 21.8872 7.98726C22.4899 8.58995 23.3073 8.92854 24.1597 8.92854H29.8522L20.9459 0.0222505Z" fill="url(#paint3_linear_44_812)"/>
<path fill-rule="evenodd" clip-rule="evenodd" d="M6.08887 14.8107C6.08887 14.501 6.33801 14.2507 6.64487 14.2507H23.2472C23.554 14.2507 23.8032 14.501 23.8032 14.8107C23.8032 15.1193 23.554 15.3707 23.2472 15.3707H6.64487C6.4969 15.3701 6.35523 15.3108 6.25097 15.2058C6.14672 15.1008 6.08841 14.9587 6.08887 14.8107ZM6.08887 19.1079C6.08887 18.7993 6.33801 18.5479 6.64487 18.5479H23.2472C23.554 18.5479 23.8032 18.7993 23.8032 19.1079C23.8032 19.417 23.554 19.6679 23.2472 19.6679H6.64487C6.4969 19.6673 6.35523 19.6079 6.25097 19.5029C6.14672 19.3979 6.08841 19.2558 6.08887 19.1079ZM6.08887 23.405C6.08887 23.0959 6.33801 22.845 6.64487 22.845H23.2472C23.554 22.845 23.8032 23.0959 23.8032 23.405C23.8032 23.7142 23.554 23.965 23.2472 23.965H6.64487C6.4969 23.9644 6.35523 23.9051 6.25097 23.8001C6.14672 23.6951 6.08841 23.553 6.08887 23.405Z" fill="#C7C7C7"/>
</g>
<path d="M33.5174 36.9284C33.5174 40.0844 30.9592 42.6427 27.8032 42.6427C24.6472 42.6427 22.0889 40.0844 22.0889 36.9284C22.0889 33.7724 24.6472 31.2141 27.8032 31.2141C30.9592 31.2141 33.5174 33.7724 33.5174 36.9284Z" fill="#171717"/>
<path fill-rule="evenodd" clip-rule="evenodd" d="M27.8032 42.0713C29.1671 42.0713 30.4752 41.5294 31.4397 40.5649C32.4042 39.6005 32.946 38.2924 32.946 36.9284C32.946 35.5644 32.4042 34.2563 31.4397 33.2918C30.4752 32.3274 29.1671 31.7855 27.8032 31.7855C26.4392 31.7855 25.1311 32.3274 24.1666 33.2918C23.2021 34.2563 22.6603 35.5644 22.6603 36.9284C22.6603 38.2924 23.2021 39.6005 24.1666 40.5649C25.1311 41.5294 26.4392 42.0713 27.8032 42.0713ZM27.8032 42.6427C30.9592 42.6427 33.5174 40.0844 33.5174 36.9284C33.5174 33.7724 30.9592 31.2141 27.8032 31.2141C24.6472 31.2141 22.0889 33.7724 22.0889 36.9284C22.0889 40.0844 24.6472 42.6427 27.8032 42.6427Z" fill="url(#paint4_linear_44_812)"/>
<path d="M28.3745 34.5341C28.3745 34.3763 28.3118 34.225 28.2002 34.1134C28.0887 34.0019 27.9374 33.9392 27.7796 33.9392C27.6219 33.9392 27.4705 34.0019 27.359 34.1134C27.2474 34.225 27.1848 34.3763 27.1848 34.5341V36.3101H25.4413C25.2835 36.3101 25.1321 36.3728 25.0205 36.4844C24.9089 36.596 24.8462 36.7474 24.8462 36.9052C24.8462 37.0631 24.9089 37.2144 25.0205 37.326C25.1321 37.4377 25.2835 37.5004 25.4413 37.5004H27.1848V39.3221C27.1848 39.4799 27.2475 39.6313 27.3591 39.7429C27.4707 39.8545 27.6221 39.9172 27.7799 39.9172C27.9377 39.9172 28.0891 39.8545 28.2007 39.7429C28.3123 39.6313 28.375 39.4799 28.375 39.3221V37.5004H30.2299C30.3877 37.5004 30.5391 37.4377 30.6507 37.326C30.7623 37.2144 30.825 37.0631 30.825 36.9052C30.825 36.7474 30.7623 36.596 30.6507 36.4844C30.5391 36.3728 30.3877 36.3101 30.2299 36.3101H28.375L28.3745 34.5341Z" fill="white"/>
</g>
<defs>
<filter id="filter0_dd_44_812" x="-13.9112" y="-1.92868" width="61.7145" height="70.2855" filterUnits="userSpaceOnUse" color-interpolation-filters="sRGB">
<feFlood flood-opacity="0" result="BackgroundImageFix"/>
<feColorMatrix in="SourceAlpha" type="matrix" values="0 0 0 0 0 0 0 0 0 0 0 0 0 0 0 0 0 0 127 0" result="hardAlpha"/>
<feOffset dy="4.57143"/>
<feGaussianBlur stdDeviation="2.85714"/>
<feComposite in2="hardAlpha" operator="out"/>
<feColorMatrix type="matrix" values="0 0 0 0 0 0 0 0 0 0 0 0 0 0 0 0 0 0 0.1 0"/>
<feBlend mode="normal" in2="BackgroundImageFix" result="effect1_dropShadow_44_812"/>
<feColorMatrix in="SourceAlpha" type="matrix" values="0 0 0 0 0 0 0 0 0 0 0 0 0 0 0 0 0 0 127 0" result="hardAlpha"/>
<feOffset dy="11.4286"/>
<feGaussianBlur stdDeviation="7.14286"/>
<feComposite in2="hardAlpha" operator="out"/>
<feColorMatrix type="matrix" values="0 0 0 0 0 0 0 0 0 0 0 0 0 0 0 0 0 0 0.1 0"/>
<feBlend mode="normal" in2="effect1_dropShadow_44_812" result="effect2_dropShadow_44_812"/>
<feBlend mode="normal" in="SourceGraphic" in2="effect2_dropShadow_44_812" result="shape"/>
</filter>
<filter id="filter1_d_44_812" x="13.5174" y="-6.50003" width="24.5712" height="24.5715" filterUnits="userSpaceOnUse" color-interpolation-filters="sRGB">
<feFlood flood-opacity="0" result="BackgroundImageFix"/>
<feColorMatrix in="SourceAlpha" type="matrix" values="0 0 0 0 0 0 0 0 0 0 0 0 0 0 0 0 0 0 127 0" result="hardAlpha"/>
<feOffset dy="1.71429"/>
<feGaussianBlur stdDeviation="3.42857"/>
<feComposite in2="hardAlpha" operator="out"/>
<feColorMatrix type="matrix" values="0 0 0 0 0.34902 0 0 0 0 0.364706 0 0 0 0 0.4 0 0 0 0.2 0"/>
<feBlend mode="normal" in2="BackgroundImageFix" result="effect1_dropShadow_44_812"/>
<feBlend mode="normal" in="SourceGraphic" in2="effect1_dropShadow_44_812" result="shape"/>
</filter>
<filter id="filter2_d_44_812" x="13.5174" y="-6.50003" width="24.5712" height="24.5715" filterUnits="userSpaceOnUse" color-interpolation-filters="sRGB">
<feFlood flood-opacity="0" result="BackgroundImageFix"/>
<feColorMatrix in="SourceAlpha" type="matrix" values="0 0 0 0 0 0 0 0 0 0 0 0 0 0 0 0 0 0 127 0" result="hardAlpha"/>
<feOffset dy="1.71429"/>
<feGaussianBlur stdDeviation="3.42857"/>
<feComposite in2="hardAlpha" operator="out"/>
<feColorMatrix type="matrix" values="0 0 0 0 0.34902 0 0 0 0 0.364706 0 0 0 0 0.4 0 0 0 0.2 0"/>
<feBlend mode="normal" in2="BackgroundImageFix" result="effect1_dropShadow_44_812"/>
<feBlend mode="normal" in="SourceGraphic" in2="effect1_dropShadow_44_812" result="shape"/>
</filter>
<linearGradient id="paint0_linear_44_812" x1="3.70823" y1="38.0713" x2="26.2568" y2="5.13361" gradientUnits="userSpaceOnUse">
<stop stop-color="white"/>
<stop offset="1" stop-color="#EDEDED"/>
</linearGradient>
<linearGradient id="paint1_linear_44_812" x1="14.6602" y1="0.928467" x2="14.6602" y2="38.0713" gradientUnits="userSpaceOnUse">
<stop stop-color="#E2E2E2"/>
<stop offset="1" stop-color="#EDEDED"/>
</linearGradient>
<linearGradient id="paint2_linear_44_812" x1="21.7905" y1="8.31996" x2="29.5797" y2="2.18339" gradientUnits="userSpaceOnUse">
<stop stop-color="white"/>
<stop offset="1" stop-color="#EEEFF0"/>
</linearGradient>
<linearGradient id="paint3_linear_44_812" x1="25.8031" y1="-1.35718" x2="25.8031" y2="9.49996" gradientUnits="userSpaceOnUse">
<stop stop-color="#E2E2E2"/>
<stop offset="1" stop-color="#EDEDED"/>
</linearGradient>
<linearGradient id="paint4_linear_44_812" x1="27.8032" y1="31.2141" x2="27.8032" y2="42.6427" gradientUnits="userSpaceOnUse">
<stop stop-color="#6F6F6F"/>
<stop offset="1" stop-color="#171717"/>
</linearGradient>
</defs>
</svg>
