<svg width="34" height="43" viewBox="0 0 34 43" fill="none" xmlns="http://www.w3.org/2000/svg">
<g filter="url(#filter0_dd_44_762)">
<mask id="mask0_44_762" style="mask-type:alpha" maskUnits="userSpaceOnUse" x="0" y="0" width="29" height="39">
<path d="M0.0444336 34.7593V4.24104C0.0444336 3.36249 0.393436 2.51992 1.01466 1.8987C1.63589 1.27747 2.47846 0.928467 3.35701 0.928467H19.0844C19.9603 0.928529 20.8006 1.27532 21.4216 1.89304L27.6399 8.08275C27.9491 8.39046 28.1946 8.75625 28.3621 9.15909C28.5296 9.56194 28.6158 9.9939 28.6159 10.4302V34.7593C28.6159 35.1943 28.5302 35.6249 28.3638 36.0268C28.1973 36.4286 27.9533 36.7937 27.6458 37.1013C27.3383 37.4088 26.9731 37.6528 26.5713 37.8192C26.1695 37.9857 25.7388 38.0713 25.3039 38.0713H3.35701C2.92202 38.0714 2.49128 37.9858 2.08938 37.8194C1.68749 37.653 1.32231 37.409 1.0147 37.1015C0.70709 36.7939 0.463077 36.4288 0.296598 36.0269C0.130119 35.625 0.0444336 35.1943 0.0444336 34.7593Z" fill="#D9D9D9"/>
</mask>
<g mask="url(#mask0_44_762)">
<path d="M0.0444336 34.6427V4.35704C0.0444336 3.44772 0.405657 2.57565 1.04864 1.93267C1.69162 1.28969 2.56369 0.928467 3.473 0.928467H18.9919C19.8946 0.92849 20.7609 1.28453 21.4027 1.91932L27.5981 8.04732C27.9205 8.3661 28.1764 8.74564 28.3511 9.16397C28.5258 9.5823 28.6158 10.0311 28.6159 10.4845V34.6427C28.6159 35.5521 28.2546 36.4241 27.6117 37.0671C26.9687 37.7101 26.0966 38.0713 25.1873 38.0713H3.473C2.56369 38.0713 1.69162 37.7101 1.04864 37.0671C0.405657 36.4241 0.0444336 35.5521 0.0444336 34.6427Z" fill="url(#paint0_linear_44_762)"/>
<path fill-rule="evenodd" clip-rule="evenodd" d="M1.18729 4.35704V34.6427C1.18729 35.249 1.42811 35.8303 1.85676 36.259C2.28542 36.6877 2.8668 36.9285 3.473 36.9285H25.1873C25.7935 36.9285 26.3749 36.6877 26.8035 36.259C27.2322 35.8303 27.473 35.249 27.473 34.6427V10.4845C27.4729 10.1823 27.413 9.88311 27.2965 9.60426C27.1801 9.32541 27.0096 9.07241 26.7947 8.8599L20.5987 2.73132C20.171 2.30857 19.5938 2.07144 18.9924 2.07132H3.473C2.8668 2.07132 2.28542 2.31214 1.85676 2.74079C1.42811 3.16945 1.18729 3.75083 1.18729 4.35704ZM0.0444336 4.35704V34.6427C0.0444336 35.5521 0.405657 36.4241 1.04864 37.0671C1.69162 37.7101 2.56369 38.0713 3.473 38.0713H25.1873C26.0966 38.0713 26.9687 37.7101 27.6117 37.0671C28.2546 36.4241 28.6159 35.5521 28.6159 34.6427V10.4845C28.6158 10.0312 28.5259 9.58237 28.3514 9.16403C28.1768 8.7457 27.921 8.36615 27.5987 8.04732L21.4021 1.91932C20.7603 1.28453 19.894 0.92849 18.9913 0.928467H3.473C2.56369 0.928467 1.69162 1.28969 1.04864 1.93267C0.405657 2.57565 0.0444336 3.44772 0.0444336 4.35704Z" fill="white"/>
<path fill-rule="evenodd" clip-rule="evenodd" d="M0.615862 4.35704V34.6427C0.615862 35.4005 0.916882 36.1272 1.4527 36.6631C1.98852 37.1989 2.71524 37.4999 3.473 37.4999H25.1873C25.9451 37.4999 26.6718 37.1989 27.2076 36.6631C27.7434 36.1272 28.0444 35.4005 28.0444 34.6427V10.4845C28.0444 10.1067 27.9694 9.73271 27.8238 9.38411C27.6783 9.03552 27.465 8.71925 27.1964 8.45361L21.001 2.32561C20.4661 1.79659 19.7442 1.49989 18.9919 1.4999H3.473C2.71524 1.4999 1.98852 1.80091 1.4527 2.33673C0.916882 2.87255 0.615862 3.59928 0.615862 4.35704ZM0.0444336 4.35704V34.6427C0.0444336 35.5521 0.405657 36.4241 1.04864 37.0671C1.69162 37.7101 2.56369 38.0713 3.473 38.0713H25.1873C26.0966 38.0713 26.9687 37.7101 27.6117 37.0671C28.2546 36.4241 28.6159 35.5521 28.6159 34.6427V10.4845C28.6158 10.0312 28.5259 9.58237 28.3514 9.16403C28.1768 8.7457 27.921 8.36615 27.5987 8.04732L21.4021 1.91932C20.7603 1.28453 19.894 0.92849 18.9913 0.928467H3.473C2.56369 0.928467 1.69162 1.28969 1.04864 1.93267C0.405657 2.57565 0.0444336 3.44772 0.0444336 4.35704Z" fill="url(#paint1_linear_44_762)"/>
<g filter="url(#filter1_d_44_762)">
<path d="M30.9016 9.49996L20.0444 -1.35718V5.71482C20.0444 6.7187 20.4432 7.68147 21.1531 8.39132C21.8629 9.10117 22.8257 9.49996 23.8296 9.49996H30.9016Z" fill="url(#paint2_linear_44_762)"/>
</g>
<g filter="url(#filter2_d_44_762)">
<path fill-rule="evenodd" clip-rule="evenodd" d="M20.0444 -1.35718V5.71482C20.0444 6.7187 20.4432 7.68147 21.1531 8.39132C21.8629 9.10117 22.8257 9.49996 23.8296 9.49996H30.9016L20.0444 -1.35718ZM21.1873 1.40168V5.71482C21.1873 6.4156 21.4657 7.08767 21.9612 7.5832C22.4567 8.07872 23.1288 8.35711 23.8296 8.35711H28.1427L21.1873 1.40168Z" fill="white"/>
</g>
<path fill-rule="evenodd" clip-rule="evenodd" d="M20.0444 -1.35718V5.71482C20.0444 6.7187 20.4432 7.68147 21.1531 8.39132C21.8629 9.10117 22.8257 9.49996 23.8296 9.49996H30.9016L20.0444 -1.35718ZM20.6159 0.0222505V5.71482C20.6159 6.56715 20.9544 7.38457 21.5571 7.98726C22.1598 8.58995 22.9772 8.92854 23.8296 8.92854H29.5221L20.6159 0.0222505Z" fill="url(#paint3_linear_44_762)"/>
<path fill-rule="evenodd" clip-rule="evenodd" d="M5.75879 14.8107C5.75879 14.501 6.00793 14.2507 6.31479 14.2507H22.9171C23.2239 14.2507 23.4731 14.501 23.4731 14.8107C23.4731 15.1193 23.2239 15.3707 22.9171 15.3707H6.31479C6.16682 15.3701 6.02515 15.3108 5.92089 15.2058C5.81664 15.1008 5.75834 14.9587 5.75879 14.8107ZM5.75879 19.1079C5.75879 18.7993 6.00793 18.5479 6.31479 18.5479H22.9171C23.2239 18.5479 23.4731 18.7993 23.4731 19.1079C23.4731 19.417 23.2239 19.6679 22.9171 19.6679H6.31479C6.16682 19.6673 6.02515 19.6079 5.92089 19.5029C5.81664 19.3979 5.75834 19.2558 5.75879 19.1079ZM5.75879 23.405C5.75879 23.0959 6.00793 22.845 6.31479 22.845H22.9171C23.2239 22.845 23.4731 23.0959 23.4731 23.405C23.4731 23.7142 23.2239 23.965 22.9171 23.965H6.31479C6.16682 23.9644 6.02515 23.9051 5.92089 23.8001C5.81664 23.6951 5.75834 23.553 5.75879 23.405Z" fill="#C7C7C7"/>
</g>
<path d="M33.1874 36.9284C33.1874 40.0844 30.6291 42.6427 27.4731 42.6427C24.3171 42.6427 21.7588 40.0844 21.7588 36.9284C21.7588 33.7724 24.3171 31.2141 27.4731 31.2141C30.6291 31.2141 33.1874 33.7724 33.1874 36.9284Z" fill="#171717"/>
<path fill-rule="evenodd" clip-rule="evenodd" d="M27.4731 42.0713C28.837 42.0713 30.1452 41.5294 31.1096 40.5649C32.0741 39.6005 32.6159 38.2924 32.6159 36.9284C32.6159 35.5644 32.0741 34.2563 31.1096 33.2918C30.1452 32.3274 28.837 31.7855 27.4731 31.7855C26.1091 31.7855 24.801 32.3274 23.8365 33.2918C22.8721 34.2563 22.3302 35.5644 22.3302 36.9284C22.3302 38.2924 22.8721 39.6005 23.8365 40.5649C24.801 41.5294 26.1091 42.0713 27.4731 42.0713ZM27.4731 42.6427C30.6291 42.6427 33.1874 40.0844 33.1874 36.9284C33.1874 33.7724 30.6291 31.2141 27.4731 31.2141C24.3171 31.2141 21.7588 33.7724 21.7588 36.9284C21.7588 40.0844 24.3171 42.6427 27.4731 42.6427Z" fill="url(#paint4_linear_44_762)"/>
<path fill-rule="evenodd" clip-rule="evenodd" d="M29.8614 39.3171C29.8037 39.3748 29.7352 39.4207 29.6598 39.4519C29.5844 39.4832 29.5036 39.4992 29.422 39.4992C29.3403 39.4992 29.2595 39.4832 29.1841 39.4519C29.1087 39.4207 29.0402 39.3748 28.9825 39.3171L27.05 37.3857C26.9921 37.3279 26.9462 37.2593 26.915 37.1838C26.8837 37.1083 26.8676 37.0274 26.8677 36.9457V34.4388C26.8677 34.274 26.9331 34.1159 27.0497 33.9994C27.1662 33.8829 27.3243 33.8174 27.4891 33.8174C27.6539 33.8174 27.812 33.8829 27.9285 33.9994C28.0451 34.1159 28.1105 34.274 28.1105 34.4388V36.6891L29.8602 38.4388C29.9767 38.5553 30.0421 38.7133 30.0421 38.878C30.0421 39.0427 29.9767 39.2006 29.8602 39.3171H29.8614Z" fill="white"/>
</g>
<defs>
<filter id="filter0_dd_44_762" x="-14.2413" y="-1.92868" width="61.7145" height="70.2855" filterUnits="userSpaceOnUse" color-interpolation-filters="sRGB">
<feFlood flood-opacity="0" result="BackgroundImageFix"/>
<feColorMatrix in="SourceAlpha" type="matrix" values="0 0 0 0 0 0 0 0 0 0 0 0 0 0 0 0 0 0 127 0" result="hardAlpha"/>
<feOffset dy="4.57143"/>
<feGaussianBlur stdDeviation="2.85714"/>
<feComposite in2="hardAlpha" operator="out"/>
<feColorMatrix type="matrix" values="0 0 0 0 0 0 0 0 0 0 0 0 0 0 0 0 0 0 0.1 0"/>
<feBlend mode="normal" in2="BackgroundImageFix" result="effect1_dropShadow_44_762"/>
<feColorMatrix in="SourceAlpha" type="matrix" values="0 0 0 0 0 0 0 0 0 0 0 0 0 0 0 0 0 0 127 0" result="hardAlpha"/>
<feOffset dy="11.4286"/>
<feGaussianBlur stdDeviation="7.14286"/>
<feComposite in2="hardAlpha" operator="out"/>
<feColorMatrix type="matrix" values="0 0 0 0 0 0 0 0 0 0 0 0 0 0 0 0 0 0 0.1 0"/>
<feBlend mode="normal" in2="effect1_dropShadow_44_762" result="effect2_dropShadow_44_762"/>
<feBlend mode="normal" in="SourceGraphic" in2="effect2_dropShadow_44_762" result="shape"/>
</filter>
<filter id="filter1_d_44_762" x="13.1873" y="-6.50003" width="24.5712" height="24.5715" filterUnits="userSpaceOnUse" color-interpolation-filters="sRGB">
<feFlood flood-opacity="0" result="BackgroundImageFix"/>
<feColorMatrix in="SourceAlpha" type="matrix" values="0 0 0 0 0 0 0 0 0 0 0 0 0 0 0 0 0 0 127 0" result="hardAlpha"/>
<feOffset dy="1.71429"/>
<feGaussianBlur stdDeviation="3.42857"/>
<feComposite in2="hardAlpha" operator="out"/>
<feColorMatrix type="matrix" values="0 0 0 0 0.34902 0 0 0 0 0.364706 0 0 0 0 0.4 0 0 0 0.2 0"/>
<feBlend mode="normal" in2="BackgroundImageFix" result="effect1_dropShadow_44_762"/>
<feBlend mode="normal" in="SourceGraphic" in2="effect1_dropShadow_44_762" result="shape"/>
</filter>
<filter id="filter2_d_44_762" x="13.1873" y="-6.50003" width="24.5712" height="24.5715" filterUnits="userSpaceOnUse" color-interpolation-filters="sRGB">
<feFlood flood-opacity="0" result="BackgroundImageFix"/>
<feColorMatrix in="SourceAlpha" type="matrix" values="0 0 0 0 0 0 0 0 0 0 0 0 0 0 0 0 0 0 127 0" result="hardAlpha"/>
<feOffset dy="1.71429"/>
<feGaussianBlur stdDeviation="3.42857"/>
<feComposite in2="hardAlpha" operator="out"/>
<feColorMatrix type="matrix" values="0 0 0 0 0.34902 0 0 0 0 0.364706 0 0 0 0 0.4 0 0 0 0.2 0"/>
<feBlend mode="normal" in2="BackgroundImageFix" result="effect1_dropShadow_44_762"/>
<feBlend mode="normal" in="SourceGraphic" in2="effect1_dropShadow_44_762" result="shape"/>
</filter>
<linearGradient id="paint0_linear_44_762" x1="3.37815" y1="38.0713" x2="25.9267" y2="5.13361" gradientUnits="userSpaceOnUse">
<stop stop-color="white"/>
<stop offset="1" stop-color="#EDEDED"/>
</linearGradient>
<linearGradient id="paint1_linear_44_762" x1="14.3301" y1="0.928467" x2="14.3301" y2="38.0713" gradientUnits="userSpaceOnUse">
<stop stop-color="#E2E2E2"/>
<stop offset="1" stop-color="#EDEDED"/>
</linearGradient>
<linearGradient id="paint2_linear_44_762" x1="21.4604" y1="8.31996" x2="29.2496" y2="2.18339" gradientUnits="userSpaceOnUse">
<stop stop-color="white"/>
<stop offset="1" stop-color="#EEEFF0"/>
</linearGradient>
<linearGradient id="paint3_linear_44_762" x1="25.473" y1="-1.35718" x2="25.473" y2="9.49996" gradientUnits="userSpaceOnUse">
<stop stop-color="#E2E2E2"/>
<stop offset="1" stop-color="#EDEDED"/>
</linearGradient>
<linearGradient id="paint4_linear_44_762" x1="27.4731" y1="31.2141" x2="27.4731" y2="42.6427" gradientUnits="userSpaceOnUse">
<stop stop-color="#6F6F6F"/>
<stop offset="1" stop-color="#171717"/>
</linearGradient>
</defs>
</svg>
