<svg width="34" height="43" viewBox="0 0 34 43" fill="none" xmlns="http://www.w3.org/2000/svg">
<g filter="url(#filter0_dd_44_787)">
<mask id="mask0_44_787" style="mask-type:alpha" maskUnits="userSpaceOnUse" x="0" y="0" width="30" height="39">
<path d="M0.694336 34.7593V4.24104C0.694336 3.36249 1.04334 2.51992 1.66457 1.8987C2.28579 1.27747 3.12836 0.928467 4.00691 0.928467H19.7343C20.6102 0.928529 21.4505 1.27532 22.0715 1.89304L28.2898 8.08275C28.599 8.39046 28.8445 8.75625 29.012 9.15909C29.1795 9.56194 29.2657 9.9939 29.2658 10.4302V34.7593C29.2658 35.1943 29.1801 35.6249 29.0137 36.0268C28.8472 36.4286 28.6032 36.7937 28.2957 37.1013C27.9882 37.4088 27.623 37.6528 27.2212 37.8192C26.8194 37.9857 26.3887 38.0713 25.9538 38.0713H4.00691C3.57192 38.0714 3.14118 37.9858 2.73928 37.8194C2.33739 37.653 1.97221 37.409 1.6646 37.1015C1.35699 36.7939 1.11298 36.4288 0.9465 36.0269C0.780021 35.625 0.694336 35.1943 0.694336 34.7593Z" fill="#D9D9D9"/>
</mask>
<g mask="url(#mask0_44_787)">
<path d="M0.694336 34.6427V4.35704C0.694336 3.44772 1.05556 2.57565 1.69854 1.93267C2.34152 1.28969 3.21359 0.928467 4.12291 0.928467H19.6418C20.5445 0.92849 21.4108 1.28453 22.0526 1.91932L28.248 8.04732C28.5704 8.3661 28.8263 8.74564 29.001 9.16397C29.1757 9.5823 29.2657 10.0311 29.2658 10.4845V34.6427C29.2658 35.5521 28.9045 36.4241 28.2616 37.0671C27.6186 37.7101 26.7465 38.0713 25.8372 38.0713H4.12291C3.21359 38.0713 2.34152 37.7101 1.69854 37.0671C1.05556 36.4241 0.694336 35.5521 0.694336 34.6427Z" fill="url(#paint0_linear_44_787)"/>
<path fill-rule="evenodd" clip-rule="evenodd" d="M1.83719 4.35704V34.6427C1.83719 35.249 2.07801 35.8303 2.50666 36.259C2.93532 36.6877 3.5167 36.9285 4.12291 36.9285H25.8372C26.4434 36.9285 27.0248 36.6877 27.4534 36.259C27.8821 35.8303 28.1229 35.249 28.1229 34.6427V10.4845C28.1228 10.1823 28.0629 9.88311 27.9464 9.60426C27.83 9.32541 27.6595 9.07241 27.4446 8.8599L21.2486 2.73132C20.8209 2.30857 20.2437 2.07144 19.6423 2.07132H4.12291C3.5167 2.07132 2.93532 2.31214 2.50666 2.74079C2.07801 3.16945 1.83719 3.75083 1.83719 4.35704ZM0.694336 4.35704V34.6427C0.694336 35.5521 1.05556 36.4241 1.69854 37.0671C2.34152 37.7101 3.21359 38.0713 4.12291 38.0713H25.8372C26.7465 38.0713 27.6186 37.7101 28.2616 37.0671C28.9045 36.4241 29.2658 35.5521 29.2658 34.6427V10.4845C29.2658 10.0312 29.1758 9.58237 29.0013 9.16403C28.8267 8.7457 28.5709 8.36615 28.2486 8.04732L22.052 1.91932C21.4102 1.28453 20.5439 0.92849 19.6412 0.928467H4.12291C3.21359 0.928467 2.34152 1.28969 1.69854 1.93267C1.05556 2.57565 0.694336 3.44772 0.694336 4.35704Z" fill="white"/>
<path fill-rule="evenodd" clip-rule="evenodd" d="M1.26576 4.35704V34.6427C1.26576 35.4005 1.56678 36.1272 2.1026 36.6631C2.63842 37.1989 3.36515 37.4999 4.12291 37.4999H25.8372C26.595 37.4999 27.3217 37.1989 27.8575 36.6631C28.3933 36.1272 28.6943 35.4005 28.6943 34.6427V10.4845C28.6943 10.1067 28.6193 9.73271 28.4737 9.38411C28.3282 9.03552 28.1149 8.71925 27.8463 8.45361L21.6509 2.32561C21.116 1.79659 20.3941 1.49989 19.6418 1.4999H4.12291C3.36515 1.4999 2.63842 1.80091 2.1026 2.33673C1.56678 2.87255 1.26576 3.59928 1.26576 4.35704ZM0.694336 4.35704V34.6427C0.694336 35.5521 1.05556 36.4241 1.69854 37.0671C2.34152 37.7101 3.21359 38.0713 4.12291 38.0713H25.8372C26.7465 38.0713 27.6186 37.7101 28.2616 37.0671C28.9045 36.4241 29.2658 35.5521 29.2658 34.6427V10.4845C29.2658 10.0312 29.1758 9.58237 29.0013 9.16403C28.8267 8.7457 28.5709 8.36615 28.2486 8.04732L22.052 1.91932C21.4102 1.28453 20.5439 0.92849 19.6412 0.928467H4.12291C3.21359 0.928467 2.34152 1.28969 1.69854 1.93267C1.05556 2.57565 0.694336 3.44772 0.694336 4.35704Z" fill="url(#paint1_linear_44_787)"/>
<g filter="url(#filter1_d_44_787)">
<path d="M31.5515 9.49996L20.6943 -1.35718V5.71482C20.6943 6.7187 21.0931 7.68147 21.803 8.39132C22.5128 9.10117 23.4756 9.49996 24.4795 9.49996H31.5515Z" fill="url(#paint2_linear_44_787)"/>
</g>
<g filter="url(#filter2_d_44_787)">
<path fill-rule="evenodd" clip-rule="evenodd" d="M20.6943 -1.35718V5.71482C20.6943 6.7187 21.0931 7.68147 21.803 8.39132C22.5128 9.10117 23.4756 9.49996 24.4795 9.49996H31.5515L20.6943 -1.35718ZM21.8372 1.40168V5.71482C21.8372 6.4156 22.1156 7.08767 22.6111 7.5832C23.1066 8.07872 23.7787 8.35711 24.4795 8.35711H28.7926L21.8372 1.40168Z" fill="white"/>
</g>
<path fill-rule="evenodd" clip-rule="evenodd" d="M20.6943 -1.35718V5.71482C20.6943 6.7187 21.0931 7.68147 21.803 8.39132C22.5128 9.10117 23.4756 9.49996 24.4795 9.49996H31.5515L20.6943 -1.35718ZM21.2658 0.0222505V5.71482C21.2658 6.56715 21.6044 7.38457 22.207 7.98726C22.8097 8.58995 23.6271 8.92854 24.4795 8.92854H30.172L21.2658 0.0222505Z" fill="url(#paint3_linear_44_787)"/>
<path fill-rule="evenodd" clip-rule="evenodd" d="M6.40869 14.8107C6.40869 14.501 6.65784 14.2507 6.96469 14.2507H23.567C23.8738 14.2507 24.123 14.501 24.123 14.8107C24.123 15.1193 23.8738 15.3707 23.567 15.3707H6.96469C6.81673 15.3701 6.67505 15.3108 6.5708 15.2058C6.46654 15.1008 6.40824 14.9587 6.40869 14.8107ZM6.40869 19.1079C6.40869 18.7993 6.65784 18.5479 6.96469 18.5479H23.567C23.8738 18.5479 24.123 18.7993 24.123 19.1079C24.123 19.417 23.8738 19.6679 23.567 19.6679H6.96469C6.81673 19.6673 6.67505 19.6079 6.5708 19.5029C6.46654 19.3979 6.40824 19.2558 6.40869 19.1079ZM6.40869 23.405C6.40869 23.0959 6.65784 22.845 6.96469 22.845H23.567C23.8738 22.845 24.123 23.0959 24.123 23.405C24.123 23.7142 23.8738 23.965 23.567 23.965H6.96469C6.81673 23.9644 6.67505 23.9051 6.5708 23.8001C6.46654 23.6951 6.40824 23.553 6.40869 23.405Z" fill="#C7C7C7"/>
</g>
<path d="M33.8373 36.9284C33.8373 40.0844 31.279 42.6427 28.123 42.6427C24.967 42.6427 22.4087 40.0844 22.4087 36.9284C22.4087 33.7724 24.967 31.2141 28.123 31.2141C31.279 31.2141 33.8373 33.7724 33.8373 36.9284Z" fill="#171717"/>
<path fill-rule="evenodd" clip-rule="evenodd" d="M28.123 42.0713C29.4869 42.0713 30.7951 41.5294 31.7595 40.5649C32.724 39.6005 33.2658 38.2924 33.2658 36.9284C33.2658 35.5644 32.724 34.2563 31.7595 33.2918C30.7951 32.3274 29.4869 31.7855 28.123 31.7855C26.759 31.7855 25.4509 32.3274 24.4864 33.2918C23.522 34.2563 22.9801 35.5644 22.9801 36.9284C22.9801 38.2924 23.522 39.6005 24.4864 40.5649C25.4509 41.5294 26.759 42.0713 28.123 42.0713ZM28.123 42.6427C31.279 42.6427 33.8373 40.0844 33.8373 36.9284C33.8373 33.7724 31.279 31.2141 28.123 31.2141C24.967 31.2141 22.4087 33.7724 22.4087 36.9284C22.4087 40.0844 24.967 42.6427 28.123 42.6427Z" fill="url(#paint4_linear_44_787)"/>
<path d="M27.7948 34.2489C27.8228 34.1868 27.8682 34.1341 27.9255 34.0972C27.9828 34.0602 28.0495 34.0405 28.1176 34.0405C28.1858 34.0405 28.2525 34.0602 28.3098 34.0972C28.367 34.1341 28.4124 34.1868 28.4405 34.2489L28.9811 35.4375C29.0064 35.4933 29.0458 35.5416 29.0953 35.5777C29.1449 35.6138 29.203 35.6363 29.2639 35.6432L30.5611 35.7901C30.6288 35.7976 30.6929 35.8244 30.7457 35.8674C30.7985 35.9104 30.8379 35.9677 30.859 36.0324C30.8801 36.0972 30.8821 36.1667 30.8647 36.2325C30.8473 36.2984 30.8113 36.3578 30.7611 36.4038L29.7976 37.2855C29.7524 37.3267 29.7186 37.379 29.6996 37.4372C29.6806 37.4954 29.6769 37.5575 29.6891 37.6175L29.9508 38.8975C29.9644 38.9642 29.9585 39.0334 29.9339 39.0968C29.9092 39.1602 29.8668 39.2152 29.8117 39.2552C29.7566 39.2952 29.6912 39.3184 29.6232 39.3222C29.5552 39.3259 29.4876 39.31 29.4285 39.2764L28.2925 38.6329C28.2392 38.6027 28.1789 38.5868 28.1176 38.5868C28.0563 38.5868 27.9961 38.6027 27.9428 38.6329L26.8068 39.2764C26.7476 39.3101 26.6799 39.326 26.6119 39.3222C26.5439 39.3185 26.4784 39.2952 26.4232 39.2551C26.3681 39.2151 26.3257 39.16 26.3011 39.0965C26.2765 39.0329 26.2707 38.9637 26.2845 38.8969L26.5456 37.6175C26.5579 37.5575 26.5544 37.4953 26.5355 37.437C26.5166 37.3787 26.4829 37.3263 26.4376 37.2849L25.4748 36.4038C25.4245 36.3579 25.3885 36.2985 25.3711 36.2327C25.3537 36.1668 25.3557 36.0974 25.3767 36.0327C25.3978 35.9679 25.437 35.9106 25.4898 35.8676C25.5425 35.8246 25.6065 35.7977 25.6742 35.7901L26.9713 35.6426C27.0323 35.6358 27.0903 35.6132 27.1399 35.5771C27.1895 35.5411 27.2289 35.4928 27.2542 35.4369L27.7948 34.2489Z" fill="white"/>
</g>
<defs>
<filter id="filter0_dd_44_787" x="-13.5914" y="-1.92868" width="61.7145" height="70.2855" filterUnits="userSpaceOnUse" color-interpolation-filters="sRGB">
<feFlood flood-opacity="0" result="BackgroundImageFix"/>
<feColorMatrix in="SourceAlpha" type="matrix" values="0 0 0 0 0 0 0 0 0 0 0 0 0 0 0 0 0 0 127 0" result="hardAlpha"/>
<feOffset dy="4.57143"/>
<feGaussianBlur stdDeviation="2.85714"/>
<feComposite in2="hardAlpha" operator="out"/>
<feColorMatrix type="matrix" values="0 0 0 0 0 0 0 0 0 0 0 0 0 0 0 0 0 0 0.1 0"/>
<feBlend mode="normal" in2="BackgroundImageFix" result="effect1_dropShadow_44_787"/>
<feColorMatrix in="SourceAlpha" type="matrix" values="0 0 0 0 0 0 0 0 0 0 0 0 0 0 0 0 0 0 127 0" result="hardAlpha"/>
<feOffset dy="11.4286"/>
<feGaussianBlur stdDeviation="7.14286"/>
<feComposite in2="hardAlpha" operator="out"/>
<feColorMatrix type="matrix" values="0 0 0 0 0 0 0 0 0 0 0 0 0 0 0 0 0 0 0.1 0"/>
<feBlend mode="normal" in2="effect1_dropShadow_44_787" result="effect2_dropShadow_44_787"/>
<feBlend mode="normal" in="SourceGraphic" in2="effect2_dropShadow_44_787" result="shape"/>
</filter>
<filter id="filter1_d_44_787" x="13.8372" y="-6.50003" width="24.5712" height="24.5715" filterUnits="userSpaceOnUse" color-interpolation-filters="sRGB">
<feFlood flood-opacity="0" result="BackgroundImageFix"/>
<feColorMatrix in="SourceAlpha" type="matrix" values="0 0 0 0 0 0 0 0 0 0 0 0 0 0 0 0 0 0 127 0" result="hardAlpha"/>
<feOffset dy="1.71429"/>
<feGaussianBlur stdDeviation="3.42857"/>
<feComposite in2="hardAlpha" operator="out"/>
<feColorMatrix type="matrix" values="0 0 0 0 0.34902 0 0 0 0 0.364706 0 0 0 0 0.4 0 0 0 0.2 0"/>
<feBlend mode="normal" in2="BackgroundImageFix" result="effect1_dropShadow_44_787"/>
<feBlend mode="normal" in="SourceGraphic" in2="effect1_dropShadow_44_787" result="shape"/>
</filter>
<filter id="filter2_d_44_787" x="13.8372" y="-6.50003" width="24.5712" height="24.5715" filterUnits="userSpaceOnUse" color-interpolation-filters="sRGB">
<feFlood flood-opacity="0" result="BackgroundImageFix"/>
<feColorMatrix in="SourceAlpha" type="matrix" values="0 0 0 0 0 0 0 0 0 0 0 0 0 0 0 0 0 0 127 0" result="hardAlpha"/>
<feOffset dy="1.71429"/>
<feGaussianBlur stdDeviation="3.42857"/>
<feComposite in2="hardAlpha" operator="out"/>
<feColorMatrix type="matrix" values="0 0 0 0 0.34902 0 0 0 0 0.364706 0 0 0 0 0.4 0 0 0 0.2 0"/>
<feBlend mode="normal" in2="BackgroundImageFix" result="effect1_dropShadow_44_787"/>
<feBlend mode="normal" in="SourceGraphic" in2="effect1_dropShadow_44_787" result="shape"/>
</filter>
<linearGradient id="paint0_linear_44_787" x1="4.02805" y1="38.0713" x2="26.5766" y2="5.13361" gradientUnits="userSpaceOnUse">
<stop stop-color="white"/>
<stop offset="1" stop-color="#EDEDED"/>
</linearGradient>
<linearGradient id="paint1_linear_44_787" x1="14.98" y1="0.928467" x2="14.98" y2="38.0713" gradientUnits="userSpaceOnUse">
<stop stop-color="#E2E2E2"/>
<stop offset="1" stop-color="#EDEDED"/>
</linearGradient>
<linearGradient id="paint2_linear_44_787" x1="22.1103" y1="8.31996" x2="29.8995" y2="2.18339" gradientUnits="userSpaceOnUse">
<stop stop-color="white"/>
<stop offset="1" stop-color="#EEEFF0"/>
</linearGradient>
<linearGradient id="paint3_linear_44_787" x1="26.1229" y1="-1.35718" x2="26.1229" y2="9.49996" gradientUnits="userSpaceOnUse">
<stop stop-color="#E2E2E2"/>
<stop offset="1" stop-color="#EDEDED"/>
</linearGradient>
<linearGradient id="paint4_linear_44_787" x1="28.123" y1="31.2141" x2="28.123" y2="42.6427" gradientUnits="userSpaceOnUse">
<stop stop-color="#6F6F6F"/>
<stop offset="1" stop-color="#171717"/>
</linearGradient>
</defs>
</svg>
