<svg width="40" height="40" viewBox="0 0 40 40" fill="none" xmlns="http://www.w3.org/2000/svg">
<path d="M0.816406 8.24498C0.816406 6.86668 0.816725 5.85752 0.881778 5.06125C0.946447 4.26975 1.07304 3.72461 1.30576 3.26788C1.73622 2.42307 2.42307 1.73622 3.26788 1.30576C3.72461 1.07305 4.26975 0.94645 5.06125 0.881782C5.85752 0.816724 6.86668 0.816406 8.24498 0.816406H31.7552C33.1335 0.816406 34.1426 0.816724 34.9389 0.881782C35.7304 0.94645 36.2755 1.07305 36.7322 1.30576C37.5771 1.73622 38.2639 2.42307 38.6944 3.26788C38.9271 3.72461 39.0537 4.26975 39.1184 5.06125C39.1834 5.85752 39.1838 6.86668 39.1838 8.24498V31.7552C39.1838 33.1335 39.1834 34.1426 39.1184 34.9389C39.0537 35.7304 38.9271 36.2755 38.6944 36.7322C38.2639 37.5771 37.5771 38.2639 36.7322 38.6944C36.2755 38.9271 35.7304 39.0537 34.9389 39.1184C34.1426 39.1834 33.1335 39.1838 31.7552 39.1838H8.24498C6.86668 39.1838 5.85752 39.1834 5.06125 39.1184C4.26975 39.0537 3.72461 38.9271 3.26788 38.6944C2.42307 38.2639 1.73622 37.5771 1.30576 36.7322C1.07304 36.2755 0.946447 35.7304 0.881778 34.9389C0.816725 34.1426 0.816406 33.1335 0.816406 31.7552V8.24498Z" stroke="black" stroke-opacity="0.05" stroke-width="0.816326"/>
</svg>
