<svg width="39" height="40" viewBox="0 0 39 40" fill="none" xmlns="http://www.w3.org/2000/svg">
<path d="M0.0205078 8.24498C0.0205078 6.86668 0.0208262 5.85752 0.0858793 5.06125C0.150549 4.26975 0.277145 3.72461 0.509863 3.26788C0.94032 2.42307 1.62717 1.73622 2.47198 1.30576C2.92871 1.07305 3.47385 0.94645 4.26535 0.881782C5.06162 0.816724 6.07079 0.816406 7.44908 0.816406H30.9593C32.3376 0.816406 33.3467 0.816724 34.143 0.881782C34.9345 0.94645 35.4796 1.07305 35.9363 1.30576C36.7812 1.73622 37.468 2.42307 37.8985 3.26788C38.1312 3.72461 38.2578 4.26975 38.3225 5.06125C38.3875 5.85752 38.3879 6.86668 38.3879 8.24498V31.7552C38.3879 33.1335 38.3875 34.1426 38.3225 34.9389C38.2578 35.7304 38.1312 36.2755 37.8985 36.7322C37.468 37.5771 36.7812 38.2639 35.9363 38.6944C35.4796 38.9271 34.9345 39.0537 34.143 39.1184C33.3467 39.1834 32.3376 39.1838 30.9593 39.1838H7.44908C6.07079 39.1838 5.06162 39.1834 4.26535 39.1184C3.47385 39.0537 2.92871 38.9271 2.47198 38.6944C1.62717 38.2639 0.94032 37.5771 0.509863 36.7322C0.277145 36.2755 0.150549 35.7304 0.0858793 34.9389C0.0208262 34.1426 0.0205078 33.1335 0.0205078 31.7552V8.24498Z" stroke="black" stroke-opacity="0.05" stroke-width="0.816326"/>
</svg>
