<svg width="39" height="40" viewBox="0 0 39 40" fill="none" xmlns="http://www.w3.org/2000/svg">
<path d="M0.612305 8.24498C0.612305 6.86668 0.612622 5.85752 0.67768 5.06125C0.742348 4.26975 0.868941 3.72461 1.10166 3.26788C1.53212 2.42307 2.21897 1.73622 3.06377 1.30576C3.52051 1.07305 4.06564 0.94645 4.85715 0.881782C5.65342 0.816724 6.66258 0.816406 8.04088 0.816406H31.5511C32.9294 0.816406 33.9385 0.816724 34.7348 0.881782C35.5263 0.94645 36.0714 1.07305 36.5281 1.30576C37.373 1.73622 38.0598 2.42307 38.4903 3.26788C38.723 3.72461 38.8496 4.26975 38.9143 5.06125C38.9793 5.85752 38.9797 6.86668 38.9797 8.24498V31.7552C38.9797 33.1335 38.9793 34.1426 38.9143 34.9389C38.8496 35.7304 38.723 36.2755 38.4903 36.7322C38.0598 37.5771 37.373 38.2639 36.5281 38.6944C36.0714 38.9271 35.5263 39.0537 34.7348 39.1184C33.9385 39.1834 32.9294 39.1838 31.5511 39.1838H8.04088C6.66258 39.1838 5.65342 39.1834 4.85715 39.1184C4.06564 39.0537 3.52051 38.9271 3.06377 38.6944C2.21897 38.2639 1.53212 37.5771 1.10166 36.7322C0.868941 36.2755 0.742348 35.7304 0.67768 34.9389C0.612622 34.1426 0.612305 33.1335 0.612305 31.7552V8.24498Z" stroke="black" stroke-opacity="0.05" stroke-width="0.816326"/>
</svg>
