<svg width="40" height="40" viewBox="0 0 40 40" fill="none" xmlns="http://www.w3.org/2000/svg">
<path d="M0.416504 8.00008C0.416504 6.59307 0.416828 5.56288 0.483241 4.75002C0.549256 3.94203 0.678491 3.38554 0.916054 2.91929C1.35548 2.05688 2.05664 1.35572 2.91905 0.916298C3.3853 0.678735 3.94179 0.549501 4.74978 0.483486C5.56264 0.417072 6.59283 0.416748 7.99984 0.416748H31.9998C33.4068 0.416748 34.437 0.417072 35.2499 0.483486C36.0579 0.549501 36.6143 0.678735 37.0806 0.916298C37.943 1.35572 38.6442 2.05688 39.0836 2.91929C39.3212 3.38554 39.4504 3.94203 39.5164 4.75002C39.5828 5.56288 39.5832 6.59307 39.5832 8.00008V32.0001C39.5832 33.4071 39.5828 34.4372 39.5164 35.2502C39.4504 36.0582 39.3212 36.6146 39.0836 37.0808C38.6442 37.9432 37.943 38.6444 37.0806 39.0838C36.6143 39.3214 36.0579 39.4507 35.2499 39.5167C34.437 39.5831 33.4068 39.5834 31.9998 39.5834H7.99984C6.59283 39.5834 5.56264 39.5831 4.74978 39.5167C3.94179 39.4507 3.3853 39.3214 2.91905 39.0838C2.05664 38.6444 1.35548 37.9432 0.916054 37.0808C0.678491 36.6146 0.549256 36.0582 0.483241 35.2502C0.416828 34.4372 0.416504 33.4071 0.416504 32.0001V8.00008Z" stroke="black" stroke-opacity="0.05" stroke-width="0.833333"/>
</svg>
