<svg width="16" height="16" viewBox="0 0 16 16" fill="none" xmlns="http://www.w3.org/2000/svg">
<path fill-rule="evenodd" clip-rule="evenodd" d="M2.66659 7.99992C2.66659 9.41441 3.22849 10.771 4.22868 11.7712C5.22888 12.7713 6.58543 13.3333 7.99992 13.3333C8.81591 13.3346 9.62122 13.1478 10.3533 12.7873C10.6196 12.656 10.9208 12.6128 11.2133 12.6639C11.8266 12.7706 12.4399 12.8826 12.9846 12.9846C12.8741 12.3948 12.7672 11.8043 12.6639 11.2133C12.6128 10.9208 12.656 10.6196 12.7873 10.3533C13.1478 9.62122 13.3346 8.81591 13.3333 7.99992C13.3333 6.58543 12.7713 5.22888 11.7712 4.22868C10.771 3.22849 9.41441 2.66659 7.99992 2.66659C6.58543 2.66659 5.22888 3.22849 4.22868 4.22868C3.22849 5.22888 2.66659 6.58543 2.66659 7.99992ZM14.3926 13.2533C14.2686 12.6019 14.1186 11.7933 13.9773 10.9846C13.975 10.9704 13.9773 10.956 13.9839 10.9433C14.4346 10.0276 14.6682 9.02045 14.6666 7.99992C14.6666 4.31792 11.6819 1.33325 7.99992 1.33325C4.31792 1.33325 1.33325 4.31792 1.33325 7.99992C1.33325 11.6819 4.31792 14.6666 7.99992 14.6666C9.02051 14.668 10.0277 14.4342 10.9433 13.9833C10.956 13.9769 10.9705 13.9748 10.9846 13.9773C11.7939 14.1186 12.6019 14.2686 13.2539 14.3926L13.3266 14.4059C13.7411 14.4849 14.1553 14.5654 14.5693 14.6473C14.5799 14.6493 14.591 14.6487 14.6014 14.6455C14.6118 14.6423 14.6212 14.6366 14.6289 14.6289C14.6366 14.6212 14.6423 14.6118 14.6455 14.6014C14.6487 14.591 14.6493 14.5799 14.6473 14.5693L14.6159 14.4119C14.5699 14.1773 14.4959 13.7953 14.4059 13.3266L14.3926 13.2533Z" fill="#87909E"/>
</svg>
