<svg width="20" height="20" viewBox="0 0 20 20" fill="none" xmlns="http://www.w3.org/2000/svg">
<path fill-rule="evenodd" clip-rule="evenodd" d="M8.6641 2.57912C9.05719 2.30894 9.52295 2.16431 9.99993 2.16431C10.4769 2.16431 10.9427 2.30894 11.3358 2.57912L16.3358 6.01662C16.651 6.23331 16.9089 6.52345 17.087 6.86201C17.2651 7.20057 17.3582 7.57739 17.3583 7.95995V14.9999C17.3583 15.3096 17.2973 15.6163 17.1788 15.9024C17.0602 16.1886 16.8865 16.4486 16.6675 16.6675C16.4485 16.8865 16.1886 17.0602 15.9024 17.1788C15.6163 17.2973 15.3096 17.3583 14.9999 17.3583H4.99993C4.37447 17.3583 3.77461 17.1098 3.33234 16.6675C2.89007 16.2253 2.6416 15.6254 2.6416 14.9999V7.95995C2.64163 7.57739 2.73473 7.20057 2.91287 6.86201C3.091 6.52345 3.34883 6.23331 3.6641 6.01662L8.6641 2.57912ZM10.5524 3.71912C10.3899 3.60732 10.1972 3.54746 9.99993 3.54746C9.80264 3.54746 9.60999 3.60732 9.44743 3.71912L4.44743 7.15662C4.31715 7.24622 4.21061 7.36617 4.137 7.50612C4.0634 7.64607 4.02494 7.80182 4.02493 7.95995V14.9999C4.02493 15.5383 4.4616 15.9749 4.99993 15.9749H6.80827V13.3333C6.80827 12.4868 7.14453 11.675 7.74309 11.0764C8.34164 10.4779 9.15345 10.1416 9.99993 10.1416C10.8464 10.1416 11.6582 10.4779 12.2568 11.0764C12.8553 11.675 13.1916 12.4868 13.1916 13.3333V15.9749H14.9999C15.2585 15.9749 15.5065 15.8722 15.6894 15.6894C15.8722 15.5065 15.9749 15.2585 15.9749 14.9999V7.95995C15.9749 7.63912 15.8166 7.33828 15.5524 7.15662L10.5524 3.71912ZM11.8083 15.9749V13.3333C11.8083 12.8537 11.6177 12.3937 11.2786 12.0546C10.9395 11.7155 10.4795 11.5249 9.99993 11.5249C9.52033 11.5249 9.06038 11.7155 8.72125 12.0546C8.38212 12.3937 8.1916 12.8537 8.1916 13.3333V15.9749H11.8083Z" fill="#4F5762"/>
</svg>
