<svg width="14" height="14" viewBox="0 0 14 14" fill="none" xmlns="http://www.w3.org/2000/svg">
<path d="M1.45823 5.28157L6.70823 8.3149C6.79691 8.3661 6.8975 8.39305 6.9999 8.39305C7.1023 8.39305 7.20289 8.3661 7.29157 8.3149L12.5416 5.28157C12.63 5.23029 12.7033 5.15669 12.7543 5.06813C12.8054 4.97958 12.8322 4.87918 12.8322 4.77698C12.8322 4.67479 12.8054 4.57439 12.7543 4.48583C12.7033 4.39728 12.63 4.32368 12.5416 4.2724L7.29157 1.2449C7.20289 1.1937 7.1023 1.16675 6.9999 1.16675C6.8975 1.16675 6.79691 1.1937 6.70823 1.2449L1.45823 4.2724C1.36984 4.32368 1.29646 4.39728 1.24545 4.48583C1.19445 4.57439 1.1676 4.67479 1.1676 4.77698C1.1676 4.87918 1.19445 4.97958 1.24545 5.06813C1.29646 5.15669 1.36984 5.23029 1.45823 5.28157ZM6.9999 2.44657L11.0832 4.7799L6.9999 7.11323L2.91657 4.7799L6.9999 2.44657ZM11.9582 6.62907L6.9999 9.44657L2.04157 6.60573C1.94161 6.54813 1.82681 6.52147 1.7117 6.52911C1.59658 6.53675 1.48632 6.57835 1.39484 6.64865C1.30337 6.71896 1.2348 6.81481 1.1978 6.92408C1.1608 7.03336 1.15704 7.15115 1.18698 7.26257C1.22734 7.41122 1.32485 7.53787 1.45823 7.6149L6.70823 10.6482C6.79691 10.6994 6.8975 10.7264 6.9999 10.7264C7.1023 10.7264 7.20289 10.6994 7.29157 10.6482L12.5416 7.6149C12.6113 7.57843 12.6729 7.52824 12.7227 7.46734C12.7725 7.40645 12.8095 7.3361 12.8314 7.26055C12.8533 7.18499 12.8597 7.10578 12.8503 7.02768C12.8408 6.94958 12.8156 6.8742 12.7762 6.80609C12.7368 6.73798 12.6841 6.67853 12.6212 6.63133C12.5582 6.58413 12.4864 6.55015 12.41 6.53143C12.3335 6.51272 12.2541 6.50965 12.1765 6.52242C12.0989 6.53519 12.0246 6.56353 11.9582 6.60573V6.62907ZM11.9582 8.9624L6.9999 11.7799L2.04157 8.93907C1.94161 8.88147 1.82681 8.8548 1.7117 8.86244C1.59658 8.87008 1.48632 8.91168 1.39484 8.98199C1.30337 9.05229 1.2348 9.14814 1.1978 9.25742C1.1608 9.36669 1.15704 9.48449 1.18698 9.5959C1.22734 9.74455 1.32485 9.87121 1.45823 9.94823L6.70823 12.9816C6.79691 13.0328 6.8975 13.0597 6.9999 13.0597C7.1023 13.0597 7.20289 13.0328 7.29157 12.9816L12.5416 9.94823C12.6113 9.91177 12.6729 9.86157 12.7227 9.80068C12.7725 9.73978 12.8095 9.66944 12.8314 9.59388C12.8533 9.51832 12.8597 9.43911 12.8503 9.36101C12.8408 9.28291 12.8156 9.20754 12.7762 9.13942C12.7368 9.07131 12.6841 9.01187 12.6212 8.96467C12.5582 8.91746 12.4864 8.88348 12.41 8.86477C12.3335 8.84605 12.2541 8.84298 12.1765 8.85575C12.0989 8.86852 12.0246 8.89686 11.9582 8.93907V8.9624Z" fill="#656F7D"/>
</svg>
