<svg width="17" height="16" viewBox="0 0 17 16" fill="none" xmlns="http://www.w3.org/2000/svg">
<path fill-rule="evenodd" clip-rule="evenodd" d="M6.42989 11.6868C6.33626 11.593 6.28366 11.4659 6.28366 11.3334C6.28366 11.2009 6.33626 11.0739 6.42989 10.9801L9.40989 8.00011L6.42989 5.02011C6.38077 4.97434 6.34136 4.91914 6.31404 4.85781C6.28671 4.79647 6.27201 4.73026 6.27083 4.66313C6.26965 4.59599 6.282 4.52931 6.30714 4.46705C6.33229 4.40479 6.36972 4.34823 6.4172 4.30076C6.46468 4.25328 6.52123 4.21585 6.58349 4.1907C6.64575 4.16555 6.71244 4.1532 6.77957 4.15439C6.84671 4.15557 6.91292 4.17027 6.97425 4.19759C7.03558 4.22492 7.09078 4.26432 7.13656 4.31345L10.4699 7.64678C10.5635 7.74053 10.6161 7.86761 10.6161 8.00011C10.6161 8.13261 10.5635 8.2597 10.4699 8.35345L7.13656 11.6868C7.04281 11.7804 6.91572 11.833 6.78322 11.833C6.65072 11.833 6.52364 11.7804 6.42989 11.6868Z" fill="#656F7D"/>
</svg>
