<svg width="20" height="20" viewBox="0 0 20 20" fill="none" xmlns="http://www.w3.org/2000/svg">
<path fill-rule="evenodd" clip-rule="evenodd" d="M4.75252 4.66343C4.95884 4.30234 5.25699 4.00222 5.61672 3.79353C5.97645 3.58483 6.38497 3.47498 6.80085 3.4751H13.1992C13.6149 3.47512 14.0233 3.58505 14.3828 3.79374C14.7424 4.00243 15.0404 4.30246 15.2467 4.66343L18.1008 9.65676C18.1605 9.76135 18.1918 9.8797 18.1917 10.0001V14.1668C18.1917 14.7922 17.9432 15.3921 17.5009 15.8344C17.0587 16.2766 16.4588 16.5251 15.8333 16.5251H4.16668C3.54121 16.5251 2.94136 16.2766 2.49909 15.8344C2.05682 15.3921 1.80835 14.7922 1.80835 14.1668V10.0001C1.80848 9.87962 1.84008 9.76127 1.90002 9.65676L4.75252 4.66343ZM6.80085 4.85843C6.45085 4.85843 6.12752 5.04593 5.95418 5.3501L3.69168 9.30843H6.66668C6.75752 9.30841 6.84748 9.32628 6.93141 9.36103C7.01534 9.39577 7.09161 9.44671 7.15585 9.51093L8.62002 10.9751H11.38L12.8442 9.51093C12.9084 9.44671 12.9847 9.39577 13.0686 9.36103C13.1526 9.32628 13.2425 9.30841 13.3333 9.30843H16.3083L14.0458 5.3501C13.9606 5.20077 13.8374 5.07663 13.6887 4.99029C13.54 4.90394 13.3711 4.85845 13.1992 4.85843H6.80085ZM16.8083 10.6918H13.62L12.1558 12.1559C12.0916 12.2202 12.0153 12.2711 11.9314 12.3058C11.8475 12.3406 11.7575 12.3585 11.6667 12.3584H8.33335C8.24251 12.3585 8.15256 12.3406 8.06862 12.3058C7.98469 12.2711 7.90843 12.2202 7.84418 12.1559L6.38002 10.6918H3.19168V14.1668C3.19168 14.7051 3.62835 15.1418 4.16668 15.1418H15.8333C16.0919 15.1418 16.3399 15.039 16.5228 14.8562C16.7056 14.6733 16.8083 14.4254 16.8083 14.1668V10.6918Z" fill="#4F5762"/>
</svg>
