<svg width="18" height="18" viewBox="0 0 18 18" fill="none" xmlns="http://www.w3.org/2000/svg">
<path fill-rule="evenodd" clip-rule="evenodd" d="M5.24994 2.87244C5.01721 2.87244 4.79402 2.96489 4.62946 3.12946C4.46489 3.29402 4.37244 3.51721 4.37244 3.74994V14.2499C4.37244 14.7344 4.76544 15.1274 5.24994 15.1274H12.7499C12.9827 15.1274 13.2059 15.035 13.3704 14.8704C13.535 14.7059 13.6274 14.4827 13.6274 14.2499V6.62094C13.6274 6.38844 13.5352 6.16494 13.3702 6.00069L10.4999 3.12969C10.4184 3.0481 10.3216 2.98339 10.215 2.93925C10.1085 2.89511 9.99428 2.8724 9.87894 2.87244H5.24994ZM3.12744 3.74994C3.12744 3.18702 3.35106 2.64715 3.74911 2.24911C4.14715 1.85106 4.68702 1.62744 5.24994 1.62744H9.87819C10.4414 1.62744 10.9807 1.85094 11.3797 2.24919L14.2499 5.12019C14.6474 5.51844 14.8717 6.05769 14.8717 6.62094V14.2499C14.8717 14.8127 14.6482 15.3525 14.2503 15.7505C13.8524 16.1485 13.3127 16.3722 12.7499 16.3724H5.24994C4.68702 16.3724 4.14715 16.1488 3.74911 15.7508C3.35106 15.3527 3.12744 14.8129 3.12744 14.2499V3.74994ZM6.12744 6.74994C6.12744 6.58484 6.19303 6.42651 6.30977 6.30977C6.42651 6.19303 6.58484 6.12744 6.74994 6.12744H8.99994C9.16504 6.12744 9.32337 6.19303 9.44012 6.30977C9.55686 6.42651 9.62244 6.58484 9.62244 6.74994C9.62244 6.91504 9.55686 7.07337 9.44012 7.19012C9.32337 7.30686 9.16504 7.37244 8.99994 7.37244H6.74994C6.58484 7.37244 6.42651 7.30686 6.30977 7.19012C6.19303 7.07337 6.12744 6.91504 6.12744 6.74994ZM6.12744 9.74994C6.12744 9.58484 6.19303 9.42651 6.30977 9.30977C6.42651 9.19303 6.58484 9.12744 6.74994 9.12744H11.2499C11.415 9.12744 11.5734 9.19303 11.6901 9.30977C11.8069 9.42651 11.8724 9.58484 11.8724 9.74994C11.8724 9.91504 11.8069 10.0734 11.6901 10.1901C11.5734 10.3069 11.415 10.3724 11.2499 10.3724H6.74994C6.66819 10.3724 6.58725 10.3563 6.51172 10.3251C6.4362 10.2938 6.36757 10.2479 6.30977 10.1901C6.25196 10.1323 6.20611 10.0637 6.17483 9.98816C6.14354 9.91264 6.12744 9.83169 6.12744 9.74994ZM6.12744 12.7499C6.12744 12.5848 6.19303 12.4265 6.30977 12.3098C6.42651 12.193 6.58484 12.1274 6.74994 12.1274H11.2499C11.415 12.1274 11.5734 12.193 11.6901 12.3098C11.8069 12.4265 11.8724 12.5848 11.8724 12.7499C11.8724 12.915 11.8069 13.0734 11.6901 13.1901C11.5734 13.3069 11.415 13.3724 11.2499 13.3724H6.74994C6.58484 13.3724 6.42651 13.3069 6.30977 13.1901C6.19303 13.0734 6.12744 12.915 6.12744 12.7499Z" fill="#4F5762"/>
</svg>
