<svg width="15" height="14" viewBox="0 0 15 14" fill="none" xmlns="http://www.w3.org/2000/svg">
<path fill-rule="evenodd" clip-rule="evenodd" d="M1.75684 3.79175C1.75684 3.32762 1.94121 2.8825 2.2694 2.55431C2.59759 2.22612 3.04271 2.04175 3.50684 2.04175H11.6735C12.1376 2.04175 12.5828 2.22612 12.9109 2.55431C13.2391 2.8825 13.4235 3.32762 13.4235 3.79175V10.2084C13.4235 10.6725 13.2391 11.1177 12.9109 11.4459C12.5828 11.774 12.1376 11.9584 11.6735 11.9584H3.50684C3.04271 11.9584 2.59759 11.774 2.2694 11.4459C1.94121 11.1177 1.75684 10.6725 1.75684 10.2084V3.79175ZM3.50684 3.20841C3.35213 3.20841 3.20375 3.26987 3.09436 3.37927C2.98496 3.48867 2.9235 3.63704 2.9235 3.79175V10.2084C2.9235 10.3631 2.98496 10.5115 3.09436 10.6209C3.20375 10.7303 3.35213 10.7917 3.50684 10.7917H5.25684V3.20841H3.50684ZM6.4235 3.20841V10.7917H8.75684V3.20841H6.4235ZM9.9235 3.20841V10.7917H11.6735C11.8282 10.7917 11.9766 10.7303 12.086 10.6209C12.1954 10.5115 12.2568 10.3631 12.2568 10.2084V3.79175C12.2568 3.63704 12.1954 3.48867 12.086 3.37927C11.9766 3.26987 11.8282 3.20841 11.6735 3.20841H9.9235Z" fill="#656F7D"/>
</svg>
