<svg width="17" height="16" viewBox="0 0 17 16" fill="none" xmlns="http://www.w3.org/2000/svg">
<path fill-rule="evenodd" clip-rule="evenodd" d="M10.8734 10.6159C9.99303 11.4378 8.82503 11.8811 7.62102 11.8501C6.417 11.8191 5.27334 11.3164 4.43641 10.4503C3.59949 9.58419 3.13629 8.42396 3.14662 7.21959C3.15694 6.01522 3.63996 4.8631 4.49161 4.01145C5.34326 3.1598 6.49538 2.67678 7.69975 2.66646C8.90412 2.65613 10.0643 3.11933 10.9305 3.95625C11.7966 4.79318 12.2993 5.93684 12.3303 7.14086C12.3612 8.34488 11.918 9.51288 11.096 10.3932C11.0051 10.4486 10.9288 10.525 10.8734 10.6159ZM11.4314 11.8946C10.2473 12.8378 8.74708 13.2922 7.2386 13.1643C5.73012 13.0365 4.32777 12.3362 3.31929 11.2071C2.31081 10.078 1.77269 8.60581 1.81534 7.09253C1.858 5.57924 2.4782 4.13966 3.54868 3.06918C4.61915 1.9987 6.05873 1.37851 7.57202 1.33585C9.0853 1.2932 10.5575 1.83132 11.6866 2.8398C12.8157 3.84827 13.516 5.25063 13.6438 6.75911C13.7717 8.26759 13.3173 9.76779 12.374 10.9519L14.8774 13.4546C14.9988 13.5803 15.066 13.7487 15.0645 13.9235C15.063 14.0983 14.9929 14.2655 14.8693 14.3891C14.7457 14.5127 14.5784 14.5828 14.4036 14.5843C14.2288 14.5859 14.0604 14.5187 13.9347 14.3972L11.4314 11.8946Z" fill="white" fill-opacity="0.8"/>
</svg>
