<svg width="16" height="16" viewBox="0 0 16 16" fill="none" xmlns="http://www.w3.org/2000/svg">
<path fill-rule="evenodd" clip-rule="evenodd" d="M7.99992 1.33325C4.31792 1.33325 1.33325 4.31792 1.33325 7.99992C1.33325 11.6819 4.31792 14.6666 7.99992 14.6666C11.6819 14.6666 14.6666 11.6819 14.6666 7.99992C14.6666 4.31792 11.6819 1.33325 7.99992 1.33325ZM2.66659 7.99992C2.66659 6.58543 3.22849 5.22888 4.22868 4.22868C5.22888 3.22849 6.58543 2.66659 7.99992 2.66659C9.41441 2.66659 10.771 3.22849 11.7712 4.22868C12.7713 5.22888 13.3333 6.58543 13.3333 7.99992C13.3333 9.41441 12.7713 10.771 11.7712 11.7712C10.771 12.7713 9.41441 13.3333 7.99992 13.3333C6.58543 13.3333 5.22888 12.7713 4.22868 11.7712C3.22849 10.771 2.66659 9.41441 2.66659 7.99992Z" fill="#87909E"/>
<path d="M8 12C10.2091 12 12 10.2091 12 8C12 5.79086 10.2091 4 8 4C5.79086 4 4 5.79086 4 8C4 10.2091 5.79086 12 8 12Z" fill="#87909E"/>
</svg>
