<svg width="15" height="14" viewBox="0 0 15 14" fill="none" xmlns="http://www.w3.org/2000/svg">
<path d="M10.4874 5.95416C10.5936 5.84414 10.6524 5.69679 10.6511 5.54384C10.6498 5.39089 10.5884 5.24459 10.4803 5.13643C10.3721 5.02828 10.2258 4.96693 10.0728 4.9656C9.9199 4.96427 9.77255 5.02307 9.66253 5.12932L6.57494 8.21691L5.23736 6.87932C5.12734 6.77307 4.97999 6.71427 4.82704 6.7156C4.6741 6.71693 4.52779 6.77828 4.41963 6.88643C4.31148 6.99459 4.25013 7.14089 4.2488 7.29384C4.24747 7.44679 4.30627 7.59414 4.41253 7.70416L6.16253 9.45416C6.27192 9.56352 6.42027 9.62495 6.57494 9.62495C6.72962 9.62495 6.87797 9.56352 6.98736 9.45416L10.4874 5.95416Z" fill="#FFC955"/>
<path fill-rule="evenodd" clip-rule="evenodd" d="M7.45003 1.16675C4.22828 1.16675 1.6167 3.77833 1.6167 7.00008C1.6167 10.2218 4.22828 12.8334 7.45003 12.8334C10.6718 12.8334 13.2834 10.2218 13.2834 7.00008C13.2834 3.77833 10.6718 1.16675 7.45003 1.16675ZM2.78337 7.00008C2.78337 5.7624 3.27503 4.57542 4.1502 3.70025C5.02537 2.82508 6.21236 2.33341 7.45003 2.33341C8.68771 2.33341 9.87469 2.82508 10.7499 3.70025C11.625 4.57542 12.1167 5.7624 12.1167 7.00008C12.1167 8.23776 11.625 9.42474 10.7499 10.2999C9.87469 11.1751 8.68771 11.6667 7.45003 11.6667C6.21236 11.6667 5.02537 11.1751 4.1502 10.2999C3.27503 9.42474 2.78337 8.23776 2.78337 7.00008Z" fill="#FFC955"/>
</svg>
