<svg width="20" height="20" viewBox="0 0 20 20" fill="none" xmlns="http://www.w3.org/2000/svg">
<path d="M6.25 11.25C6.58152 11.25 6.89946 11.1183 7.13388 10.8839C7.3683 10.6495 7.5 10.3315 7.5 10C7.5 9.66848 7.3683 9.35054 7.13388 9.11612C6.89946 8.8817 6.58152 8.75 6.25 8.75C5.91848 8.75 5.60054 8.8817 5.36612 9.11612C5.1317 9.35054 5 9.66848 5 10C5 10.3315 5.1317 10.6495 5.36612 10.8839C5.60054 11.1183 5.91848 11.25 6.25 11.25ZM10 11.25C10.3315 11.25 10.6495 11.1183 10.8839 10.8839C11.1183 10.6495 11.25 10.3315 11.25 10C11.25 9.66848 11.1183 9.35054 10.8839 9.11612C10.6495 8.8817 10.3315 8.75 10 8.75C9.66848 8.75 9.35054 8.8817 9.11612 9.11612C8.8817 9.35054 8.75 9.66848 8.75 10C8.75 10.3315 8.8817 10.6495 9.11612 10.8839C9.35054 11.1183 9.66848 11.25 10 11.25ZM15 10C15 10.3315 14.8683 10.6495 14.6339 10.8839C14.3995 11.1183 14.0815 11.25 13.75 11.25C13.4185 11.25 13.1005 11.1183 12.8661 10.8839C12.6317 10.6495 12.5 10.3315 12.5 10C12.5 9.66848 12.6317 9.35054 12.8661 9.11612C13.1005 8.8817 13.4185 8.75 13.75 8.75C14.0815 8.75 14.3995 8.8817 14.6339 9.11612C14.8683 9.35054 15 9.66848 15 10Z" fill="#4F5762"/>
<path fill-rule="evenodd" clip-rule="evenodd" d="M10 1.80835C5.47502 1.80835 1.80835 5.47502 1.80835 10C1.80835 14.525 5.47502 18.1917 10 18.1917C14.525 18.1917 18.1917 14.5242 18.1917 10C18.1917 5.47585 14.5242 1.80835 10 1.80835ZM3.19168 10C3.19168 9.10593 3.36779 8.2206 3.70994 7.39458C4.05209 6.56855 4.55359 5.81801 5.1858 5.1858C5.81801 4.55359 6.56855 4.05209 7.39458 3.70994C8.2206 3.36779 9.10593 3.19168 10 3.19168C10.8941 3.19168 11.7794 3.36779 12.6055 3.70994C13.4315 4.05209 14.182 4.55359 14.8142 5.1858C15.4464 5.81801 15.9479 6.56855 16.2901 7.39458C16.6322 8.2206 16.8083 9.10593 16.8083 10C16.8083 11.8057 16.091 13.5374 14.8142 14.8142C13.5374 16.091 11.8057 16.8083 10 16.8083C8.19433 16.8083 6.46261 16.091 5.1858 14.8142C3.90899 13.5374 3.19168 11.8057 3.19168 10Z" fill="#4F5762"/>
</svg>
