<svg width="10" height="10" viewBox="0 0 10 10" fill="none" xmlns="http://www.w3.org/2000/svg">
<g clip-path="url(#clip0_44_70)">
<path fill-rule="evenodd" clip-rule="evenodd" d="M9.5 5C9.5 7.48513 7.48513 9.5 5 9.5C2.51487 9.5 0.5 7.48513 0.5 5C0.5 2.51487 2.51487 0.5 5 0.5C7.48513 0.5 9.5 2.51487 9.5 5Z" fill="#FFC955"/>
<path d="M8 5C8 5.79565 7.68393 6.55871 7.12132 7.12132C6.55871 7.68393 5.79565 8 5 8C4.20435 8 3.44129 7.68393 2.87868 7.12132C2.31607 6.55871 2 5.79565 2 5C2 4.20435 2.31607 3.44129 2.87868 2.87868C3.44129 2.31607 4.20435 2 5 2C5.79565 2 6.55871 2.31607 7.12132 2.87868C7.68393 3.44129 8 4.20435 8 5Z" fill="#33A069"/>
</g>
<defs>
<clipPath id="clip0_44_70">
<rect width="9" height="9" fill="white" transform="translate(0.5 0.5)"/>
</clipPath>
</defs>
</svg>
