<svg width="16" height="16" viewBox="0 0 16 16" fill="none" xmlns="http://www.w3.org/2000/svg">
<path fill-rule="evenodd" clip-rule="evenodd" d="M7.99978 11.3332C7.82299 11.3332 7.65345 11.2629 7.52845 11.1379L3.52845 7.13789C3.40701 7.01216 3.33981 6.84376 3.34133 6.66896C3.34285 6.49416 3.41297 6.32695 3.53657 6.20335C3.66018 6.07974 3.82738 6.00963 4.00218 6.00811C4.17698 6.00659 4.34538 6.07379 4.47112 6.19523L7.99978 9.72389L11.5285 6.19523C11.5899 6.13155 11.6635 6.08076 11.7448 6.04582C11.8262 6.01088 11.9137 5.99249 12.0022 5.99172C12.0907 5.99096 12.1785 6.00782 12.2604 6.04134C12.3424 6.07486 12.4168 6.12437 12.4794 6.18696C12.542 6.24956 12.5915 6.32399 12.625 6.40592C12.6585 6.48785 12.6754 6.57564 12.6746 6.66416C12.6738 6.75268 12.6555 6.84016 12.6205 6.92149C12.5856 7.00283 12.5348 7.07639 12.4711 7.13789L8.47112 11.1379C8.34612 11.2629 8.17658 11.3332 7.99978 11.3332Z" fill="#656F7D"/>
</svg>
