<svg width="16" height="16" viewBox="0 0 16 16" fill="none" xmlns="http://www.w3.org/2000/svg">
<path d="M11.4714 6.80461C11.5928 6.67888 11.66 6.51048 11.6585 6.33568C11.657 6.16088 11.5868 5.99367 11.4632 5.87007C11.3396 5.74646 11.1724 5.67635 10.9976 5.67483C10.8228 5.67331 10.6544 5.74051 10.5287 5.86195L7.00003 9.39061L5.47136 7.86195C5.34563 7.74051 5.17722 7.67331 5.00243 7.67483C4.82763 7.67635 4.66042 7.74646 4.53682 7.87007C4.41321 7.99367 4.3431 8.16088 4.34158 8.33568C4.34006 8.51048 4.40726 8.67888 4.52869 8.80461L6.52869 10.8046C6.65371 10.9296 6.82325 10.9998 7.00003 10.9998C7.1768 10.9998 7.34634 10.9296 7.47136 10.8046L11.4714 6.80461Z" fill="white"/>
<path fill-rule="evenodd" clip-rule="evenodd" d="M7.99992 1.33325C4.31792 1.33325 1.33325 4.31792 1.33325 7.99992C1.33325 11.6819 4.31792 14.6666 7.99992 14.6666C11.6819 14.6666 14.6666 11.6819 14.6666 7.99992C14.6666 4.31792 11.6819 1.33325 7.99992 1.33325ZM2.66659 7.99992C2.66659 6.58543 3.22849 5.22888 4.22868 4.22868C5.22888 3.22849 6.58543 2.66659 7.99992 2.66659C9.41441 2.66659 10.771 3.22849 11.7712 4.22868C12.7713 5.22888 13.3333 6.58543 13.3333 7.99992C13.3333 9.41441 12.7713 10.771 11.7712 11.7712C10.771 12.7713 9.41441 13.3333 7.99992 13.3333C6.58543 13.3333 5.22888 12.7713 4.22868 11.7712C3.22849 10.771 2.66659 9.41441 2.66659 7.99992Z" fill="white"/>
</svg>
