<svg width="16" height="16" viewBox="0 0 16 16" fill="none" xmlns="http://www.w3.org/2000/svg">
<path fill-rule="evenodd" clip-rule="evenodd" d="M6.00008 4.00007C5.73987 3.99527 5.48131 4.04237 5.23951 4.13863C4.9977 4.23489 4.77751 4.37838 4.59179 4.5607C4.40607 4.74302 4.25855 4.96053 4.15785 5.20052C4.05715 5.4405 4.00528 5.69815 4.00528 5.9584C4.00528 6.21866 4.05715 6.47631 4.15785 6.71629C4.25855 6.95628 4.40607 7.17378 4.59179 7.35611C4.77751 7.53843 4.9977 7.68192 5.23951 7.77817C5.48131 7.87443 5.73987 7.92154 6.00008 7.91674C6.5132 7.90727 7.00211 7.69678 7.36165 7.33056C7.72118 6.96433 7.92261 6.47162 7.92261 5.9584C7.92261 5.44519 7.72118 4.95248 7.36165 4.58625C7.00211 4.22002 6.5132 4.00954 6.00008 4.00007ZM8.21741 8.3914C8.70806 7.94413 9.05197 7.35892 9.20398 6.71263C9.35599 6.06635 9.309 5.3892 9.06916 4.77011C8.82933 4.15102 8.40787 3.61893 7.86014 3.24372C7.3124 2.86851 6.664 2.66772 6.00008 2.66772C5.33616 2.66772 4.68775 2.86851 4.14002 3.24372C3.59229 3.61893 3.17083 4.15102 2.931 4.77011C2.69116 5.3892 2.64416 6.06635 2.79618 6.71263C2.94819 7.35892 3.2921 7.94413 3.78275 8.3914C2.11941 9.1414 0.907412 10.7101 0.672079 12.5834C0.65329 12.7572 0.703488 12.9314 0.811866 13.0685C0.920244 13.2056 1.07813 13.2947 1.25154 13.3165C1.42494 13.3384 1.59999 13.2912 1.73899 13.1853C1.878 13.0794 1.96984 12.9231 1.99475 12.7501C2.24208 10.7814 3.93808 9.25007 6.00008 9.25007C8.06208 9.25007 9.75808 10.7814 10.0054 12.7501C10.0149 12.8381 10.0419 12.9233 10.0847 13.0008C10.1275 13.0783 10.1854 13.1465 10.2548 13.2014C10.3243 13.2563 10.404 13.2968 10.4893 13.3206C10.5746 13.3444 10.6637 13.3509 10.7516 13.3398C10.8394 13.3288 10.9242 13.3003 11.0009 13.2561C11.0776 13.212 11.1448 13.1529 11.1984 13.0825C11.2521 13.0121 11.2912 12.9317 11.3135 12.846C11.3357 12.7603 11.3407 12.671 11.3281 12.5834C11.0927 10.7101 9.88141 9.1414 8.21741 8.3914ZM12.6667 4.66674C12.8436 4.66674 13.0131 4.73698 13.1382 4.862C13.2632 4.98702 13.3334 5.15659 13.3334 5.3334V6.66674H14.6667C14.8436 6.66674 15.0131 6.73698 15.1382 6.862C15.2632 6.98702 15.3334 7.15659 15.3334 7.3334C15.3334 7.51022 15.2632 7.67978 15.1382 7.80481C15.0131 7.92983 14.8436 8.00007 14.6667 8.00007H13.3334V9.3334C13.3334 9.51022 13.2632 9.67978 13.1382 9.80481C13.0131 9.92983 12.8436 10.0001 12.6667 10.0001C12.4899 10.0001 12.3204 9.92983 12.1953 9.80481C12.0703 9.67978 12.0001 9.51022 12.0001 9.3334V8.00007H10.6667C10.4899 8.00007 10.3204 7.92983 10.1953 7.80481C10.0703 7.67978 10.0001 7.51022 10.0001 7.3334C10.0001 7.15659 10.0703 6.98702 10.1953 6.862C10.3204 6.73698 10.4899 6.66674 10.6667 6.66674H12.0001V5.3334C12.0001 5.15659 12.0703 4.98702 12.1953 4.862C12.3204 4.73698 12.4899 4.66674 12.6667 4.66674Z" fill="#87909E"/>
</svg>
