<svg width="17" height="17" viewBox="0 0 17 17" fill="none" xmlns="http://www.w3.org/2000/svg">
<path fill-rule="evenodd" clip-rule="evenodd" d="M3.10349 8.50011C3.10349 7.78484 3.24438 7.07658 3.5181 6.41576C3.79182 5.75494 4.19301 5.15451 4.69878 4.64874C5.20455 4.14297 5.80499 3.74177 6.46581 3.46805C7.12663 3.19433 7.83489 3.05344 8.55016 3.05344C9.26543 3.05344 9.97369 3.19433 10.6345 3.46805C11.2953 3.74177 11.8958 4.14297 12.4015 4.64874C12.9073 5.15451 13.3085 5.75494 13.5822 6.41576C13.8559 7.07658 13.9968 7.78484 13.9968 8.50011C13.9968 9.94466 13.423 11.33 12.4015 12.3515C11.3801 13.3729 9.99471 13.9468 8.55016 13.9468C7.10561 13.9468 5.72023 13.3729 4.69878 12.3515C3.67734 11.33 3.10349 9.94466 3.10349 8.50011ZM8.55016 1.94678C4.93016 1.94678 1.99683 4.88011 1.99683 8.50011C1.99683 12.1201 4.93016 15.0534 8.55016 15.0534C12.1702 15.0534 15.1035 12.1194 15.1035 8.50011C15.1035 4.88078 12.1695 1.94678 8.55016 1.94678ZM7.10349 7.16678C7.10349 6.7831 7.25591 6.41513 7.52721 6.14383C7.79851 5.87253 8.16648 5.72011 8.55016 5.72011H8.81283C9.0668 5.72029 9.31398 5.80212 9.51788 5.95353C9.72179 6.10495 9.8716 6.31791 9.9452 6.56098C10.0188 6.80406 10.0123 7.06435 9.92663 7.30344C9.84097 7.54253 9.68071 7.74775 9.46949 7.88878L9.13349 8.11278C8.78387 8.34594 8.49721 8.66178 8.29892 9.0323C8.10064 9.40282 7.99687 9.81654 7.99683 10.2368V10.5001H9.10349V10.2368C9.10349 9.75344 9.34549 9.30144 9.74749 9.03344L10.0835 8.80944C10.4923 8.53663 10.8025 8.13958 10.9683 7.67693C11.1341 7.21428 11.1467 6.71057 11.0043 6.24021C10.8618 5.76984 10.5719 5.35775 10.1773 5.06482C9.78266 4.77189 9.30429 4.61364 8.81283 4.61344H8.55016C7.87297 4.61344 7.22352 4.88246 6.74468 5.3613C6.26584 5.84014 5.99683 6.48959 5.99683 7.16678H7.10349ZM8.55016 12.5001C8.72697 12.5001 8.89654 12.4299 9.02156 12.3048C9.14659 12.1798 9.21683 12.0103 9.21683 11.8334C9.21683 11.6566 9.14659 11.4871 9.02156 11.362C8.89654 11.237 8.72697 11.1668 8.55016 11.1668C8.37335 11.1668 8.20378 11.237 8.07876 11.362C7.95373 11.4871 7.88349 11.6566 7.88349 11.8334C7.88349 12.0103 7.95373 12.1798 8.07876 12.3048C8.20378 12.4299 8.37335 12.5001 8.55016 12.5001Z" fill="#2A2E34"/>
</svg>
