<svg width="17" height="16" viewBox="0 0 17 16" fill="none" xmlns="http://www.w3.org/2000/svg">
<path fill-rule="evenodd" clip-rule="evenodd" d="M4.00317 4.66667C4.00317 4.48986 4.07341 4.32029 4.19844 4.19526C4.32346 4.07024 4.49303 4 4.66984 4H12.6698C12.8467 4 13.0162 4.07024 13.1412 4.19526C13.2663 4.32029 13.3365 4.48986 13.3365 4.66667C13.3365 4.84348 13.2663 5.01305 13.1412 5.13807C13.0162 5.2631 12.8467 5.33333 12.6698 5.33333H4.66984C4.49303 5.33333 4.32346 5.2631 4.19844 5.13807C4.07341 5.01305 4.00317 4.84348 4.00317 4.66667ZM4.00317 8C4.00317 7.82319 4.07341 7.65362 4.19844 7.5286C4.32346 7.40357 4.49303 7.33333 4.66984 7.33333H12.6698C12.8467 7.33333 13.0162 7.40357 13.1412 7.5286C13.2663 7.65362 13.3365 7.82319 13.3365 8C13.3365 8.17681 13.2663 8.34638 13.1412 8.4714C13.0162 8.59643 12.8467 8.66667 12.6698 8.66667H4.66984C4.49303 8.66667 4.32346 8.59643 4.19844 8.4714C4.07341 8.34638 4.00317 8.17681 4.00317 8ZM4.00317 11.3333C4.00317 11.1565 4.07341 10.987 4.19844 10.8619C4.32346 10.7369 4.49303 10.6667 4.66984 10.6667H12.6698C12.8467 10.6667 13.0162 10.7369 13.1412 10.8619C13.2663 10.987 13.3365 11.1565 13.3365 11.3333C13.3365 11.5101 13.2663 11.6797 13.1412 11.8047C13.0162 11.9298 12.8467 12 12.6698 12H4.66984C4.49303 12 4.32346 11.9298 4.19844 11.8047C4.07341 11.6797 4.00317 11.5101 4.00317 11.3333Z" fill="#2A2E34"/>
</svg>
