<svg width="20" height="20" viewBox="0 0 20 20" fill="none" xmlns="http://www.w3.org/2000/svg">
<path fill-rule="evenodd" clip-rule="evenodd" d="M2.6416 4.99993C2.6416 4.37447 2.89007 3.77461 3.33234 3.33234C3.77461 2.89007 4.37447 2.6416 4.99993 2.6416H14.9999C15.6254 2.6416 16.2253 2.89007 16.6675 3.33234C17.1098 3.77461 17.3583 4.37447 17.3583 4.99993V14.9999C17.3583 15.6254 17.1098 16.2253 16.6675 16.6675C16.2253 17.1098 15.6254 17.3583 14.9999 17.3583H4.99993C4.37447 17.3583 3.77461 17.1098 3.33234 16.6675C2.89007 16.2253 2.6416 15.6254 2.6416 14.9999V4.99993ZM4.99993 4.02493C4.74135 4.02493 4.49335 4.12766 4.31051 4.31051C4.12766 4.49335 4.02493 4.74135 4.02493 4.99993V14.9999C4.02493 15.5383 4.4616 15.9749 4.99993 15.9749H14.9999C15.2585 15.9749 15.5065 15.8722 15.6894 15.6894C15.8722 15.5065 15.9749 15.2585 15.9749 14.9999V4.99993C15.9749 4.74135 15.8722 4.49335 15.6894 4.31051C15.5065 4.12766 15.2585 4.02493 14.9999 4.02493H4.99993ZM13.3333 5.97493C13.5167 5.97493 13.6926 6.04781 13.8224 6.17752C13.9521 6.30723 14.0249 6.48316 14.0249 6.6666V13.3333C14.0249 13.5167 13.9521 13.6926 13.8224 13.8224C13.6926 13.9521 13.5167 14.0249 13.3333 14.0249C13.1498 14.0249 12.9739 13.9521 12.8442 13.8224C12.7145 13.6926 12.6416 13.5167 12.6416 13.3333V6.6666C12.6416 6.48316 12.7145 6.30723 12.8442 6.17752C12.9739 6.04781 13.1498 5.97493 13.3333 5.97493ZM9.99993 8.05827C10.1834 8.05827 10.3593 8.13114 10.489 8.26085C10.6187 8.39056 10.6916 8.56649 10.6916 8.74993V13.3333C10.6916 13.4241 10.6737 13.514 10.639 13.598C10.6042 13.6819 10.5532 13.7581 10.489 13.8224C10.4248 13.8866 10.3485 13.9375 10.2646 13.9723C10.1807 14.007 10.0908 14.0249 9.99993 14.0249C9.9091 14.0249 9.81916 14.007 9.73525 13.9723C9.65133 13.9375 9.57508 13.8866 9.51085 13.8224C9.44663 13.7581 9.39568 13.6819 9.36092 13.598C9.32616 13.514 9.30827 13.4241 9.30827 13.3333V8.74993C9.30827 8.56649 9.38114 8.39056 9.51085 8.26085C9.64056 8.13114 9.81649 8.05827 9.99993 8.05827ZM6.6666 10.1416C6.85004 10.1416 7.02597 10.2145 7.15568 10.3442C7.2854 10.4739 7.35827 10.6498 7.35827 10.8333V13.3333C7.35827 13.5167 7.2854 13.6926 7.15568 13.8224C7.02597 13.9521 6.85004 14.0249 6.6666 14.0249C6.48316 14.0249 6.30723 13.9521 6.17752 13.8224C6.04781 13.6926 5.97493 13.5167 5.97493 13.3333V10.8333C5.97493 10.6498 6.04781 10.4739 6.17752 10.3442C6.30723 10.2145 6.48316 10.1416 6.6666 10.1416Z" fill="#4F5762"/>
</svg>
