<svg width="12" height="12" viewBox="0 0 12 12" fill="none" xmlns="http://www.w3.org/2000/svg">
<path fill-rule="evenodd" clip-rule="evenodd" d="M5.99996 8.50004C5.86736 8.50001 5.74021 8.44732 5.64646 8.35354L2.64646 5.35354C2.55538 5.25924 2.50498 5.13294 2.50612 5.00184C2.50726 4.87074 2.55985 4.74534 2.65255 4.65263C2.74525 4.55993 2.87066 4.50734 3.00176 4.5062C3.13286 4.50506 3.25916 4.55546 3.35346 4.64654L5.99996 7.29304L8.64646 4.64654C8.69258 4.59879 8.74776 4.56069 8.80876 4.53449C8.86976 4.50829 8.93537 4.49449 9.00176 4.49392C9.06815 4.49334 9.13399 4.50599 9.19544 4.53113C9.25688 4.55627 9.31271 4.5934 9.35966 4.64034C9.4066 4.68729 9.44373 4.74312 9.46887 4.80456C9.49401 4.86601 9.50666 4.93185 9.50608 4.99824C9.50551 5.06463 9.49171 5.13024 9.46551 5.19124C9.43931 5.25225 9.40122 5.30742 9.35346 5.35354L6.35346 8.35354C6.25971 8.44732 6.13256 8.50001 5.99996 8.50004Z" fill="white"/>
</svg>
