<svg width="17" height="16" viewBox="0 0 17 16" fill="none" xmlns="http://www.w3.org/2000/svg">
<path fill-rule="evenodd" clip-rule="evenodd" d="M9.50684 3.33341C9.50684 3.1566 9.4366 2.98703 9.31157 2.86201C9.18655 2.73699 9.01698 2.66675 8.84017 2.66675C8.66336 2.66675 8.49379 2.73699 8.36876 2.86201C8.24374 2.98703 8.1735 3.1566 8.1735 3.33341V7.33342H4.1735C3.99669 7.33342 3.82712 7.40365 3.7021 7.52868C3.57707 7.6537 3.50684 7.82327 3.50684 8.00008C3.50684 8.17689 3.57707 8.34646 3.7021 8.47149C3.82712 8.59651 3.99669 8.66675 4.1735 8.66675H8.1735V12.6634C8.1735 12.8402 8.24374 13.0098 8.36876 13.1348C8.49379 13.2598 8.66336 13.3301 8.84017 13.3301C9.01698 13.3301 9.18655 13.2598 9.31157 13.1348C9.4366 13.0098 9.50684 12.8402 9.50684 12.6634V8.66675H13.5035C13.6803 8.66675 13.8499 8.59651 13.9749 8.47149C14.0999 8.34646 14.1702 8.17689 14.1702 8.00008C14.1702 7.82327 14.0999 7.6537 13.9749 7.52868C13.8499 7.40365 13.6803 7.33342 13.5035 7.33342H9.50684V3.33341Z" fill="#656F7D"/>
</svg>
