<svg width="16" height="16" viewBox="0 0 16 16" fill="none" xmlns="http://www.w3.org/2000/svg">
<path fill-rule="evenodd" clip-rule="evenodd" d="M7.99997 11.3333C7.82318 11.3332 7.65363 11.263 7.52864 11.1379L3.52864 7.13792C3.4072 7.01218 3.34 6.84378 3.34152 6.66898C3.34304 6.49419 3.41315 6.32698 3.53676 6.20337C3.66037 6.07977 3.82757 6.00965 4.00237 6.00814C4.17717 6.00662 4.34557 6.07381 4.47131 6.19525L7.99997 9.72392L11.5286 6.19525C11.6544 6.07381 11.8228 6.00662 11.9976 6.00814C12.1724 6.00965 12.3396 6.07977 12.4632 6.20337C12.5868 6.32698 12.6569 6.49419 12.6584 6.66898C12.6599 6.84378 12.5927 7.01218 12.4713 7.13792L8.47131 11.1379C8.34631 11.263 8.17677 11.3332 7.99997 11.3333Z" fill="#656F7D"/>
</svg>
