<svg width="15" height="14" viewBox="0 0 15 14" fill="none" xmlns="http://www.w3.org/2000/svg">
<path fill-rule="evenodd" clip-rule="evenodd" d="M4.54756 4.66675C4.85698 4.66675 5.15372 4.54383 5.37252 4.32504C5.59131 4.10625 5.71423 3.8095 5.71423 3.50008C5.71423 3.19066 5.59131 2.89392 5.37252 2.67512C5.15372 2.45633 4.85698 2.33342 4.54756 2.33342C4.23814 2.33342 3.94139 2.45633 3.7226 2.67512C3.50381 2.89392 3.38089 3.19066 3.38089 3.50008C3.38089 3.8095 3.50381 4.10625 3.7226 4.32504C3.94139 4.54383 4.23814 4.66675 4.54756 4.66675ZM5.13089 5.75992C5.67951 5.61657 6.1572 5.27845 6.47478 4.80869C6.79235 4.33893 6.92809 3.76964 6.85665 3.20712C6.78521 2.6446 6.51147 2.12732 6.08656 1.75185C5.66164 1.37638 5.11459 1.1684 4.54756 1.16675C3.97924 1.16619 3.43025 1.37306 3.00364 1.74855C2.57702 2.12404 2.30211 2.64232 2.23051 3.20611C2.15891 3.7699 2.29554 4.34045 2.61475 4.81065C2.93396 5.28086 3.41381 5.6184 3.96423 5.75992V7.58342C3.96423 8.51167 4.33297 9.40191 4.98935 10.0583C5.64573 10.7147 6.53597 11.0834 7.46423 11.0834H8.41273C8.55607 11.632 8.89419 12.1097 9.36395 12.4273C9.83371 12.7449 10.403 12.8806 10.9655 12.8092C11.528 12.7377 12.0453 12.464 12.4208 12.0391C12.7963 11.6142 13.0042 11.0671 13.0059 10.5001C13.0065 9.93176 12.7996 9.38277 12.4241 8.95616C12.0486 8.52954 11.5303 8.25464 10.9665 8.18304C10.4027 8.11143 9.8322 8.24806 9.36199 8.56727C8.89178 8.88648 8.55424 9.36633 8.41273 9.91675H7.46423C6.84539 9.91675 6.25189 9.67092 5.81431 9.23333C5.37672 8.79575 5.13089 8.20225 5.13089 7.58342V5.75992ZM10.6726 11.6667C10.982 11.6667 11.2787 11.5438 11.4975 11.325C11.7163 11.1062 11.8392 10.8095 11.8392 10.5001C11.8392 10.1907 11.7163 9.89392 11.4975 9.67512C11.2787 9.45633 10.982 9.33342 10.6726 9.33342C10.3631 9.33342 10.0664 9.45633 9.8476 9.67512C9.62881 9.89392 9.50589 10.1907 9.50589 10.5001C9.50589 10.8095 9.62881 11.1062 9.8476 11.325C10.0664 11.5438 10.3631 11.6667 10.6726 11.6667Z" fill="#656F7D"/>
</svg>
