<svg width="16" height="16" viewBox="0 0 16 16" fill="none" xmlns="http://www.w3.org/2000/svg">
<path d="M3.33333 4.66667C3.68696 4.66667 4.02609 4.52619 4.27614 4.27614C4.52619 4.02609 4.66667 3.68696 4.66667 3.33333C4.66667 2.97971 4.52619 2.64057 4.27614 2.39052C4.02609 2.14048 3.68696 2 3.33333 2C2.97971 2 2.64057 2.14048 2.39052 2.39052C2.14048 2.64057 2 2.97971 2 3.33333C2 3.68696 2.14048 4.02609 2.39052 4.27614C2.64057 4.52619 2.97971 4.66667 3.33333 4.66667ZM9.33333 3.33333C9.33333 3.68696 9.19286 4.02609 8.94281 4.27614C8.69276 4.52619 8.35362 4.66667 8 4.66667C7.64638 4.66667 7.30724 4.52619 7.05719 4.27614C6.80714 4.02609 6.66667 3.68696 6.66667 3.33333C6.66667 2.97971 6.80714 2.64057 7.05719 2.39052C7.30724 2.14048 7.64638 2 8 2C8.35362 2 8.69276 2.14048 8.94281 2.39052C9.19286 2.64057 9.33333 2.97971 9.33333 3.33333ZM14 3.33333C14 3.68696 13.8595 4.02609 13.6095 4.27614C13.3594 4.52619 13.0203 4.66667 12.6667 4.66667C12.313 4.66667 11.9739 4.52619 11.7239 4.27614C11.4738 4.02609 11.3333 3.68696 11.3333 3.33333C11.3333 2.97971 11.4738 2.64057 11.7239 2.39052C11.9739 2.14048 12.313 2 12.6667 2C13.0203 2 13.3594 2.14048 13.6095 2.39052C13.8595 2.64057 14 2.97971 14 3.33333ZM14 8C14 8.35362 13.8595 8.69276 13.6095 8.94281C13.3594 9.19286 13.0203 9.33333 12.6667 9.33333C12.313 9.33333 11.9739 9.19286 11.7239 8.94281C11.4738 8.69276 11.3333 8.35362 11.3333 8C11.3333 7.64638 11.4738 7.30724 11.7239 7.05719C11.9739 6.80714 12.313 6.66667 12.6667 6.66667C13.0203 6.66667 13.3594 6.80714 13.6095 7.05719C13.8595 7.30724 14 7.64638 14 8ZM8 9.33333C8.35362 9.33333 8.69276 9.19286 8.94281 8.94281C9.19286 8.69276 9.33333 8.35362 9.33333 8C9.33333 7.64638 9.19286 7.30724 8.94281 7.05719C8.69276 6.80714 8.35362 6.66667 8 6.66667C7.64638 6.66667 7.30724 6.80714 7.05719 7.05719C6.80714 7.30724 6.66667 7.64638 6.66667 8C6.66667 8.35362 6.80714 8.69276 7.05719 8.94281C7.30724 9.19286 7.64638 9.33333 8 9.33333ZM4.66667 8C4.66667 8.35362 4.52619 8.69276 4.27614 8.94281C4.02609 9.19286 3.68696 9.33333 3.33333 9.33333C2.97971 9.33333 2.64057 9.19286 2.39052 8.94281C2.14048 8.69276 2 8.35362 2 8C2 7.64638 2.14048 7.30724 2.39052 7.05719C2.64057 6.80714 2.97971 6.66667 3.33333 6.66667C3.68696 6.66667 4.02609 6.80714 4.27614 7.05719C4.52619 7.30724 4.66667 7.64638 4.66667 8ZM12.6667 14C13.0203 14 13.3594 13.8595 13.6095 13.6095C13.8595 13.3594 14 13.0203 14 12.6667C14 12.313 13.8595 11.9739 13.6095 11.7239C13.3594 11.4738 13.0203 11.3333 12.6667 11.3333C12.313 11.3333 11.9739 11.4738 11.7239 11.7239C11.4738 11.9739 11.3333 12.313 11.3333 12.6667C11.3333 13.0203 11.4738 13.3594 11.7239 13.6095C11.9739 13.8595 12.313 14 12.6667 14ZM9.33333 12.6667C9.33333 13.0203 9.19286 13.3594 8.94281 13.6095C8.69276 13.8595 8.35362 14 8 14C7.64638 14 7.30724 13.8595 7.05719 13.6095C6.80714 13.3594 6.66667 13.0203 6.66667 12.6667C6.66667 12.313 6.80714 11.9739 7.05719 11.7239C7.30724 11.4738 7.64638 11.3333 8 11.3333C8.35362 11.3333 8.69276 11.4738 8.94281 11.7239C9.19286 11.9739 9.33333 12.313 9.33333 12.6667ZM3.33333 14C3.68696 14 4.02609 13.8595 4.27614 13.6095C4.52619 13.3594 4.66667 13.0203 4.66667 12.6667C4.66667 12.313 4.52619 11.9739 4.27614 11.7239C4.02609 11.4738 3.68696 11.3333 3.33333 11.3333C2.97971 11.3333 2.64057 11.4738 2.39052 11.7239C2.14048 11.9739 2 12.313 2 12.6667C2 13.0203 2.14048 13.3594 2.39052 13.6095C2.64057 13.8595 2.97971 14 3.33333 14Z" fill="white"/>
</svg>
