<svg width="18" height="18" viewBox="0 0 18 18" fill="none" xmlns="http://www.w3.org/2000/svg">
<path fill-rule="evenodd" clip-rule="evenodd" d="M3.6001 14.6375C3.05969 14.6375 2.54142 14.4228 2.1593 14.0407C1.77718 13.6586 1.5625 13.1403 1.5625 12.5999V5.3999C1.5625 4.8595 1.77718 4.34123 2.1593 3.9591C2.54142 3.57698 3.05969 3.3623 3.6001 3.3623H8.76322C9.30394 3.3623 9.82162 3.57686 10.2047 3.95918L11.7671 5.5223H13.6801C14.2205 5.5223 14.7388 5.73698 15.1209 6.1191C15.503 6.50123 15.7177 7.0195 15.7177 7.5599V7.6823H16.1151C16.3398 7.68224 16.5608 7.73963 16.757 7.84901C16.9532 7.95839 17.1182 8.11614 17.2363 8.30725C17.3545 8.49837 17.4217 8.71651 17.4318 8.94095C17.4418 9.16539 17.3943 9.38868 17.2938 9.58958L15.3325 13.5114C15.1632 13.8498 14.9031 14.1344 14.5813 14.3333C14.2594 14.5322 13.8885 14.6375 13.5102 14.6375H3.6001ZM14.5225 7.6823V7.5599C14.5225 7.33649 14.4337 7.12222 14.2758 6.96424C14.1178 6.80626 13.9035 6.7175 13.6801 6.7175H11.5201C11.4416 6.71752 11.3639 6.70208 11.2914 6.67206C11.2189 6.64204 11.153 6.59803 11.0975 6.54254L9.35938 4.80446C9.28112 4.72614 9.18818 4.66401 9.08588 4.62164C8.98359 4.57926 8.87394 4.55747 8.76322 4.5575H3.6001C3.37668 4.5575 3.16241 4.64626 3.00443 4.80424C2.84645 4.96222 2.7577 5.17649 2.7577 5.3999V12.5999C2.7577 12.6921 2.7721 12.7813 2.80018 12.8641L5.02642 8.41094C5.13582 8.19201 5.30404 8.00787 5.51222 7.87917C5.7204 7.75047 5.96031 7.68231 6.20506 7.6823H14.5225ZM3.84706 13.4423L6.09562 8.94518C6.10578 8.92486 6.1214 8.90776 6.14073 8.8958C6.16006 8.88385 6.18233 8.87751 6.20506 8.8775H16.1151C16.136 8.87751 16.1565 8.88285 16.1747 8.89301C16.1929 8.90317 16.2083 8.91782 16.2192 8.93557C16.2302 8.95331 16.2364 8.97356 16.2374 8.9944C16.2383 9.01524 16.2339 9.03597 16.2246 9.05463L14.2633 12.9765C14.1934 13.1164 14.0859 13.2341 13.9529 13.3163C13.8199 13.3986 13.6666 13.4422 13.5102 13.4423H3.84706Z" fill="#4F5762"/>
</svg>
