<svg width="17" height="16" viewBox="0 0 17 16" fill="none" xmlns="http://www.w3.org/2000/svg">
<path fill-rule="evenodd" clip-rule="evenodd" d="M8.2299 2.66659C6.81541 2.66659 5.45886 3.22849 4.45866 4.22868C3.45847 5.22888 2.89657 6.58543 2.89657 7.99992C2.89657 9.41441 3.45847 10.771 4.45866 11.7712C5.45886 12.7713 6.81541 13.3333 8.2299 13.3333C9.64439 13.3333 11.0009 12.7713 12.0011 11.7712C13.0013 10.771 13.5632 9.41441 13.5632 7.99992C13.5632 6.58543 13.0013 5.22888 12.0011 4.22868C11.0009 3.22849 9.64439 2.66659 8.2299 2.66659ZM1.56323 7.99992C1.56323 4.31792 4.5479 1.33325 8.2299 1.33325C11.9119 1.33325 14.8966 4.31792 14.8966 7.99992C14.8966 11.6819 11.9119 14.6666 8.2299 14.6666C4.5479 14.6666 1.56323 11.6819 1.56323 7.99992ZM8.2299 4.74059C8.40671 4.74059 8.57628 4.81082 8.7013 4.93585C8.82633 5.06087 8.89657 5.23044 8.89657 5.40725V7.33325H10.9706C11.1474 7.33325 11.3169 7.40349 11.442 7.52851C11.567 7.65354 11.6372 7.82311 11.6372 7.99992C11.6372 8.17673 11.567 8.3463 11.442 8.47132C11.3169 8.59635 11.1474 8.66659 10.9706 8.66659H8.89657V10.7406C8.89657 10.9174 8.82633 11.087 8.7013 11.212C8.57628 11.337 8.40671 11.4073 8.2299 11.4073C8.05309 11.4073 7.88352 11.337 7.75849 11.212C7.63347 11.087 7.56323 10.9174 7.56323 10.7406V8.66659H5.63723C5.46042 8.66659 5.29085 8.59635 5.16583 8.47132C5.0408 8.3463 4.97057 8.17673 4.97057 7.99992C4.97057 7.82311 5.0408 7.65354 5.16583 7.52851C5.29085 7.40349 5.46042 7.33325 5.63723 7.33325H7.56323V5.40725C7.56323 5.23044 7.63347 5.06087 7.75849 4.93585C7.88352 4.81082 8.05309 4.74059 8.2299 4.74059Z" fill="white"/>
</svg>
