<svg width="15" height="14" viewBox="0 0 15 14" fill="none" xmlns="http://www.w3.org/2000/svg">
<path fill-rule="evenodd" clip-rule="evenodd" d="M5.48754 4.08343C5.34993 4.4728 5.0791 4.80099 4.72291 5.00998C4.36672 5.21896 3.94811 5.2953 3.54108 5.22549C3.13405 5.15568 2.76481 4.94422 2.49862 4.62848C2.23243 4.31275 2.08643 3.91307 2.08643 3.5001C2.08643 3.08713 2.23243 2.68745 2.49862 2.37171C2.76481 2.05598 3.13405 1.84452 3.54108 1.77471C3.94811 1.7049 4.36672 1.78123 4.72291 1.99022C5.0791 2.19921 5.34993 2.52739 5.48754 2.91677H13.17C13.3248 2.91677 13.4731 2.97822 13.5825 3.08762C13.6919 3.19702 13.7534 3.34539 13.7534 3.5001C13.7534 3.65481 13.6919 3.80318 13.5825 3.91258C13.4731 4.02197 13.3248 4.08343 13.17 4.08343H5.48754ZM4.42004 3.5001C4.42004 3.65481 4.35859 3.80318 4.24919 3.91258C4.13979 4.02197 3.99142 4.08343 3.83671 4.08343C3.682 4.08343 3.53363 4.02197 3.42423 3.91258C3.31484 3.80318 3.25338 3.65481 3.25338 3.5001C3.25338 3.34539 3.31484 3.19702 3.42423 3.08762C3.53363 2.97822 3.682 2.91677 3.83671 2.91677C3.99142 2.91677 4.13979 2.97822 4.24919 3.08762C4.35859 3.19702 4.42004 3.34539 4.42004 3.5001ZM2.67004 6.41677C2.51533 6.41677 2.36696 6.47822 2.25756 6.58762C2.14817 6.69702 2.08671 6.84539 2.08671 7.0001C2.08671 7.15481 2.14817 7.30318 2.25756 7.41258C2.36696 7.52197 2.51533 7.58343 2.67004 7.58343H9.18588C9.3064 7.92499 9.52989 8.22076 9.82556 8.42997C10.1212 8.63918 10.4745 8.75153 10.8367 8.75153C11.1989 8.75153 11.5522 8.63918 11.8479 8.42997C12.1435 8.22076 12.367 7.92499 12.4875 7.58343H13.17C13.3248 7.58343 13.4731 7.52197 13.5825 7.41258C13.6919 7.30318 13.7534 7.15481 13.7534 7.0001C13.7534 6.84539 13.6919 6.69702 13.5825 6.58762C13.4731 6.47822 13.3248 6.41677 13.17 6.41677H12.4875C12.367 6.0752 12.1435 5.77943 11.8479 5.57023C11.5522 5.36102 11.1989 5.24867 10.8367 5.24867C10.4745 5.24867 10.1212 5.36102 9.82556 5.57023C9.52989 5.77943 9.3064 6.0752 9.18588 6.41677H2.67004ZM10.8367 7.58343C10.9914 7.58343 11.1398 7.52197 11.2492 7.41258C11.3586 7.30318 11.42 7.15481 11.42 7.0001C11.42 6.84539 11.3586 6.69702 11.2492 6.58762C11.1398 6.47822 10.9914 6.41677 10.8367 6.41677C10.682 6.41677 10.5336 6.47822 10.4242 6.58762C10.3148 6.69702 10.2534 6.84539 10.2534 7.0001C10.2534 7.15481 10.3148 7.30318 10.4242 7.41258C10.5336 7.52197 10.682 7.58343 10.8367 7.58343ZM2.67004 9.91677C2.51533 9.91677 2.36696 9.97822 2.25756 10.0876C2.14817 10.197 2.08671 10.3454 2.08671 10.5001C2.08671 10.6548 2.14817 10.8032 2.25756 10.9126C2.36696 11.022 2.51533 11.0834 2.67004 11.0834H4.51921C4.64 11.4247 4.86359 11.7202 5.15923 11.9292C5.45487 12.1382 5.80801 12.2504 6.17004 12.2504C6.53208 12.2504 6.88522 12.1382 7.18086 11.9292C7.47649 11.7202 7.70009 11.4247 7.82088 11.0834H13.17C13.3248 11.0834 13.4731 11.022 13.5825 10.9126C13.6919 10.8032 13.7534 10.6548 13.7534 10.5001C13.7534 10.3454 13.6919 10.197 13.5825 10.0876C13.4731 9.97822 13.3248 9.91677 13.17 9.91677H7.82088C7.70036 9.5752 7.47686 9.27943 7.18119 9.07023C6.88553 8.86102 6.53224 8.74867 6.17004 8.74867C5.80784 8.74867 5.45456 8.86102 5.15889 9.07023C4.86322 9.27943 4.63973 9.5752 4.51921 9.91677H2.67004ZM6.75338 10.5001C6.75338 10.6548 6.69192 10.8032 6.58252 10.9126C6.47313 11.022 6.32475 11.0834 6.17004 11.0834C6.01533 11.0834 5.86696 11.022 5.75756 10.9126C5.64817 10.8032 5.58671 10.6548 5.58671 10.5001C5.58671 10.3454 5.64817 10.197 5.75756 10.0876C5.86696 9.97822 6.01533 9.91677 6.17004 9.91677C6.32475 9.91677 6.47313 9.97822 6.58252 10.0876C6.69192 10.197 6.75338 10.3454 6.75338 10.5001Z" fill="#656F7D"/>
</svg>
