<svg width="16" height="16" viewBox="0 0 16 16" fill="none" xmlns="http://www.w3.org/2000/svg">
<path fill-rule="evenodd" clip-rule="evenodd" d="M5.33341 1.33325C5.51023 1.33325 5.6798 1.40349 5.80482 1.52851C5.92984 1.65354 6.00008 1.82311 6.00008 1.99992V2.66659H7.33342V1.99992C7.33342 1.82311 7.40365 1.65354 7.52868 1.52851C7.6537 1.40349 7.82327 1.33325 8.00008 1.33325C8.17689 1.33325 8.34646 1.40349 8.47149 1.52851C8.59651 1.65354 8.66675 1.82311 8.66675 1.99992V2.66659H10.0001V1.99992C10.0001 1.82311 10.0703 1.65354 10.1953 1.52851C10.3204 1.40349 10.4899 1.33325 10.6667 1.33325C10.8436 1.33325 11.0131 1.40349 11.1382 1.52851C11.2632 1.65354 11.3334 1.82311 11.3334 1.99992V2.66659C11.8638 2.66659 12.3726 2.8773 12.7476 3.25237C13.1227 3.62744 13.3334 4.13615 13.3334 4.66659V12.6666C13.3334 13.197 13.1227 13.7057 12.7476 14.0808C12.3726 14.4559 11.8638 14.6666 11.3334 14.6666H4.66675C4.13632 14.6666 3.62761 14.4559 3.25253 14.0808C2.87746 13.7057 2.66675 13.197 2.66675 12.6666V4.66659C2.66675 4.13615 2.87746 3.62744 3.25253 3.25237C3.62761 2.8773 4.13632 2.66659 4.66675 2.66659V1.99992C4.66675 1.82311 4.73699 1.65354 4.86201 1.52851C4.98703 1.40349 5.1566 1.33325 5.33341 1.33325ZM4.00008 4.66659C4.00008 4.48977 4.07032 4.32021 4.19534 4.19518C4.32037 4.07016 4.48994 3.99992 4.66675 3.99992H11.3334C11.5102 3.99992 11.6798 4.07016 11.8048 4.19518C11.9298 4.32021 12.0001 4.48977 12.0001 4.66659V12.6666C12.0001 12.8434 11.9298 13.013 11.8048 13.138C11.6798 13.263 11.5102 13.3333 11.3334 13.3333H4.66675C4.48994 13.3333 4.32037 13.263 4.19534 13.138C4.07032 13.013 4.00008 12.8434 4.00008 12.6666V4.66659ZM7.33342 5.33325C7.1566 5.33325 6.98703 5.40349 6.86201 5.52851C6.73699 5.65354 6.66675 5.82311 6.66675 5.99992C6.66675 6.17673 6.73699 6.3463 6.86201 6.47132C6.98703 6.59635 7.1566 6.66659 7.33342 6.66659H10.0001C10.1769 6.66659 10.3465 6.59635 10.4715 6.47132C10.5965 6.3463 10.6667 6.17673 10.6667 5.99992C10.6667 5.82311 10.5965 5.65354 10.4715 5.52851C10.3465 5.40349 10.1769 5.33325 10.0001 5.33325H7.33342ZM10.6667 8.66659C10.6667 8.48977 10.5965 8.32021 10.4715 8.19518C10.3465 8.07016 10.1769 7.99992 10.0001 7.99992H6.00008C5.82327 7.99992 5.6537 8.07016 5.52868 8.19518C5.40365 8.32021 5.33341 8.48977 5.33341 8.66659C5.33341 8.8434 5.40365 9.01297 5.52868 9.13799C5.6537 9.26301 5.82327 9.33325 6.00008 9.33325H10.0001C10.1769 9.33325 10.3465 9.26301 10.4715 9.13799C10.5965 9.01297 10.6667 8.8434 10.6667 8.66659ZM10.0001 10.6666C10.1769 10.6666 10.3465 10.7368 10.4715 10.8618C10.5965 10.9869 10.6667 11.1564 10.6667 11.3333C10.6667 11.5101 10.5965 11.6796 10.4715 11.8047C10.3465 11.9297 10.1769 11.9999 10.0001 11.9999H6.00008C5.82327 11.9999 5.6537 11.9297 5.52868 11.8047C5.40365 11.6796 5.33341 11.5101 5.33341 11.3333C5.33341 11.1564 5.40365 10.9869 5.52868 10.8618C5.6537 10.7368 5.82327 10.6666 6.00008 10.6666H10.0001Z" fill="white"/>
</svg>
