<svg width="16" height="16" viewBox="0 0 16 16" fill="none" xmlns="http://www.w3.org/2000/svg">
<path fill-rule="evenodd" clip-rule="evenodd" d="M4.00008 1.99992C4.00008 1.82311 3.92984 1.65354 3.80482 1.52851C3.67979 1.40349 3.51023 1.33325 3.33341 1.33325C3.1566 1.33325 2.98703 1.40349 2.86201 1.52851C2.73699 1.65354 2.66675 1.82311 2.66675 1.99992V13.9999C2.66675 14.1767 2.73699 14.3463 2.86201 14.4713C2.98703 14.5963 3.1566 14.6666 3.33341 14.6666C3.51023 14.6666 3.67979 14.5963 3.80482 14.4713C3.92984 14.3463 4.00008 14.1767 4.00008 13.9999V9.99992H12.6667C12.7847 9.99994 12.9006 9.96867 13.0025 9.9093C13.1044 9.84992 13.1887 9.76457 13.2469 9.66195C13.305 9.55933 13.3349 9.44311 13.3335 9.32517C13.3321 9.20722 13.2994 9.09177 13.2387 8.99059L11.4441 5.99992L13.2387 3.00925C13.2994 2.90807 13.3321 2.79262 13.3335 2.67467C13.3349 2.55673 13.305 2.44051 13.2469 2.33789C13.1887 2.23527 13.1044 2.14992 13.0025 2.09054C12.9006 2.03117 12.7847 1.99989 12.6667 1.99992H4.00008ZM4.00008 3.33325V8.66659H11.4894L10.0947 6.34259C10.0327 6.23905 9.99994 6.12062 9.99994 5.99992C9.99994 5.87922 10.0327 5.76079 10.0947 5.65725L11.4901 3.33325H4.00008Z" fill="#87909E"/>
</svg>
