<svg width="16" height="16" viewBox="0 0 16 16" fill="none" xmlns="http://www.w3.org/2000/svg">
<path fill-rule="evenodd" clip-rule="evenodd" d="M3.69998 3.44191C3.46069 3.48416 3.23017 3.56618 3.01798 3.68458C2.82464 3.79858 2.46531 4.15791 2.35131 4.35125C2.22892 4.56985 2.1463 4.80844 2.10731 5.05591C2.07198 5.30458 2.07198 11.0952 2.10731 11.3439C2.16931 11.7699 2.33464 12.0932 2.65398 12.4126C2.97798 12.7366 3.30931 12.9039 3.73931 12.9599C3.99598 12.9932 9.73731 12.9932 9.99398 12.9599C10.2473 12.9232 10.492 12.8406 10.7153 12.7152C10.9086 12.6012 11.268 12.2419 11.382 12.0486C11.584 11.7046 11.652 11.3806 11.6526 10.7539L11.6533 10.3479L12.6733 10.8552C13.8193 11.4252 13.888 11.4486 14.2433 11.3899C14.4919 11.355 14.7215 11.2371 14.8946 11.0552C15.074 10.8746 15.1806 10.6752 15.2246 10.4386C15.264 10.2246 15.264 6.17525 15.2246 5.96125C15.1816 5.72633 15.0662 5.51073 14.8946 5.34458C14.7219 5.16378 14.4939 5.04557 14.2466 5.00858C13.8953 4.94858 13.82 4.97458 12.6733 5.54458L11.6533 6.05191L11.6526 5.64591C11.652 5.01925 11.584 4.69525 11.382 4.35125C11.268 4.15791 10.9086 3.79858 10.7153 3.68458C10.4967 3.56219 10.2581 3.47957 10.0106 3.44058C9.78464 3.40858 3.92331 3.40925 3.69998 3.44191ZM10.0066 4.63991C10.1866 4.70725 10.358 4.87858 10.4273 5.06191C10.4786 5.19658 10.48 5.27792 10.48 8.19991C10.48 11.1219 10.4786 11.2032 10.4273 11.3379C10.3888 11.4327 10.3318 11.5189 10.2595 11.5913C10.1873 11.6638 10.1013 11.7211 10.0066 11.7599C9.86798 11.8119 9.79464 11.8132 6.86664 11.8132C3.93864 11.8132 3.86531 11.8119 3.72664 11.7599C3.63197 11.7211 3.54599 11.6638 3.47376 11.5913C3.40152 11.5189 3.34448 11.4327 3.30598 11.3379C3.25464 11.2032 3.25331 11.1219 3.25331 8.20058C3.25331 5.27191 3.25464 5.19858 3.30664 5.05991C3.38482 4.87113 3.53395 4.72056 3.72198 4.64058C3.84864 4.59058 3.95598 4.58925 6.85864 4.58791C9.79598 4.58658 9.86798 4.58791 10.0066 4.63991ZM14.08 8.19991C14.08 9.32192 14.074 10.2399 14.0666 10.2399C14.0593 10.2399 13.5133 9.96991 12.8533 9.63991L11.6533 9.03992V7.35991L12.8466 6.76125C13.2486 6.55658 13.6533 6.35658 14.06 6.16125C14.0713 6.16058 14.08 7.07791 14.08 8.19991Z" fill="white"/>
</svg>
