<svg width="17" height="16" viewBox="0 0 17 16" fill="none" xmlns="http://www.w3.org/2000/svg">
<path fill-rule="evenodd" clip-rule="evenodd" d="M9.52661 3.33341C9.52661 3.1566 9.45637 2.98703 9.33135 2.86201C9.20633 2.73699 9.03676 2.66675 8.85994 2.66675C8.68313 2.66675 8.51356 2.73699 8.38854 2.86201C8.26352 2.98703 8.19328 3.1566 8.19328 3.33341V7.33342H4.19328C4.01647 7.33342 3.8469 7.40365 3.72187 7.52868C3.59685 7.6537 3.52661 7.82327 3.52661 8.00008C3.52661 8.17689 3.59685 8.34646 3.72187 8.47149C3.8469 8.59651 4.01647 8.66675 4.19328 8.66675H8.19328V12.6634C8.19328 12.8402 8.26352 13.0098 8.38854 13.1348C8.51356 13.2598 8.68313 13.3301 8.85994 13.3301C9.03676 13.3301 9.20633 13.2598 9.33135 13.1348C9.45637 13.0098 9.52661 12.8402 9.52661 12.6634V8.66675H13.5233C13.7001 8.66675 13.8697 8.59651 13.9947 8.47149C14.1197 8.34646 14.1899 8.17689 14.1899 8.00008C14.1899 7.82327 14.1197 7.6537 13.9947 7.52868C13.8697 7.40365 13.7001 7.33342 13.5233 7.33342H9.52661V3.33341Z" fill="#656F7D"/>
</svg>
