<svg width="17" height="17" viewBox="0 0 17 17" fill="none" xmlns="http://www.w3.org/2000/svg">
<path fill-rule="evenodd" clip-rule="evenodd" d="M8.08998 3.05277C7.52949 3.05277 6.99195 3.27542 6.59563 3.67175C6.1993 4.06808 5.97665 4.60561 5.97665 5.1661C5.97665 5.72659 6.1993 6.26413 6.59563 6.66045C6.99195 7.05678 7.52949 7.27944 8.08998 7.27944C8.65047 7.27944 9.188 7.05678 9.58433 6.66045C9.98066 6.26413 10.2033 5.72659 10.2033 5.1661C10.2033 4.60561 9.98066 4.06808 9.58433 3.67175C9.188 3.27542 8.65047 3.05277 8.08998 3.05277ZM10.1433 7.64832C10.6538 7.22592 11.0216 6.65628 11.1964 6.01714C11.3712 5.37801 11.3445 4.7005 11.12 4.07708C10.8956 3.45365 10.4842 2.91467 9.94207 2.53368C9.39995 2.15269 8.75348 1.94824 8.09087 1.94824C7.42826 1.94824 6.78179 2.15269 6.23967 2.53368C5.69754 2.91467 5.28618 3.45365 5.0617 4.07708C4.83722 4.7005 4.81056 5.37801 4.98537 6.01714C5.16017 6.65628 5.52791 7.22592 6.03842 7.64832C4.87296 8.08214 3.87475 8.87378 3.18686 9.90978C2.49896 10.9458 2.15668 12.173 2.20909 13.4154C2.21798 13.627 2.34598 13.8154 2.54065 13.8999C4.57602 14.788 6.79522 15.1734 9.01087 15.0234C9.15509 15.0107 9.2886 14.9421 9.38281 14.8322C9.47702 14.7222 9.52444 14.5798 9.51491 14.4353C9.50538 14.2909 9.43966 14.1559 9.33182 14.0593C9.22399 13.9627 9.08261 13.9122 8.93798 13.9185C7.01891 14.0486 5.09528 13.7426 3.31131 13.0234C3.33882 12.1016 3.63237 11.2075 4.15657 10.4487C4.68078 9.68998 5.41326 9.09906 6.26571 8.7472C7.11816 8.39534 8.05419 8.29756 8.96095 8.46565C9.86772 8.63374 10.7065 9.06052 11.3762 9.69455C11.429 9.74451 11.491 9.78359 11.5589 9.80955C11.6268 9.83552 11.6991 9.84786 11.7717 9.84588C11.8444 9.8439 11.9159 9.82763 11.9823 9.79801C12.0486 9.76838 12.1085 9.72598 12.1584 9.67321C12.2084 9.62045 12.2475 9.55836 12.2734 9.4905C12.2994 9.42263 12.3117 9.35032 12.3098 9.27768C12.3078 9.20505 12.2915 9.13351 12.2619 9.06716C12.2323 9.00082 12.1899 8.94095 12.1371 8.89099C11.5625 8.34668 10.8841 7.92374 10.1424 7.64744L10.1433 7.64832ZM12.7566 10.6128C13.0624 10.6128 13.3104 10.8617 13.3104 11.1665V12.6128H14.7566C14.9034 12.6128 15.0441 12.6711 15.1479 12.7748C15.2517 12.8786 15.31 13.0193 15.31 13.1661C15.31 13.3129 15.2517 13.4536 15.1479 13.5574C15.0441 13.6611 14.9034 13.7194 14.7566 13.7194H13.3104V15.1665C13.3104 15.3133 13.2521 15.454 13.1484 15.5578C13.0446 15.6616 12.9038 15.7199 12.7571 15.7199C12.6103 15.7199 12.4696 15.6616 12.3658 15.5578C12.2621 15.454 12.2038 15.3133 12.2038 15.1665V13.7194H10.7566C10.6099 13.7194 10.4692 13.6611 10.3654 13.5574C10.2616 13.4536 10.2033 13.3129 10.2033 13.1661C10.2033 13.0193 10.2616 12.8786 10.3654 12.7748C10.4692 12.6711 10.6099 12.6128 10.7566 12.6128H12.2038V11.1665C12.2038 10.8608 12.4518 10.6128 12.7566 10.6128Z" fill="#2A2E34"/>
</svg>
