<svg width="14" height="14" viewBox="0 0 14 14" fill="none" xmlns="http://www.w3.org/2000/svg">
<path fill-rule="evenodd" clip-rule="evenodd" d="M3.77419 5.23251C3.85622 5.15058 3.96742 5.10456 4.08336 5.10456C4.19929 5.10456 4.31049 5.15058 4.39252 5.23251L7.00002 7.84001L9.60752 5.23251C9.64757 5.18952 9.69587 5.15505 9.74954 5.13114C9.80321 5.10722 9.86114 5.09437 9.91988 5.09333C9.97863 5.09229 10.037 5.1031 10.0915 5.1251C10.1459 5.14711 10.1954 5.17986 10.237 5.2214C10.2785 5.26295 10.3113 5.31243 10.3333 5.36691C10.3553 5.42139 10.3661 5.47974 10.365 5.53848C10.364 5.59722 10.3511 5.65516 10.3272 5.70882C10.3033 5.76249 10.2688 5.81079 10.2259 5.85084L7.30919 8.76751C7.22716 8.84944 7.11596 8.89546 7.00002 8.89546C6.88408 8.89546 6.77289 8.84944 6.69086 8.76751L3.77419 5.85084C3.69226 5.76881 3.64624 5.65761 3.64624 5.54168C3.64624 5.42574 3.69226 5.31454 3.77419 5.23251Z" fill="#4F5762"/>
</svg>
