<svg width="18" height="18" viewBox="0 0 18 18" fill="none" xmlns="http://www.w3.org/2000/svg">
<path d="M3.375 6.375C3.52274 6.375 3.66903 6.3459 3.80552 6.28936C3.94201 6.23283 4.06603 6.14996 4.1705 6.0455C4.27496 5.94103 4.35783 5.81701 4.41436 5.68052C4.4709 5.54403 4.5 5.39774 4.5 5.25C4.5 5.10226 4.4709 4.95597 4.41436 4.81948C4.35783 4.68299 4.27496 4.55897 4.1705 4.4545C4.06603 4.35004 3.94201 4.26717 3.80552 4.21064C3.66903 4.1541 3.52274 4.125 3.375 4.125C3.07663 4.125 2.79048 4.24353 2.5795 4.4545C2.36853 4.66548 2.25 4.95163 2.25 5.25C2.25 5.54837 2.36853 5.83452 2.5795 6.0455C2.79048 6.25647 3.07663 6.375 3.375 6.375ZM6 4.6275C5.8349 4.6275 5.67657 4.69308 5.55983 4.80983C5.44308 4.92657 5.3775 5.0849 5.3775 5.25C5.3775 5.4151 5.44308 5.57343 5.55983 5.69017C5.67657 5.80692 5.8349 5.8725 6 5.8725H15C15.1651 5.8725 15.3234 5.80692 15.4402 5.69017C15.5569 5.57343 15.6225 5.4151 15.6225 5.25C15.6225 5.0849 15.5569 4.92657 15.4402 4.80983C15.3234 4.69308 15.1651 4.6275 15 4.6275H6ZM6 8.3775C5.8349 8.3775 5.67657 8.44308 5.55983 8.55983C5.44308 8.67657 5.3775 8.8349 5.3775 9C5.3775 9.1651 5.44308 9.32343 5.55983 9.44017C5.67657 9.55692 5.8349 9.6225 6 9.6225H15C15.0817 9.6225 15.1627 9.6064 15.2382 9.57512C15.3137 9.54383 15.3824 9.49798 15.4402 9.44017C15.498 9.38237 15.5438 9.31375 15.5751 9.23822C15.6064 9.16269 15.6225 9.08175 15.6225 9C15.6225 8.91825 15.6064 8.83731 15.5751 8.76178C15.5438 8.68625 15.498 8.61763 15.4402 8.55983C15.3824 8.50202 15.3137 8.45617 15.2382 8.42488C15.1627 8.3936 15.0817 8.3775 15 8.3775H6ZM6 12.1275C5.8349 12.1275 5.67657 12.1931 5.55983 12.3098C5.44308 12.4266 5.3775 12.5849 5.3775 12.75C5.3775 12.9151 5.44308 13.0734 5.55983 13.1902C5.67657 13.3069 5.8349 13.3725 6 13.3725H15C15.1651 13.3725 15.3234 13.3069 15.4402 13.1902C15.5569 13.0734 15.6225 12.9151 15.6225 12.75C15.6225 12.5849 15.5569 12.4266 15.4402 12.3098C15.3234 12.1931 15.1651 12.1275 15 12.1275H6ZM4.5 9C4.5 9.29837 4.38147 9.58452 4.1705 9.7955C3.95952 10.0065 3.67337 10.125 3.375 10.125C3.07663 10.125 2.79048 10.0065 2.5795 9.7955C2.36853 9.58452 2.25 9.29837 2.25 9C2.25 8.70163 2.36853 8.41548 2.5795 8.2045C2.79048 7.99353 3.07663 7.875 3.375 7.875C3.67337 7.875 3.95952 7.99353 4.1705 8.2045C4.38147 8.41548 4.5 8.70163 4.5 9ZM3.375 13.875C3.67337 13.875 3.95952 13.7565 4.1705 13.5455C4.38147 13.3345 4.5 13.0484 4.5 12.75C4.5 12.4516 4.38147 12.1655 4.1705 11.9545C3.95952 11.7435 3.67337 11.625 3.375 11.625C3.07663 11.625 2.79048 11.7435 2.5795 11.9545C2.36853 12.1655 2.25 12.4516 2.25 12.75C2.25 13.0484 2.36853 13.3345 2.5795 13.5455C2.79048 13.7565 3.07663 13.875 3.375 13.875Z" fill="#FFC955"/>
</svg>
