<svg width="16" height="16" viewBox="0 0 16 16" fill="none" xmlns="http://www.w3.org/2000/svg">
<g clip-path="url(#clip0_44_418)">
<path d="M15.335 8.00004C15.335 3.94903 12.051 0.665039 8.00004 0.665039C3.94903 0.665039 0.665039 3.94903 0.665039 8.00004C0.665039 12.051 3.94903 15.335 8.00004 15.335C12.051 15.335 15.335 12.051 15.335 8.00004Z" fill="white"/>
<path d="M8 13C10.7614 13 13 10.7614 13 8C13 5.23858 10.7614 3 8 3C5.23858 3 3 5.23858 3 8C3 10.7614 5.23858 13 8 13Z" fill="#87909E"/>
<path d="M15.335 8.00004C15.335 3.94903 12.051 0.665039 8.00004 0.665039C3.94903 0.665039 0.665039 3.94903 0.665039 8.00004C0.665039 12.051 3.94903 15.335 8.00004 15.335C12.051 15.335 15.335 12.051 15.335 8.00004Z" stroke="#87909E" stroke-width="1.33"/>
</g>
<defs>
<clipPath id="clip0_44_418">
<rect width="16" height="16" fill="white"/>
</clipPath>
</defs>
</svg>
