<svg width="16" height="16" viewBox="0 0 16 16" fill="none" xmlns="http://www.w3.org/2000/svg">
<path fill-rule="evenodd" clip-rule="evenodd" d="M4.00008 3.33325C4.00008 3.15644 4.07032 2.98687 4.19534 2.86185C4.32037 2.73682 4.48994 2.66659 4.66675 2.66659H8.78141C8.95821 2.66662 9.12775 2.73689 9.25275 2.86192L11.8047 5.41392C11.9298 5.53891 12 5.70846 12.0001 5.88525V12.6666C12.0001 12.8434 11.9298 13.013 11.8048 13.138C11.6798 13.263 11.5102 13.3333 11.3334 13.3333H4.66675C4.48994 13.3333 4.32037 13.263 4.19534 13.138C4.07032 13.013 4.00008 12.8434 4.00008 12.6666V3.33325ZM4.66675 1.33325C4.13632 1.33325 3.62761 1.54397 3.25253 1.91904C2.87746 2.29411 2.66675 2.80282 2.66675 3.33325V12.6666C2.66675 13.197 2.87746 13.7057 3.25253 14.0808C3.62761 14.4559 4.13632 14.6666 4.66675 14.6666H11.3334C11.8638 14.6666 12.3726 14.4559 12.7476 14.0808C13.1227 13.7057 13.3334 13.197 13.3334 12.6666V5.88525C13.3331 5.35509 13.1224 4.84674 12.7474 4.47192L10.1954 1.91859C9.82032 1.54373 9.31171 1.33319 8.78141 1.33325H4.66675ZM6.00008 5.33325C5.82327 5.33325 5.6537 5.40349 5.52868 5.52851C5.40365 5.65354 5.33341 5.82311 5.33341 5.99992C5.33341 6.17673 5.40365 6.3463 5.52868 6.47132C5.6537 6.59635 5.82327 6.66659 6.00008 6.66659H8.00008C8.17689 6.66659 8.34646 6.59635 8.47149 6.47132C8.59651 6.3463 8.66675 6.17673 8.66675 5.99992C8.66675 5.82311 8.59651 5.65354 8.47149 5.52851C8.34646 5.40349 8.17689 5.33325 8.00008 5.33325H6.00008ZM6.00008 7.99992C5.82327 7.99992 5.6537 8.07016 5.52868 8.19518C5.40365 8.32021 5.33341 8.48977 5.33341 8.66659C5.33341 8.8434 5.40365 9.01297 5.52868 9.13799C5.6537 9.26301 5.82327 9.33325 6.00008 9.33325H10.0001C10.1769 9.33325 10.3465 9.26301 10.4715 9.13799C10.5965 9.01297 10.6667 8.8434 10.6667 8.66659C10.6667 8.48977 10.5965 8.32021 10.4715 8.19518C10.3465 8.07016 10.1769 7.99992 10.0001 7.99992H6.00008ZM5.33341 11.3333C5.33341 11.1564 5.40365 10.9869 5.52868 10.8618C5.6537 10.7368 5.82327 10.6666 6.00008 10.6666H10.0001C10.1769 10.6666 10.3465 10.7368 10.4715 10.8618C10.5965 10.9869 10.6667 11.1564 10.6667 11.3333C10.6667 11.5101 10.5965 11.6796 10.4715 11.8047C10.3465 11.9297 10.1769 11.9999 10.0001 11.9999H6.00008C5.82327 11.9999 5.6537 11.9297 5.52868 11.8047C5.40365 11.6796 5.33341 11.5101 5.33341 11.3333Z" fill="white"/>
</svg>
