<svg width="16" height="16" viewBox="0 0 16 16" fill="none" xmlns="http://www.w3.org/2000/svg">
<path fill-rule="evenodd" clip-rule="evenodd" d="M7.99992 2.66659C6.58543 2.66659 5.22888 3.22849 4.22868 4.22868C3.22849 5.22888 2.66659 6.58543 2.66659 7.99992C2.66659 9.41441 3.22849 10.771 4.22868 11.7712C5.22888 12.7713 6.58543 13.3333 7.99992 13.3333C9.41441 13.3333 10.771 12.7713 11.7712 11.7712C12.7713 10.771 13.3333 9.41441 13.3333 7.99992C13.3333 6.58543 12.7713 5.22888 11.7712 4.22868C10.771 3.22849 9.41441 2.66659 7.99992 2.66659ZM1.33325 7.99992C1.33325 4.31792 4.31792 1.33325 7.99992 1.33325C11.6819 1.33325 14.6666 4.31792 14.6666 7.99992C14.6666 11.6819 11.6819 14.6666 7.99992 14.6666C4.31792 14.6666 1.33325 11.6819 1.33325 7.99992ZM7.99992 4.74059C8.17673 4.74059 8.3463 4.81082 8.47132 4.93585C8.59635 5.06087 8.66659 5.23044 8.66659 5.40725V7.33325H10.7406C10.9174 7.33325 11.087 7.40349 11.212 7.52851C11.337 7.65354 11.4073 7.82311 11.4073 7.99992C11.4073 8.17673 11.337 8.3463 11.212 8.47132C11.087 8.59635 10.9174 8.66659 10.7406 8.66659H8.66659V10.7406C8.66659 10.9174 8.59635 11.087 8.47132 11.212C8.3463 11.337 8.17673 11.4073 7.99992 11.4073C7.82311 11.4073 7.65354 11.337 7.52851 11.212C7.40349 11.087 7.33325 10.9174 7.33325 10.7406V8.66659H5.40725C5.23044 8.66659 5.06087 8.59635 4.93585 8.47132C4.81082 8.3463 4.74059 8.17673 4.74059 7.99992C4.74059 7.82311 4.81082 7.65354 4.93585 7.52851C5.06087 7.40349 5.23044 7.33325 5.40725 7.33325H7.33325V5.40725C7.33325 5.23044 7.40349 5.06087 7.52851 4.93585C7.65354 4.81082 7.82311 4.74059 7.99992 4.74059Z" fill="#656F7D"/>
</svg>
