<svg width="16" height="16" viewBox="0 0 16 16" fill="none" xmlns="http://www.w3.org/2000/svg">
<path fill-rule="evenodd" clip-rule="evenodd" d="M4.66667 0.666748C4.84348 0.666748 5.01305 0.736986 5.13807 0.86201C5.2631 0.987034 5.33333 1.1566 5.33333 1.33341V2.00008H10.6667V1.33341C10.6667 1.1566 10.7369 0.987034 10.8619 0.86201C10.987 0.736986 11.1565 0.666748 11.3333 0.666748C11.5101 0.666748 11.6797 0.736986 11.8047 0.86201C11.9298 0.987034 12 1.1566 12 1.33341V2.08408C13.15 2.38008 14 3.42408 14 4.66675V8.00008C14 8.17689 13.9298 8.34646 13.8047 8.47149C13.6797 8.59651 13.5101 8.66675 13.3333 8.66675C13.1565 8.66675 12.987 8.59651 12.8619 8.47149C12.7369 8.34646 12.6667 8.17689 12.6667 8.00008V6.66675H3.33333V11.3334C3.33333 11.687 3.47381 12.0262 3.72386 12.2762C3.97391 12.5263 4.31304 12.6667 4.66667 12.6667H6C6.17681 12.6667 6.34638 12.737 6.4714 12.862C6.59643 12.987 6.66667 13.1566 6.66667 13.3334C6.66667 13.5102 6.59643 13.6798 6.4714 13.8048C6.34638 13.9298 6.17681 14.0001 6 14.0001H4.66667C3.95942 14.0001 3.28115 13.7191 2.78105 13.219C2.28095 12.7189 2 12.0407 2 11.3334V4.66675C2.00008 4.0755 2.19655 3.50103 2.55855 3.03356C2.92056 2.56609 3.42759 2.23211 4 2.08408V1.33341C4 1.1566 4.07024 0.987034 4.19526 0.86201C4.32029 0.736986 4.48986 0.666748 4.66667 0.666748ZM3.33333 5.33342H12.6667V4.66675C12.6667 4.31313 12.5262 3.97399 12.2761 3.72394C12.0261 3.47389 11.687 3.33341 11.3333 3.33341H4.66667C4.31304 3.33341 3.97391 3.47389 3.72386 3.72394C3.47381 3.97399 3.33333 4.31313 3.33333 4.66675V5.33342ZM11.3333 9.00008C11.5101 9.00008 11.6797 9.07032 11.8047 9.19534C11.9298 9.32037 12 9.48994 12 9.66675V11.3334H13.6667C13.8435 11.3334 14.013 11.4037 14.1381 11.5287C14.2631 11.6537 14.3333 11.8233 14.3333 12.0001C14.3333 12.1769 14.2631 12.3465 14.1381 12.4715C14.013 12.5965 13.8435 12.6667 13.6667 12.6667H12V14.3334C12 14.5102 11.9298 14.6798 11.8047 14.8048C11.6797 14.9298 11.5101 15.0001 11.3333 15.0001C11.1565 15.0001 10.987 14.9298 10.8619 14.8048C10.7369 14.6798 10.6667 14.5102 10.6667 14.3334V12.6667H9C8.82319 12.6667 8.65362 12.5965 8.5286 12.4715C8.40357 12.3465 8.33333 12.1769 8.33333 12.0001C8.33333 11.8233 8.40357 11.6537 8.5286 11.5287C8.65362 11.4037 8.82319 11.3334 9 11.3334H10.6667V9.66675C10.6667 9.48994 10.7369 9.32037 10.8619 9.19534C10.987 9.07032 11.1565 9.00008 11.3333 9.00008Z" fill="#87909E"/>
</svg>
