<svg width="18" height="18" viewBox="0 0 18 18" fill="none" xmlns="http://www.w3.org/2000/svg">
<path fill-rule="evenodd" clip-rule="evenodd" d="M3.74994 2.37744C2.99244 2.37744 2.37744 2.99244 2.37744 3.74994V7.12494C2.37744 7.88244 2.99244 8.49744 3.74994 8.49744H7.12494C7.88244 8.49744 8.49744 7.88244 8.49744 7.12494V3.74994C8.49744 2.99244 7.88244 2.37744 7.12494 2.37744H3.74994ZM3.62244 3.74994C3.62244 3.71613 3.63587 3.6837 3.65979 3.65979C3.6837 3.63587 3.71613 3.62244 3.74994 3.62244H7.12494C7.15876 3.62244 7.19119 3.63587 7.2151 3.65979C7.23901 3.6837 7.25244 3.71613 7.25244 3.74994V7.12494C7.25244 7.15876 7.23901 7.19119 7.2151 7.2151C7.19119 7.23901 7.15876 7.25244 7.12494 7.25244H3.74994C3.71613 7.25244 3.6837 7.23901 3.65979 7.2151C3.63587 7.19119 3.62244 7.15876 3.62244 7.12494V3.74994ZM10.8749 2.37744C10.1174 2.37744 9.50244 2.99244 9.50244 3.74994V7.12494C9.50244 7.88244 10.1174 8.49744 10.8749 8.49744H14.2499C15.0074 8.49744 15.6224 7.88244 15.6224 7.12494V3.74994C15.6224 2.99244 15.0074 2.37744 14.2499 2.37744H10.8749ZM10.7474 3.74994C10.7474 3.71613 10.7609 3.6837 10.7848 3.65979C10.8087 3.63587 10.8411 3.62244 10.8749 3.62244H14.2499C14.2838 3.62244 14.3162 3.63587 14.3401 3.65979C14.364 3.6837 14.3774 3.71613 14.3774 3.74994V7.12494C14.3774 7.15876 14.364 7.19119 14.3401 7.2151C14.3162 7.23901 14.2838 7.25244 14.2499 7.25244H10.8749C10.8411 7.25244 10.8087 7.23901 10.7848 7.2151C10.7609 7.19119 10.7474 7.15876 10.7474 7.12494V3.74994ZM9.50244 10.8749C9.50244 10.1174 10.1174 9.50244 10.8749 9.50244H14.2499C15.0074 9.50244 15.6224 10.1174 15.6224 10.8749V14.2499C15.6224 15.0074 15.0074 15.6224 14.2499 15.6224H10.8749C10.5109 15.6224 10.1618 15.4778 9.90444 15.2204C9.64704 14.9631 9.50244 14.614 9.50244 14.2499V10.8749ZM10.8749 10.7474C10.8411 10.7474 10.8087 10.7609 10.7848 10.7848C10.7609 10.8087 10.7474 10.8411 10.7474 10.8749V14.2499C10.7474 14.3204 10.8044 14.3774 10.8749 14.3774H14.2499C14.2838 14.3774 14.3162 14.364 14.3401 14.3401C14.364 14.3162 14.3774 14.2838 14.3774 14.2499V10.8749C14.3774 10.8411 14.364 10.8087 14.3401 10.7848C14.3162 10.7609 14.2838 10.7474 14.2499 10.7474H10.8749ZM3.74994 9.50244C2.99244 9.50244 2.37744 10.1174 2.37744 10.8749V14.2499C2.37744 15.0074 2.99244 15.6224 3.74994 15.6224H7.12494C7.88244 15.6224 8.49744 15.0074 8.49744 14.2499V10.8749C8.49744 10.1174 7.88244 9.50244 7.12494 9.50244H3.74994ZM3.62244 10.8749C3.62244 10.8411 3.63587 10.8087 3.65979 10.7848C3.6837 10.7609 3.71613 10.7474 3.74994 10.7474H7.12494C7.15876 10.7474 7.19119 10.7609 7.2151 10.7848C7.23901 10.8087 7.25244 10.8411 7.25244 10.8749V14.2499C7.25244 14.2838 7.23901 14.3162 7.2151 14.3401C7.19119 14.364 7.15876 14.3774 7.12494 14.3774H3.74994C3.71613 14.3774 3.6837 14.364 3.65979 14.3401C3.63587 14.3162 3.62244 14.2838 3.62244 14.2499V10.8749Z" fill="#4F5762"/>
</svg>
