<svg width="17" height="16" viewBox="0 0 17 16" fill="none" xmlns="http://www.w3.org/2000/svg">
<path fill-rule="evenodd" clip-rule="evenodd" d="M4.21981 13.3334C3.95738 13.3334 3.69753 13.2817 3.45511 13.1812C3.21268 13.0807 2.99246 12.9334 2.80701 12.7477C2.62157 12.562 2.47455 12.3415 2.37437 12.099C2.27418 11.8564 2.2228 11.5965 2.22315 11.3341V4.66408C2.22323 4.40159 2.27504 4.14169 2.37562 3.89922C2.47619 3.65676 2.62356 3.43649 2.80929 3.25101C2.99502 3.06552 3.21549 2.91845 3.45808 2.8182C3.70068 2.71795 3.96065 2.66649 4.22315 2.66675H7.55648C7.73328 2.66679 7.90282 2.73705 8.02781 2.86208L9.16581 4.00008H13.5565C14.0869 4.00008 14.5956 4.2108 14.9707 4.58587C15.3458 4.96094 15.5565 5.46965 15.5565 6.00008V11.3334C15.5565 12.4361 14.6658 13.3334 13.5598 13.3334H4.21981ZM3.55648 11.3341C3.55648 11.7041 3.85315 12.0001 4.21981 12.0001H13.5598C13.6472 12 13.7337 11.9827 13.8143 11.9491C13.895 11.9155 13.9682 11.8664 14.0298 11.8044C14.0915 11.7425 14.1403 11.669 14.1734 11.5882C14.2066 11.5074 14.2235 11.4208 14.2231 11.3334V6.00008C14.2231 5.82327 14.1529 5.6537 14.0279 5.52868C13.9029 5.40365 13.7333 5.33342 13.5565 5.33342H8.88981C8.71302 5.33338 8.54348 5.26312 8.41848 5.13808L7.28048 4.00008H4.22315C3.85315 4.00008 3.55648 4.29742 3.55648 4.66408V11.3341Z" fill="#2A2E34"/>
</svg>
