<svg width="20" height="20" viewBox="0 0 20 20" fill="none" xmlns="http://www.w3.org/2000/svg">
<path fill-rule="evenodd" clip-rule="evenodd" d="M9.52085 7.06997C8.31252 6.33413 6.80835 7.2283 6.80835 8.61497V13.0516C6.80835 14.4383 8.31335 15.3325 9.52085 14.5966L13.1608 12.3783C14.3133 11.6766 14.3133 9.98997 13.1608 9.2883L9.52085 7.06997ZM8.19168 8.61497C8.19168 8.2708 8.54668 8.09663 8.80002 8.2508L12.4417 10.4691C12.7083 10.6325 12.7083 11.0341 12.4417 11.1975L8.80002 13.4158C8.73744 13.4522 8.66625 13.4711 8.59386 13.4707C8.52147 13.4702 8.45053 13.4504 8.38842 13.4132C8.32631 13.376 8.2753 13.3228 8.2407 13.2593C8.2061 13.1957 8.18917 13.124 8.19168 13.0516V8.61497Z" fill="#4F5762"/>
<path fill-rule="evenodd" clip-rule="evenodd" d="M6.66668 0.141602C6.48324 0.141602 6.30731 0.214473 6.1776 0.344186C6.04789 0.473899 5.97502 0.649827 5.97502 0.833268C5.97502 1.01671 6.04789 1.19264 6.1776 1.32235C6.30731 1.45206 6.48324 1.52493 6.66668 1.52493H9.30835V2.66993C5.10835 3.0216 1.80835 6.54243 1.80835 10.8333C1.80835 15.3574 5.47585 19.0249 10 19.0249C14.5242 19.0249 18.1917 15.3574 18.1917 10.8333C18.1917 6.5416 14.8917 3.0216 10.6917 2.66993V1.52493H13.3333C13.5168 1.52493 13.6927 1.45206 13.8224 1.32235C13.9521 1.19264 14.025 1.01671 14.025 0.833268C14.025 0.649827 13.9521 0.473899 13.8224 0.344186C13.6927 0.214473 13.5168 0.141602 13.3333 0.141602H6.66668ZM3.19168 10.8333C3.19168 9.93919 3.36779 9.05386 3.70994 8.22783C4.05209 7.40181 4.55359 6.65126 5.1858 6.01905C5.81801 5.38684 6.56855 4.88534 7.39458 4.54319C8.2206 4.20104 9.10593 4.02493 10 4.02493C10.8941 4.02493 11.7794 4.20104 12.6055 4.54319C13.4315 4.88534 14.182 5.38684 14.8142 6.01905C15.4464 6.65126 15.9479 7.40181 16.2901 8.22783C16.6322 9.05386 16.8083 9.93919 16.8083 10.8333C16.8083 12.639 16.091 14.3707 14.8142 15.6475C13.5374 16.9243 11.8057 17.6416 10 17.6416C8.19433 17.6416 6.46261 16.9243 5.1858 15.6475C3.90899 14.3707 3.19168 12.639 3.19168 10.8333Z" fill="#4F5762"/>
</svg>
