<svg width="15" height="14" viewBox="0 0 15 14" fill="none" xmlns="http://www.w3.org/2000/svg">
<path d="M1.22739 4.08333C1.22739 3.92862 1.28885 3.78025 1.39824 3.67085C1.50764 3.56146 1.65601 3.5 1.81072 3.5H12.3096C12.4643 3.5 12.6126 3.56146 12.722 3.67085C12.8314 3.78025 12.8929 3.92862 12.8929 4.08333C12.8929 4.23804 12.8314 4.38642 12.722 4.49581C12.6126 4.60521 12.4643 4.66667 12.3096 4.66667H1.81014C1.65543 4.66667 1.50706 4.60521 1.39766 4.49581C1.28826 4.38642 1.22739 4.23804 1.22739 4.08333ZM3.19614 7.364C3.19614 7.20929 3.2576 7.06092 3.36699 6.95152C3.47639 6.84212 3.62476 6.78067 3.77947 6.78067H10.3414C10.4961 6.78067 10.6445 6.84212 10.7539 6.95152C10.8633 7.06092 10.9247 7.20929 10.9247 7.364C10.9247 7.51871 10.8633 7.66708 10.7539 7.77648C10.6445 7.88588 10.4961 7.94733 10.3414 7.94733H3.77947C3.62476 7.94733 3.47639 7.88588 3.36699 7.77648C3.2576 7.66708 3.19614 7.51871 3.19614 7.364ZM5.74764 10.0619C5.59293 10.0619 5.44456 10.1234 5.33516 10.2328C5.22576 10.3422 5.16431 10.4905 5.16431 10.6452C5.16431 10.8 5.22576 10.9483 5.33516 11.0577C5.44456 11.1671 5.59293 11.2286 5.74764 11.2286H8.37264C8.52735 11.2286 8.67572 11.1671 8.78512 11.0577C8.89451 10.9483 8.95597 10.8 8.95597 10.6452C8.95597 10.4905 8.89451 10.3422 8.78512 10.2328C8.67572 10.1234 8.52735 10.0619 8.37264 10.0619H5.74764Z" fill="#656F7D"/>
</svg>
