<svg width="16" height="17" viewBox="0 0 16 17" fill="none" xmlns="http://www.w3.org/2000/svg">
<path d="M12.8 9.56675C12.4817 9.56675 12.1765 9.44032 11.9515 9.21528C11.7264 8.99023 11.6 8.68501 11.6 8.36675C11.6 8.04849 11.7264 7.74326 11.9515 7.51822C12.1765 7.29318 12.4817 7.16675 12.8 7.16675C13.1183 7.16675 13.4235 7.29318 13.6485 7.51822C13.8736 7.74326 14 8.04849 14 8.36675C14 8.68501 13.8736 8.99023 13.6485 9.21528C13.4235 9.44032 13.1183 9.56675 12.8 9.56675ZM8 9.56675C7.68174 9.56675 7.37652 9.44032 7.15147 9.21528C6.92643 8.99023 6.8 8.68501 6.8 8.36675C6.8 8.04849 6.92643 7.74326 7.15147 7.51822C7.37652 7.29318 7.68174 7.16675 8 7.16675C8.31826 7.16675 8.62348 7.29318 8.84853 7.51822C9.07357 7.74326 9.2 8.04849 9.2 8.36675C9.2 8.68501 9.07357 8.99023 8.84853 9.21528C8.62348 9.44032 8.31826 9.56675 8 9.56675ZM3.2 9.56675C2.88174 9.56675 2.57652 9.44032 2.35147 9.21528C2.12643 8.99023 2 8.68501 2 8.36675C2 8.04849 2.12643 7.74326 2.35147 7.51822C2.57652 7.29318 2.88174 7.16675 3.2 7.16675C3.51826 7.16675 3.82348 7.29318 4.04853 7.51822C4.27357 7.74326 4.4 8.04849 4.4 8.36675C4.4 8.68501 4.27357 8.99023 4.04853 9.21528C3.82348 9.44032 3.51826 9.56675 3.2 9.56675Z" fill="#4F5762"/>
</svg>
