<svg width="16" height="17" viewBox="0 0 16 17" fill="none" xmlns="http://www.w3.org/2000/svg">
<path fill-rule="evenodd" clip-rule="evenodd" d="M8.66675 3.83341C8.66675 3.6566 8.59651 3.48703 8.47149 3.36201C8.34646 3.23699 8.17689 3.16675 8.00008 3.16675C7.82327 3.16675 7.6537 3.23699 7.52868 3.36201C7.40365 3.48703 7.33342 3.6566 7.33342 3.83341V7.83342H3.33341C3.1566 7.83342 2.98703 7.90365 2.86201 8.02868C2.73699 8.1537 2.66675 8.32327 2.66675 8.50008C2.66675 8.67689 2.73699 8.84646 2.86201 8.97149C2.98703 9.09651 3.1566 9.16675 3.33341 9.16675H7.33342V13.1634C7.33342 13.3402 7.40365 13.5098 7.52868 13.6348C7.6537 13.7598 7.82327 13.8301 8.00008 13.8301C8.17689 13.8301 8.34646 13.7598 8.47149 13.6348C8.59651 13.5098 8.66675 13.3402 8.66675 13.1634V9.16675H12.6634C12.8402 9.16675 13.0098 9.09651 13.1348 8.97149C13.2598 8.84646 13.3301 8.67689 13.3301 8.50008C13.3301 8.32327 13.2598 8.1537 13.1348 8.02868C13.0098 7.90365 12.8402 7.83342 12.6634 7.83342H8.66675V3.83341Z" fill="#87909E"/>
</svg>
