<svg width="17" height="16" viewBox="0 0 17 16" fill="none" xmlns="http://www.w3.org/2000/svg">
<path fill-rule="evenodd" clip-rule="evenodd" d="M8.75136 5.61938C8.43868 5.61938 8.12907 5.68097 7.84019 5.80063C7.55132 5.92028 7.28884 6.09567 7.06774 6.31676C6.84664 6.53786 6.67126 6.80034 6.5516 7.08922C6.43195 7.37809 6.37036 7.68771 6.37036 8.00038C6.37036 8.31306 6.43195 8.62268 6.5516 8.91155C6.67126 9.20043 6.84664 9.46291 7.06774 9.68401C7.28884 9.9051 7.55132 10.0805 7.84019 10.2001C8.12907 10.3198 8.43868 10.3814 8.75136 10.3814C9.38284 10.3814 9.98846 10.1305 10.435 9.68401C10.8815 9.23748 11.1324 8.63187 11.1324 8.00038C11.1324 7.3689 10.8815 6.76329 10.435 6.31676C9.98846 5.87024 9.38284 5.61938 8.75136 5.61938ZM7.70469 8.00005C7.70469 7.86251 7.73178 7.72632 7.78442 7.59925C7.83705 7.47219 7.9142 7.35673 8.01145 7.25948C8.10871 7.16222 8.22416 7.08507 8.35123 7.03244C8.4783 6.97981 8.61449 6.95272 8.75203 6.95272C8.88957 6.95272 9.02576 6.97981 9.15283 7.03244C9.27989 7.08507 9.39535 7.16222 9.4926 7.25948C9.58986 7.35673 9.667 7.47219 9.71964 7.59925C9.77227 7.72632 9.79936 7.86251 9.79936 8.00005C9.79936 8.27791 9.68898 8.54439 9.49251 8.74086C9.29603 8.93734 9.02955 9.04772 8.75169 9.04772C8.47384 9.04772 8.20736 8.93734 8.01088 8.74086C7.81441 8.54439 7.70403 8.27791 7.70403 8.00005H7.70469Z" fill="#656F7D"/>
<path fill-rule="evenodd" clip-rule="evenodd" d="M7.42729 1.33325C7.28322 1.33317 7.14299 1.37976 7.02761 1.46605C6.91224 1.55234 6.82792 1.67369 6.78729 1.81192L6.31129 3.43059L6.01129 3.60392L4.36262 3.21325C4.22302 3.18011 4.07645 3.1929 3.9447 3.24971C3.81294 3.30652 3.70303 3.40432 3.63129 3.52859L2.31129 5.81259C2.2391 5.93737 2.2093 6.0822 2.22637 6.22535C2.24344 6.36851 2.30645 6.50227 2.40596 6.60659L3.57129 7.82792V8.17192L2.40596 9.39325C2.3066 9.49752 2.24368 9.63116 2.22662 9.77417C2.20955 9.91718 2.23926 10.0619 2.31129 10.1866L3.63129 12.4719C3.70313 12.5961 3.81308 12.6937 3.94483 12.7504C4.07658 12.8071 4.22309 12.8198 4.36262 12.7866L6.01129 12.3959L6.31129 12.5693L6.78729 14.1879C6.82792 14.3261 6.91224 14.4475 7.02761 14.5338C7.14299 14.6201 7.28322 14.6667 7.42729 14.6666H10.0673C10.2108 14.6667 10.3506 14.6206 10.4658 14.5349C10.581 14.4493 10.6654 14.3288 10.7066 14.1913L11.192 12.5699L11.492 12.3966L13.134 12.7946C13.2739 12.8284 13.421 12.816 13.5533 12.7593C13.6856 12.7026 13.796 12.6046 13.868 12.4799L15.1886 10.1953C15.2604 10.071 15.2902 9.9268 15.2735 9.78422C15.2568 9.64164 15.1945 9.50826 15.096 9.40392L13.9333 8.17325V7.82659L15.096 6.59592C15.1945 6.49157 15.2568 6.35819 15.2735 6.21562C15.2902 6.07304 15.2604 5.92888 15.1886 5.80459L13.8686 3.51992C13.7966 3.39512 13.6861 3.29702 13.5537 3.24029C13.4212 3.18356 13.274 3.17127 13.134 3.20525L11.492 3.60325L11.192 3.42992L10.7066 1.80859C10.6655 1.6712 10.5811 1.55075 10.466 1.46512C10.351 1.37949 10.2114 1.33324 10.068 1.33325H7.42729ZM7.51529 4.06325L7.92596 2.66659H9.57129L9.99062 4.06659C10.0394 4.22949 10.1487 4.36757 10.296 4.45259L11.0566 4.89125C11.2049 4.9766 11.3804 5.00166 11.5466 4.96125L12.9633 4.61859L13.7853 6.04125L12.782 7.10325C12.665 7.22707 12.5999 7.39094 12.6 7.56125V8.43859C12.5999 8.60889 12.665 8.77277 12.782 8.89659L13.7853 9.95859L12.9633 11.3813L11.5466 11.0386C11.3804 10.9982 11.2049 11.0232 11.0566 11.1086L10.2966 11.5473C10.1487 11.6322 10.039 11.7705 9.98996 11.9339L9.57196 13.3333H7.92663L7.51596 11.9366C7.46757 11.7722 7.35775 11.6328 7.20929 11.5473L6.44862 11.1086C6.30142 11.0236 6.12734 10.9981 5.96196 11.0373L4.53862 11.3746L3.71596 9.95192L4.72129 8.89859C4.83944 8.77458 4.90533 8.60986 4.90529 8.43859V7.56125C4.90533 7.38998 4.83944 7.22526 4.72129 7.10125L3.71596 6.04792L4.53862 4.62525L5.96196 4.96259C6.12734 5.00171 6.30142 4.97619 6.44862 4.89125L7.20862 4.45259C7.35708 4.36704 7.4669 4.22762 7.51529 4.06325Z" fill="#656F7D"/>
</svg>
