<svg width="17" height="16" viewBox="0 0 17 16" fill="none" xmlns="http://www.w3.org/2000/svg">
<path d="M13.6401 9.06675C13.3218 9.06675 13.0166 8.94032 12.7916 8.71528C12.5665 8.49023 12.4401 8.18501 12.4401 7.86675C12.4401 7.54849 12.5665 7.24326 12.7916 7.01822C13.0166 6.79318 13.3218 6.66675 13.6401 6.66675C13.9583 6.66675 14.2636 6.79318 14.4886 7.01822C14.7137 7.24326 14.8401 7.54849 14.8401 7.86675C14.8401 8.18501 14.7137 8.49023 14.4886 8.71528C14.2636 8.94032 13.9583 9.06675 13.6401 9.06675ZM8.84009 9.06675C8.52183 9.06675 8.2166 8.94032 7.99156 8.71528C7.76652 8.49023 7.64009 8.18501 7.64009 7.86675C7.64009 7.54849 7.76652 7.24326 7.99156 7.01822C8.2166 6.79318 8.52183 6.66675 8.84009 6.66675C9.15835 6.66675 9.46357 6.79318 9.68862 7.01822C9.91366 7.24326 10.0401 7.54849 10.0401 7.86675C10.0401 8.18501 9.91366 8.49023 9.68862 8.71528C9.46357 8.94032 9.15835 9.06675 8.84009 9.06675ZM4.04009 9.06675C3.72183 9.06675 3.4166 8.94032 3.19156 8.71528C2.96652 8.49023 2.84009 8.18501 2.84009 7.86675C2.84009 7.54849 2.96652 7.24326 3.19156 7.01822C3.4166 6.79318 3.72183 6.66675 4.04009 6.66675C4.35835 6.66675 4.66357 6.79318 4.88862 7.01822C5.11366 7.24326 5.24009 7.54849 5.24009 7.86675C5.24009 8.18501 5.11366 8.49023 4.88862 8.71528C4.66357 8.94032 4.35835 9.06675 4.04009 9.06675Z" fill="#656F7D"/>
</svg>
