<svg width="17" height="16" viewBox="0 0 17 16" fill="none" xmlns="http://www.w3.org/2000/svg">
<path fill-rule="evenodd" clip-rule="evenodd" d="M11.3467 1.07525C11.1893 0.530581 10.3573 0.530581 10.1993 1.07525L9.97532 1.84725C9.49332 3.51125 8.83466 4.81058 7.04399 5.25858L6.21332 5.46658C6.08955 5.49066 5.97801 5.55704 5.89781 5.65435C5.81761 5.75165 5.77375 5.87382 5.77375 5.99992C5.77375 6.12601 5.81761 6.24818 5.89781 6.34548C5.97801 6.44279 6.08955 6.50917 6.21332 6.53325L7.04399 6.74125C8.83466 7.18925 9.49332 8.48858 9.97532 10.1526L10.1993 10.9246C10.3573 11.4692 11.1893 11.4692 11.3473 10.9246L11.5713 10.1526C12.0533 8.48858 12.712 7.18925 14.5027 6.74125L15.3333 6.53325C15.4571 6.50917 15.5686 6.44279 15.6488 6.34548C15.729 6.24818 15.7729 6.12601 15.7729 5.99992C15.7729 5.87382 15.729 5.75165 15.6488 5.65435C15.5686 5.55704 15.4571 5.49066 15.3333 5.46658L14.5027 5.25858C12.712 4.81058 12.0527 3.51125 11.5713 1.84725L11.3467 1.07525ZM4.45132 8.92192C4.35599 8.58192 3.85666 8.58192 3.76199 8.92192L3.62799 9.40458C3.33866 10.4446 2.94332 11.2566 1.86932 11.5366L1.37066 11.6666C1.29569 11.6844 1.22893 11.7271 1.18117 11.7875C1.1334 11.848 1.10742 11.9228 1.10742 11.9999C1.10742 12.077 1.1334 12.1518 1.18117 12.2123C1.22893 12.2728 1.29569 12.3154 1.37066 12.3332L1.86932 12.4632C2.94332 12.7432 3.33866 13.5552 3.62799 14.5952L3.76199 15.0779C3.85666 15.4179 4.35599 15.4179 4.45132 15.0779L4.58532 14.5952C4.87466 13.5552 5.26999 12.7432 6.34399 12.4632L6.84266 12.3332C6.91763 12.3154 6.98439 12.2728 7.03215 12.2123C7.07991 12.1518 7.10589 12.077 7.10589 11.9999C7.10589 11.9228 7.07991 11.848 7.03215 11.7875C6.98439 11.7271 6.91763 11.6844 6.84266 11.6666L6.34399 11.5366C5.26999 11.2566 4.87466 10.4446 4.58532 9.40458L4.45132 8.92192Z" fill="white"/>
</svg>
