<svg width="14" height="10" viewBox="0 0 14 10" fill="none" xmlns="http://www.w3.org/2000/svg">
<path d="M2.625 2.5C2.625 1.83696 2.88839 1.20107 3.35723 0.732233C3.82607 0.263392 4.46196 0 5.125 0C5.78804 0 6.42393 0.263392 6.89277 0.732233C7.36161 1.20107 7.625 1.83696 7.625 2.5C7.625 3.16304 7.36161 3.79893 6.89277 4.26777C6.42393 4.73661 5.78804 5 5.125 5C4.46196 5 3.82607 4.73661 3.35723 4.26777C2.88839 3.79893 2.625 3.16304 2.625 2.5ZM0.75 9.41992C0.75 7.49609 2.30859 5.9375 4.23242 5.9375H6.01758C7.94141 5.9375 9.5 7.49609 9.5 9.41992C9.5 9.74023 9.24023 10 8.91992 10H1.33008C1.00977 10 0.75 9.74023 0.75 9.41992ZM12.6504 10H9.95703C10.0625 9.81641 10.125 9.60352 10.125 9.375V9.21875C10.125 8.0332 9.5957 6.96875 8.76172 6.25391C8.80859 6.25195 8.85352 6.25 8.90039 6.25H10.0996C11.8398 6.25 13.25 7.66016 13.25 9.40039C13.25 9.73242 12.9805 10 12.6504 10ZM9.1875 5C8.58203 5 8.03516 4.75391 7.63867 4.35742C8.02344 3.83789 8.25 3.19531 8.25 2.5C8.25 1.97656 8.12109 1.48242 7.89258 1.04883C8.25586 0.783203 8.70312 0.625 9.1875 0.625C10.3965 0.625 11.375 1.60352 11.375 2.8125C11.375 4.02148 10.3965 5 9.1875 5Z" fill="#C79A3B"/>
</svg>
