<svg width="16" height="12" viewBox="0 0 16 12" fill="none" xmlns="http://www.w3.org/2000/svg">
<path d="M2.75 3C2.75 2.20435 3.06607 1.44129 3.62868 0.87868C4.19129 0.316071 4.95435 0 5.75 0C6.54565 0 7.30871 0.316071 7.87132 0.87868C8.43393 1.44129 8.75 2.20435 8.75 3C8.75 3.79565 8.43393 4.55871 7.87132 5.12132C7.30871 5.68393 6.54565 6 5.75 6C4.95435 6 4.19129 5.68393 3.62868 5.12132C3.06607 4.55871 2.75 3.79565 2.75 3ZM0.5 11.3039C0.5 8.99531 2.37031 7.125 4.67891 7.125H6.82109C9.12969 7.125 11 8.99531 11 11.3039C11 11.6883 10.6883 12 10.3039 12H1.19609C0.811719 12 0.5 11.6883 0.5 11.3039ZM14.7805 12H11.5484C11.675 11.7797 11.75 11.5242 11.75 11.25V11.0625C11.75 9.63984 11.1148 8.3625 10.1141 7.50469C10.1703 7.50234 10.2242 7.5 10.2805 7.5H11.7195C13.8078 7.5 15.5 9.19219 15.5 11.2805C15.5 11.6789 15.1766 12 14.7805 12ZM10.625 6C9.89844 6 9.24219 5.70469 8.76641 5.22891C9.22813 4.60547 9.5 3.83437 9.5 3C9.5 2.37188 9.34531 1.77891 9.07109 1.25859C9.50703 0.939844 10.0437 0.75 10.625 0.75C12.0758 0.75 13.25 1.92422 13.25 3.375C13.25 4.82578 12.0758 6 10.625 6Z" fill="#C79A3B"/>
</svg>
