<svg width="28" height="27" viewBox="0 0 28 27" fill="none" xmlns="http://www.w3.org/2000/svg">
<mask id="path-1-inside-1_44_1232" fill="white">
<path d="M0.149902 4.81447L23.9974 0L27.0113 15.1979C27.7766 19.057 25.2963 22.8115 21.4715 23.5837L4.54945 27L0.149902 4.81447Z"/>
</mask>
<path d="M21.4793 17.2453L21.489 16.7454C21.3142 16.742 21.1503 16.8302 21.0568 16.978C20.9633 17.1257 20.9538 17.3115 21.0317 17.4681L21.4793 17.2453ZM27.2841 16.5082C27.5067 16.3449 27.5547 16.032 27.3914 15.8093C27.228 15.5867 26.9151 15.5387 26.6924 15.702L27.2841 16.5082ZM23.1093 22.9566C23.1469 21.1424 22.7731 18.7231 21.927 17.0226L21.0317 17.4681C21.7853 18.9826 22.1449 21.2297 22.1095 22.9359L23.1093 22.9566ZM21.4697 17.7452C23.5529 17.7854 25.5765 17.7612 27.2841 16.5082L26.6924 15.702C25.2924 16.7294 23.6057 16.7862 21.489 16.7454L21.4697 17.7452ZM0.149902 4.81447L-0.0479908 3.83425L-1.02485 4.03146L-0.830996 5.00899L0.149902 4.81447ZM23.9974 0L24.9783 -0.194519L24.7831 -1.1788L23.7995 -0.980224L23.9974 0ZM4.54945 27L3.56855 27.1945L3.76374 28.1788L4.74734 27.9802L4.54945 27ZM27.0113 15.1979L27.9922 15.0033L27.0113 15.1979ZM21.4715 23.5837L21.2736 22.6035L21.4715 23.5837ZM0.347795 5.7947L24.1953 0.980224L23.7995 -0.980224L-0.0479908 3.83425L0.347795 5.7947ZM23.0165 0.194519L26.0304 15.3924L27.9922 15.0033L24.9783 -0.194519L23.0165 0.194519ZM21.2736 22.6035L4.35155 26.0198L4.74734 27.9802L21.6694 24.5639L21.2736 22.6035ZM5.53035 26.8055L1.1308 4.61995L-0.830996 5.00899L3.56855 27.1945L5.53035 26.8055ZM26.0304 15.3924C26.69 18.7188 24.5508 21.9418 21.2736 22.6035L21.6694 24.5639C26.0419 23.6812 28.8631 19.3953 27.9922 15.0033L26.0304 15.3924Z" fill="black" mask="url(#path-1-inside-1_44_1232)"/>
</svg>
