<svg width="12" height="13" viewBox="0 0 12 13" fill="none" xmlns="http://www.w3.org/2000/svg">
<path fill-rule="evenodd" clip-rule="evenodd" d="M6 1.33344C5.38116 1.33344 4.78767 1.57927 4.35008 2.01686C3.9125 2.45444 3.66666 3.04793 3.66666 3.66677C3.66666 4.28561 3.9125 4.8791 4.35008 5.31669C4.78767 5.75427 5.38116 6.0001 6 6.0001C6.61884 6.0001 7.21233 5.75427 7.64991 5.31669C8.0875 4.8791 8.33333 4.28561 8.33333 3.66677C8.33333 3.04793 8.0875 2.45444 7.64991 2.01686C7.21233 1.57927 6.61884 1.33344 6 1.33344ZM8.358 6.47477C8.93405 5.9909 9.34733 5.34154 9.54176 4.61479C9.73619 3.88804 9.70237 3.11907 9.44488 2.41219C9.18739 1.70532 8.7187 1.09476 8.10239 0.663327C7.48608 0.231898 6.75198 0.000488281 5.99966 0.000488281C5.24735 0.000488281 4.51325 0.231898 3.89694 0.663327C3.28062 1.09476 2.81193 1.70532 2.55445 2.41219C2.29696 3.11907 2.26314 3.88804 2.45757 4.61479C2.652 5.34154 3.06528 5.9909 3.64133 6.47477C1.7 7.29277 0.276664 9.0921 0.00533046 11.2501C-0.0134584 11.4239 0.0367403 11.5981 0.145118 11.7352C0.253496 11.8723 0.411384 11.9614 0.584787 11.9832C0.758191 12.0051 0.93324 11.9579 1.07225 11.852C1.21125 11.7461 1.30309 11.5898 1.328 11.4168C1.61666 9.11877 3.59466 7.33344 6 7.33344C8.40466 7.33344 10.3833 9.11877 10.672 11.4168C10.6815 11.5048 10.7085 11.59 10.7513 11.6675C10.7941 11.745 10.8519 11.8132 10.9214 11.8681C10.9909 11.923 11.0706 11.9635 11.1558 11.9873C11.2411 12.0111 11.3303 12.0176 11.4181 12.0065C11.506 11.9955 11.5907 11.967 11.6675 11.9228C11.7442 11.8787 11.8114 11.8196 11.865 11.7492C11.9187 11.6788 11.9578 11.5984 11.9801 11.5127C12.0023 11.427 12.0073 11.3377 11.9947 11.2501C11.7233 9.0921 10.3 7.29277 8.358 6.47477Z" fill="#838383"/>
</svg>
