<svg width="16" height="16" viewBox="0 0 16 16" fill="none" xmlns="http://www.w3.org/2000/svg">
<path fill-rule="evenodd" clip-rule="evenodd" d="M8.00136 5.61914C7.68868 5.61914 7.37907 5.68073 7.09019 5.80038C6.80132 5.92004 6.53884 6.09542 6.31774 6.31652C6.09664 6.53762 5.92126 6.8001 5.8016 7.08897C5.68195 7.37785 5.62036 7.68746 5.62036 8.00014C5.62036 8.31282 5.68195 8.62243 5.8016 8.91131C5.92126 9.20019 6.09664 9.46267 6.31774 9.68376C6.53884 9.90486 6.80132 10.0802 7.09019 10.1999C7.37907 10.3196 7.68868 10.3811 8.00136 10.3811C8.63284 10.3811 9.23846 10.1303 9.68498 9.68376C10.1315 9.23724 10.3824 8.63162 10.3824 8.00014C10.3824 7.36866 10.1315 6.76304 9.68498 6.31652C9.23846 5.87 8.63284 5.61914 8.00136 5.61914ZM6.95469 7.99981C6.95469 7.86227 6.98178 7.72608 7.03442 7.59901C7.08705 7.47194 7.1642 7.35648 7.26145 7.25923C7.35871 7.16198 7.47416 7.08483 7.60123 7.0322C7.7283 6.97956 7.86449 6.95247 8.00203 6.95247C8.13957 6.95247 8.27576 6.97956 8.40283 7.0322C8.52989 7.08483 8.64535 7.16198 8.7426 7.25923C8.83986 7.35648 8.917 7.47194 8.96964 7.59901C9.02227 7.72608 9.04936 7.86227 9.04936 7.99981C9.04936 8.27767 8.93898 8.54414 8.74251 8.74062C8.54603 8.9371 8.27955 9.04747 8.00169 9.04747C7.72384 9.04747 7.45736 8.9371 7.26088 8.74062C7.06441 8.54414 6.95403 8.27767 6.95403 7.99981H6.95469Z" fill="#838383"/>
<path fill-rule="evenodd" clip-rule="evenodd" d="M6.67729 1.3335C6.53322 1.33341 6.39299 1.38 6.27761 1.4663C6.16224 1.55259 6.07792 1.67393 6.03729 1.81216L5.56129 3.43083L5.26129 3.60416L3.61262 3.2135C3.47302 3.18036 3.32645 3.19314 3.1947 3.24995C3.06294 3.30676 2.95303 3.40457 2.88129 3.52883L1.56129 5.81283C1.4891 5.93762 1.4593 6.08245 1.47637 6.2256C1.49344 6.36875 1.55645 6.50251 1.65596 6.60683L2.82129 7.82816V8.17216L1.65596 9.3935C1.5566 9.49776 1.49368 9.6314 1.47662 9.77441C1.45955 9.91742 1.48926 10.0621 1.56129 10.1868L2.88129 12.4722C2.95313 12.5963 3.06308 12.694 3.19483 12.7507C3.32658 12.8073 3.47309 12.82 3.61262 12.7868L5.26129 12.3962L5.56129 12.5695L6.03729 14.1882C6.07792 14.3264 6.16224 14.4477 6.27761 14.534C6.39299 14.6203 6.53322 14.6669 6.67729 14.6668H9.31729C9.46083 14.667 9.60058 14.6208 9.71577 14.5352C9.83096 14.4495 9.91543 14.329 9.95662 14.1915L10.442 12.5702L10.742 12.3968L12.384 12.7948C12.5239 12.8287 12.671 12.8163 12.8033 12.7596C12.9356 12.7028 13.046 12.6048 13.118 12.4802L14.4386 10.1955C14.5104 10.0712 14.5402 9.92704 14.5235 9.78446C14.5068 9.64189 14.4445 9.50851 14.346 9.40416L13.1833 8.1735V7.82683L14.346 6.59616C14.4445 6.49182 14.5068 6.35844 14.5235 6.21586C14.5402 6.07329 14.5104 5.92913 14.4386 5.80483L13.1186 3.52016C13.0466 3.39537 12.9361 3.29726 12.8037 3.24053C12.6712 3.18381 12.524 3.17151 12.384 3.2055L10.742 3.6035L10.442 3.43016L9.95662 1.80883C9.91546 1.67144 9.83109 1.55099 9.71604 1.46536C9.60098 1.37973 9.46138 1.33349 9.31796 1.3335H6.67729ZM6.76529 4.0635L7.17596 2.66683H8.82129L9.24062 4.06683C9.28945 4.22973 9.39867 4.36782 9.54596 4.45283L10.3066 4.8915C10.4549 4.97685 10.6304 5.00191 10.7966 4.9615L12.2133 4.61883L13.0353 6.0415L12.032 7.1035C11.915 7.22731 11.8499 7.39119 11.85 7.5615V8.43883C11.8499 8.60914 11.915 8.77302 12.032 8.89683L13.0353 9.95883L12.2133 11.3815L10.7966 11.0388C10.6304 10.9984 10.4549 11.0235 10.3066 11.1088L9.54663 11.5475C9.3987 11.6324 9.28895 11.7708 9.23996 11.9342L8.82196 13.3335H7.17663L6.76596 11.9368C6.71757 11.7725 6.60775 11.633 6.45929 11.5475L5.69862 11.1088C5.55142 11.0239 5.37734 10.9984 5.21196 11.0375L3.78862 11.3748L2.96596 9.95216L3.97129 8.89883C4.08944 8.77483 4.15533 8.61011 4.15529 8.43883V7.5615C4.15533 7.39022 4.08944 7.2255 3.97129 7.1015L2.96596 6.04816L3.78862 4.6255L5.21196 4.96283C5.37734 5.00195 5.55142 4.97644 5.69862 4.8915L6.45862 4.45283C6.60708 4.36728 6.7169 4.22786 6.76529 4.0635Z" fill="#838383"/>
</svg>
