<svg width="14" height="14" viewBox="0 0 14 14" fill="none" xmlns="http://www.w3.org/2000/svg">
<path d="M6.33325 10.3335C6.33325 10.5103 6.40349 10.6799 6.52851 10.8049C6.65354 10.9299 6.82311 11.0002 6.99992 11.0002C7.17673 11.0002 7.3463 10.9299 7.47132 10.8049C7.59635 10.6799 7.66659 10.5103 7.66659 10.3335C7.66659 10.1567 7.59635 9.98712 7.47132 9.86209C7.3463 9.73707 7.17673 9.66683 6.99992 9.66683C6.82311 9.66683 6.65354 9.73707 6.52851 9.86209C6.40349 9.98712 6.33325 10.1567 6.33325 10.3335ZM6.99992 0.333496C3.31992 0.333496 0.333252 3.32016 0.333252 7.00016C0.333252 10.6802 3.31992 13.6668 6.99992 13.6668C10.6799 13.6668 13.6666 10.6802 13.6666 7.00016C13.6666 3.32016 10.6799 0.333496 6.99992 0.333496ZM6.99992 12.3335C4.05992 12.3335 1.66659 9.94016 1.66659 7.00016C1.66659 4.06016 4.05992 1.66683 6.99992 1.66683C9.93992 1.66683 12.3333 4.06016 12.3333 7.00016C12.3333 9.94016 9.93992 12.3335 6.99992 12.3335ZM6.99992 3.00016C6.40739 2.99995 5.83166 3.19709 5.36362 3.56046C4.89559 3.92383 4.5619 4.43273 4.41525 5.00683C4.32459 5.3635 4.63192 5.66683 4.99992 5.66683C5.36792 5.66683 5.65325 5.35016 5.83059 5.02816C6.05792 4.61483 6.49725 4.3335 6.99992 4.3335C7.73325 4.3335 8.33325 4.9335 8.33325 5.66683C8.33325 6.84683 6.76792 6.85216 6.40659 8.33816C6.31992 8.69616 6.63192 9.00016 6.99992 9.00016C7.36792 9.00016 7.65125 8.68683 7.81125 8.35483C8.27125 7.40483 9.66659 7.05883 9.66659 5.66683C9.66659 4.1935 8.47325 3.00016 6.99992 3.00016Z" fill="#838383"/>
</svg>
