<svg width="14" height="14" viewBox="0 0 14 14" fill="none" xmlns="http://www.w3.org/2000/svg">
<path fill-rule="evenodd" clip-rule="evenodd" d="M1.02921 4.03683C1.58118 2.92448 2.43284 1.98841 3.48823 1.33409C4.54362 0.67977 5.76078 0.333222 7.00255 0.333496C10.6845 0.333496 13.6692 3.31816 13.6692 7.00016C13.6692 10.6822 10.6845 13.6668 7.00255 13.6668C5.76078 13.6671 4.54362 13.3206 3.48823 12.6662C2.43284 12.0119 1.58118 11.0758 1.02921 9.9635C0.989486 9.88501 0.965684 9.79945 0.959177 9.71173C0.952671 9.624 0.963588 9.53586 0.991301 9.45238C1.01901 9.36889 1.06297 9.29172 1.12065 9.2253C1.17832 9.15889 1.24857 9.10454 1.32734 9.0654C1.40612 9.02625 1.49186 9.00308 1.57962 8.99722C1.66739 8.99137 1.75545 9.00294 1.83873 9.03127C1.922 9.0596 1.99885 9.10413 2.06484 9.16229C2.13083 9.22046 2.18465 9.2911 2.22321 9.37016C2.75775 10.4478 3.64086 11.313 4.72916 11.8254C5.81745 12.3378 7.047 12.4673 8.21815 12.1928C9.38929 11.9183 10.4332 11.2559 11.1805 10.3133C11.9277 9.37061 12.3344 8.20305 12.3344 7.00016C12.3344 5.79728 11.9277 4.62971 11.1805 3.68707C10.4332 2.74443 9.38929 2.08208 8.21815 1.80757C7.047 1.53305 5.81745 1.66251 4.72916 2.17491C3.64086 2.68732 2.75775 3.55257 2.22321 4.63016C2.14133 4.78285 2.00323 4.89766 1.83816 4.95028C1.67309 5.00289 1.49402 4.98918 1.33889 4.91205C1.18375 4.83491 1.06474 4.70042 1.00706 4.53705C0.949378 4.37368 0.957564 4.19427 1.02988 4.03683H1.02921ZM5.82188 3.86083C5.9469 3.73585 6.11644 3.66564 6.29321 3.66564C6.46999 3.66564 6.63953 3.73585 6.76455 3.86083L9.43121 6.5275C9.55619 6.65251 9.6264 6.82205 9.6264 6.99883C9.6264 7.17561 9.55619 7.34514 9.43121 7.47016L6.76455 10.1368C6.70305 10.2005 6.62949 10.2513 6.54815 10.2862C6.46681 10.3212 6.37933 10.3396 6.29081 10.3403C6.20229 10.3411 6.11451 10.3242 6.03258 10.2907C5.95065 10.2572 5.87621 10.2077 5.81362 10.1451C5.75102 10.0825 5.70152 10.0081 5.668 9.92613C5.63448 9.8442 5.61761 9.75641 5.61838 9.6679C5.61915 9.57938 5.63754 9.4919 5.67248 9.41056C5.70742 9.32922 5.75821 9.25566 5.82188 9.19416L7.35055 7.6655H0.95988C0.783069 7.6655 0.613499 7.59526 0.488475 7.47023C0.363451 7.34521 0.293213 7.17564 0.293213 6.99883C0.293213 6.82202 0.363451 6.65245 0.488475 6.52743C0.613499 6.4024 0.783069 6.33216 0.95988 6.33216H7.35055L5.82188 4.8035C5.6969 4.67848 5.62669 4.50894 5.62669 4.33216C5.62669 4.15539 5.6969 3.98585 5.82188 3.86083Z" fill="#838383"/>
</svg>
