<svg width="14" height="14" viewBox="0 0 14 14" fill="none" xmlns="http://www.w3.org/2000/svg">
<path fill-rule="evenodd" clip-rule="evenodd" d="M11.6666 1.00016C11.6666 0.823352 11.5964 0.653782 11.4713 0.528758C11.3463 0.403734 11.1767 0.333496 10.9999 0.333496C10.8231 0.333496 10.6535 0.403734 10.5285 0.528758C10.4035 0.653782 10.3333 0.823352 10.3333 1.00016V2.3335H8.99992C8.82311 2.3335 8.65354 2.40373 8.52852 2.52876C8.4035 2.65378 8.33326 2.82335 8.33326 3.00016C8.33326 3.17697 8.4035 3.34654 8.52852 3.47157C8.65354 3.59659 8.82311 3.66683 8.99992 3.66683H10.3333V5.00016C10.3333 5.17697 10.4035 5.34654 10.5285 5.47157C10.6535 5.59659 10.8231 5.66683 10.9999 5.66683C11.1767 5.66683 11.3463 5.59659 11.4713 5.47157C11.5964 5.34654 11.6666 5.17697 11.6666 5.00016V3.66683H12.9999C13.1767 3.66683 13.3463 3.59659 13.4713 3.47157C13.5964 3.34654 13.6666 3.17697 13.6666 3.00016C13.6666 2.82335 13.5964 2.65378 13.4713 2.52876C13.3463 2.40373 13.1767 2.3335 12.9999 2.3335H11.6666V1.00016ZM12.9999 7.3335C12.9999 7.0875 12.9859 6.84483 12.9586 6.60683C12.6161 7.10177 12.1668 7.51346 11.6439 7.8115C11.5532 8.7553 11.1961 9.65386 10.6141 10.4024C10.0321 11.1509 9.24924 11.7185 8.35689 12.039C7.46455 12.3594 6.49948 12.4196 5.57424 12.2124C4.64901 12.0052 3.80176 11.5392 3.13132 10.8688C2.46087 10.1983 1.99488 9.35108 1.78769 8.42585C1.5805 7.50061 1.64065 6.53554 1.96113 5.6432C2.28162 4.75085 2.84921 3.96803 3.59772 3.38603C4.34623 2.80403 5.24479 2.44685 6.18859 2.35616C6.48686 1.83321 6.89877 1.38394 7.39392 1.0415C6.11877 0.894079 4.82892 1.13762 3.69531 1.73984C2.56169 2.34207 1.63783 3.27454 1.04616 4.4137C0.454489 5.55286 0.222935 6.84491 0.382185 8.11864C0.541434 9.39237 1.08397 10.5876 1.93789 11.5461C2.79182 12.5045 3.91682 13.1808 5.16381 13.4854C6.41079 13.79 7.7209 13.7085 8.92051 13.2516C10.1201 12.7948 11.1526 11.9842 11.8811 10.9273C12.6096 9.87046 12.9998 8.61714 12.9999 7.3335ZM5.66659 5.66683C5.66659 5.49002 5.59635 5.32045 5.47133 5.19543C5.3463 5.0704 5.17674 5.00016 4.99992 5.00016C4.82311 5.00016 4.65354 5.0704 4.52852 5.19543C4.4035 5.32045 4.33326 5.49002 4.33326 5.66683V6.66683C4.33326 6.84364 4.4035 7.01321 4.52852 7.13823C4.65354 7.26326 4.82311 7.3335 4.99992 7.3335C5.17674 7.3335 5.3463 7.26326 5.47133 7.13823C5.59635 7.01321 5.66659 6.84364 5.66659 6.66683V5.66683ZM8.33326 5.00016C8.51007 5.00016 8.67964 5.0704 8.80466 5.19543C8.92969 5.32045 8.99992 5.49002 8.99992 5.66683V6.66683C8.99992 6.84364 8.92969 7.01321 8.80466 7.13823C8.67964 7.26326 8.51007 7.3335 8.33326 7.3335C8.15645 7.3335 7.98688 7.26326 7.86185 7.13823C7.73683 7.01321 7.66659 6.84364 7.66659 6.66683V5.66683C7.66659 5.49002 7.73683 5.32045 7.86185 5.19543C7.98688 5.0704 8.15645 5.00016 8.33326 5.00016ZM4.29659 8.4455C4.37019 8.39626 4.45286 8.36217 4.53977 8.34523C4.62669 8.32829 4.7161 8.32884 4.8028 8.34684C4.88951 8.36484 4.97175 8.39993 5.04474 8.45006C5.11773 8.50019 5.18001 8.56437 5.22792 8.63883C5.32671 8.76185 5.44048 8.87203 5.56659 8.96683C5.88278 9.20704 6.26952 9.33595 6.66659 9.3335C7.06366 9.33595 7.4504 9.20704 7.76659 8.96683C7.8927 8.87203 8.00648 8.76185 8.10526 8.63883C8.10868 8.63445 8.11202 8.63001 8.11526 8.6255L8.11392 8.62683L8.11326 8.62883H8.11259V8.6295C8.21267 8.48713 8.36445 8.38953 8.53551 8.35756C8.70657 8.32559 8.88336 8.36178 9.0281 8.45839C9.17284 8.555 9.27407 8.70438 9.31016 8.87462C9.34625 9.04486 9.31435 9.22246 9.22126 9.3695L8.66659 9.00016L9.22126 9.37083L9.21992 9.37216L9.21792 9.37483L9.21392 9.3815L9.20193 9.3975L9.16592 9.4475C8.99253 9.6683 8.79105 9.86552 8.56659 10.0342C8.14659 10.3475 7.50992 10.6668 6.66659 10.6668C5.98103 10.6692 5.31361 10.4467 4.76659 10.0335C4.54214 9.86485 4.34066 9.66763 4.16726 9.44683C4.15499 9.43058 4.14299 9.41413 4.13126 9.3975L4.11926 9.38083L4.11526 9.37416L4.11326 9.37216L4.11259 9.37083C4.11259 9.37083 4.11192 9.37016 4.66659 9.00016L4.11192 9.37016C4.06332 9.29733 4.02955 9.21563 4.01253 9.12974C3.99551 9.04385 3.99557 8.95544 4.01272 8.86958C4.02987 8.78371 4.06376 8.70206 4.11247 8.6293C4.16118 8.55653 4.22374 8.49408 4.29659 8.4455Z" fill="#8D8D8D"/>
</svg>
