<svg width="13" height="14" viewBox="0 0 13 14" fill="none" xmlns="http://www.w3.org/2000/svg">
<path fill-rule="evenodd" clip-rule="evenodd" d="M6.49978 2.95851C5.99698 2.95851 5.51477 3.15825 5.15923 3.51379C4.80369 3.86932 4.60395 4.35154 4.60395 4.85434C4.60395 5.35715 4.80369 5.83936 5.15923 6.1949C5.51477 6.55044 5.99698 6.75018 6.49978 6.75018C7.00259 6.75018 7.4848 6.55044 7.84034 6.1949C8.19588 5.83936 8.39562 5.35715 8.39562 4.85434C8.39562 4.35154 8.19588 3.86932 7.84034 3.51379C7.4848 3.15825 7.00259 2.95851 6.49978 2.95851ZM8.41566 7.13584C8.8837 6.7427 9.21949 6.2151 9.37747 5.62461C9.53544 5.03412 9.50796 4.40934 9.29875 3.835C9.08954 3.26066 8.70873 2.76458 8.20798 2.41404C7.70723 2.06351 7.11077 1.87549 6.49951 1.87549C5.88826 1.87549 5.2918 2.06351 4.79105 2.41404C4.29029 2.76458 3.90948 3.26066 3.70027 3.835C3.49107 4.40934 3.46359 5.03412 3.62156 5.62461C3.77954 6.2151 4.11532 6.7427 4.58337 7.13584C3.00603 7.80047 1.84958 9.26243 1.62912 11.0158C1.61385 11.157 1.65464 11.2985 1.74269 11.4099C1.83075 11.5213 1.95904 11.5937 2.09993 11.6114C2.24082 11.6292 2.38304 11.5909 2.49599 11.5048C2.60893 11.4188 2.68355 11.2918 2.70378 11.1512C2.93833 9.28409 4.54545 7.83351 6.49978 7.83351C8.45358 7.83351 10.0612 9.28409 10.2958 11.1512C10.3035 11.2227 10.3254 11.292 10.3602 11.355C10.395 11.4179 10.442 11.4733 10.4984 11.5179C10.5549 11.5625 10.6196 11.5955 10.6889 11.6148C10.7582 11.6341 10.8307 11.6394 10.902 11.6304C10.9734 11.6214 11.0423 11.5983 11.1046 11.5624C11.1669 11.5265 11.2215 11.4785 11.2651 11.4213C11.3087 11.3641 11.3405 11.2988 11.3586 11.2292C11.3767 11.1595 11.3807 11.087 11.3705 11.0158C11.15 9.26243 9.99353 7.80047 8.41566 7.13584Z" fill="#646464"/>
</svg>
