<svg width="13" height="14" viewBox="0 0 13 14" fill="none" xmlns="http://www.w3.org/2000/svg">
<path fill-rule="evenodd" clip-rule="evenodd" d="M3.25016 3.99984H9.75016C9.94364 3.9998 10.1336 4.05157 10.3003 4.14978C10.467 4.24799 10.6043 4.38905 10.6981 4.5583C10.6295 4.57608 10.5651 4.60718 10.5085 4.64984L6.50016 7.65609L2.49183 4.64984C2.43525 4.60718 2.37083 4.57608 2.30225 4.5583C2.39598 4.38905 2.53334 4.24799 2.70004 4.14978C2.86673 4.05157 3.05669 3.9998 3.25016 3.99984ZM2.16683 5.76025V9.4165C2.16683 9.70382 2.28097 9.97937 2.48413 10.1825C2.68729 10.3857 2.96284 10.4998 3.25016 10.4998H9.75016C10.0375 10.4998 10.313 10.3857 10.5162 10.1825C10.7194 9.97937 10.8335 9.70382 10.8335 9.4165V5.76025L6.82516 8.7665C6.7314 8.83682 6.61736 8.87484 6.50016 8.87484C6.38296 8.87484 6.26892 8.83682 6.17516 8.7665L2.16683 5.76025ZM1.0835 5.08317C1.0835 4.50853 1.31177 3.95743 1.7181 3.55111C2.12443 3.14478 2.67553 2.9165 3.25016 2.9165H9.75016C10.3248 2.9165 10.8759 3.14478 11.2822 3.55111C11.6886 3.95743 11.9168 4.50853 11.9168 5.08317V9.4165C11.9168 9.99114 11.6886 10.5422 11.2822 10.9486C10.8759 11.3549 10.3248 11.5832 9.75016 11.5832H3.25016C2.67553 11.5832 2.12443 11.3549 1.7181 10.9486C1.31177 10.5422 1.0835 9.99114 1.0835 9.4165V5.08317Z" fill="#646464"/>
</svg>
