<svg width="13" height="14" viewBox="0 0 13 14" fill="none" xmlns="http://www.w3.org/2000/svg">
<path fill-rule="evenodd" clip-rule="evenodd" d="M3.7915 4.04183C3.7915 3.32353 4.07685 2.63466 4.58476 2.12675C5.09267 1.61884 5.78154 1.3335 6.49984 1.3335C7.21813 1.3335 7.90701 1.61884 8.41492 2.12675C8.92283 2.63466 9.20817 3.32353 9.20817 4.04183V5.12516C9.63915 5.12516 10.0525 5.29637 10.3572 5.60111C10.662 5.90586 10.8332 6.31919 10.8332 6.75016V9.55166C10.8329 9.98242 10.6617 10.3955 10.357 10.7L9.36688 11.6912C9.06211 11.9958 8.64887 12.1669 8.218 12.1668H4.78167C4.35092 12.1666 3.93788 11.9953 3.63334 11.6907L2.64209 10.7005C2.33752 10.3958 2.16645 9.98253 2.1665 9.55166V6.75016C2.1665 6.31919 2.33771 5.90586 2.64246 5.60111C2.9472 5.29637 3.36053 5.12516 3.7915 5.12516V4.04183ZM3.7915 6.2085C3.64785 6.2085 3.51007 6.26556 3.40849 6.36715C3.30691 6.46873 3.24984 6.6065 3.24984 6.75016V9.55166C3.24987 9.69531 3.30696 9.83306 3.40855 9.93462L4.39871 10.9248C4.50027 11.0264 4.63802 11.0835 4.78167 11.0835H8.218C8.36165 11.0835 8.4994 11.0264 8.60096 10.9248L9.59113 9.93462C9.69272 9.83306 9.74981 9.69531 9.74984 9.55166V6.75016C9.74984 6.6065 9.69277 6.46873 9.59119 6.36715C9.48961 6.26556 9.35183 6.2085 9.20817 6.2085H3.7915ZM8.12484 5.12516H4.87484V4.04183C4.87484 3.61085 5.04604 3.19753 5.35079 2.89278C5.65554 2.58803 6.06886 2.41683 6.49984 2.41683C6.93081 2.41683 7.34414 2.58803 7.64889 2.89278C7.95363 3.19753 8.12484 3.61085 8.12484 4.04183V5.12516ZM6.49984 7.8335C6.6435 7.8335 6.78127 7.89056 6.88285 7.99215C6.98444 8.09373 7.0415 8.2315 7.0415 8.37516V9.4585C7.0415 9.60216 6.98444 9.73993 6.88285 9.84151C6.78127 9.9431 6.6435 10.0002 6.49984 10.0002C6.35618 10.0002 6.2184 9.9431 6.11682 9.84151C6.01524 9.73993 5.95817 9.60216 5.95817 9.4585V8.37516C5.95817 8.2315 6.01524 8.09373 6.11682 7.99215C6.2184 7.89056 6.35618 7.8335 6.49984 7.8335Z" fill="#646464"/>
</svg>
