<svg width="13" height="14" viewBox="0 0 13 14" fill="none" xmlns="http://www.w3.org/2000/svg">
<path fill-rule="evenodd" clip-rule="evenodd" d="M7.44645 10.076C7.01366 10.9411 6.61662 11.0635 6.50016 11.0635C6.3837 11.0635 5.98666 10.9411 5.55387 10.076C5.20775 9.38377 4.95262 8.40606 4.88979 7.27181H8.11054C8.0477 8.40606 7.79258 9.38377 7.44645 10.076ZM8.11054 6.18848H4.88979C4.95262 5.05423 5.20775 4.07652 5.55387 3.38427C5.98666 2.51923 6.3837 2.39681 6.50016 2.39681C6.61662 2.39681 7.01366 2.51923 7.44645 3.38427C7.79258 4.07652 8.0477 5.05423 8.11054 6.18848ZM9.19495 7.27181C9.12996 8.59023 8.8277 9.76889 8.37595 10.6377C9.02899 10.3238 9.59297 9.85129 10.0164 9.26333C10.4398 8.67536 10.7092 7.99067 10.7999 7.27181H9.19495ZM10.7999 6.18848H9.19495C9.12996 4.87006 8.8277 3.69139 8.37595 2.82256C9.02899 3.13647 9.59297 3.60899 10.0164 4.19696C10.4398 4.78493 10.7092 5.46961 10.7999 6.18848ZM11.9168 6.73014C11.9168 3.73852 9.49179 1.31348 6.50016 1.31348C3.50854 1.31348 1.0835 3.73852 1.0835 6.73014C1.0835 9.72177 3.50854 12.1468 6.50016 12.1468C9.49179 12.1468 11.9168 9.72177 11.9168 6.73014ZM2.20041 7.27181C2.29113 7.99067 2.5605 8.67536 2.98393 9.26333C3.40735 9.85129 3.97134 10.3238 4.62437 10.6377C4.17262 9.76889 3.87037 8.59023 3.80537 7.27181H2.20041ZM3.80537 6.18848H2.20041C2.29113 5.46961 2.5605 4.78493 2.98393 4.19696C3.40735 3.60899 3.97134 3.13647 4.62437 2.82256C4.17262 3.69139 3.87037 4.87006 3.80537 6.18848Z" fill="#838383"/>
</svg>
