<svg width="13" height="14" viewBox="0 0 13 14" fill="none" xmlns="http://www.w3.org/2000/svg">
<path d="M7.04183 4.52181C7.04183 4.37815 6.98476 4.24038 6.88318 4.13879C6.7816 4.03721 6.64382 3.98014 6.50016 3.98014C6.3565 3.98014 6.21873 4.03721 6.11715 4.13879C6.01556 4.24038 5.9585 4.37815 5.9585 4.52181H7.04183ZM6.50016 6.68848H5.9585C5.9584 6.79456 5.98946 6.89833 6.04781 6.98692C6.10616 7.07551 6.18925 7.14501 6.28675 7.18681L6.50016 6.68848ZM8.18258 7.99931C8.31475 8.05591 8.46398 8.05769 8.59746 8.00426C8.73094 7.95083 8.83773 7.84656 8.89433 7.71439C8.95093 7.58223 8.95271 7.43299 8.89928 7.29951C8.84585 7.16603 8.74158 7.05925 8.60941 7.00264L8.18258 7.99931ZM1.0835 7.23014C1.0835 7.3738 1.14056 7.51158 1.24215 7.61316C1.34373 7.71474 1.4815 7.77181 1.62516 7.77181C1.76882 7.77181 1.9066 7.71474 2.00818 7.61316C2.10976 7.51158 2.16683 7.3738 2.16683 7.23014H1.0835ZM10.8335 7.23014C10.8335 7.3738 10.8906 7.51158 10.9921 7.61316C11.0937 7.71474 11.2315 7.77181 11.3752 7.77181C11.5188 7.77181 11.6566 7.71474 11.7582 7.61316C11.8598 7.51158 11.9168 7.3738 11.9168 7.23014H10.8335ZM2.16683 9.93848C2.16683 9.79482 2.10976 9.65704 2.00818 9.55546C1.9066 9.45388 1.76882 9.39681 1.62516 9.39681C1.4815 9.39681 1.34373 9.45388 1.24215 9.55546C1.14056 9.65704 1.0835 9.79482 1.0835 9.93848H2.16683ZM1.0835 12.1051C1.0835 12.2488 1.14056 12.3866 1.24215 12.4882C1.34373 12.5897 1.4815 12.6468 1.62516 12.6468C1.76882 12.6468 1.9066 12.5897 2.00818 12.4882C2.10976 12.3866 2.16683 12.2488 2.16683 12.1051H1.0835ZM4.60433 10.4801C4.60433 10.3365 4.54726 10.1987 4.44568 10.0971C4.3441 9.99554 4.20632 9.93848 4.06266 9.93848C3.919 9.93848 3.78123 9.99554 3.67965 10.0971C3.57806 10.1987 3.521 10.3365 3.521 10.4801H4.60433ZM3.521 11.5635C3.521 11.7071 3.57806 11.8449 3.67965 11.9465C3.78123 12.0481 3.919 12.1051 4.06266 12.1051C4.20632 12.1051 4.3441 12.0481 4.44568 11.9465C4.54726 11.8449 4.60433 11.7071 4.60433 11.5635H3.521ZM7.04183 9.93848C7.04183 9.79482 6.98476 9.65704 6.88318 9.55546C6.7816 9.45388 6.64382 9.39681 6.50016 9.39681C6.3565 9.39681 6.21873 9.45388 6.11715 9.55546C6.01556 9.65704 5.9585 9.79482 5.9585 9.93848H7.04183ZM5.9585 12.1051C5.9585 12.2488 6.01556 12.3866 6.11715 12.4882C6.21873 12.5897 6.3565 12.6468 6.50016 12.6468C6.64382 12.6468 6.7816 12.5897 6.88318 12.4882C6.98476 12.3866 7.04183 12.2488 7.04183 12.1051H5.9585ZM9.47933 10.4801C9.47933 10.3365 9.42226 10.1987 9.32068 10.0971C9.2191 9.99554 9.08132 9.93848 8.93766 9.93848C8.794 9.93848 8.65623 9.99554 8.55465 10.0971C8.45306 10.1987 8.396 10.3365 8.396 10.4801H9.47933ZM8.396 11.5635C8.396 11.7071 8.45306 11.8449 8.55465 11.9465C8.65623 12.0481 8.794 12.1051 8.93766 12.1051C9.08132 12.1051 9.2191 12.0481 9.32068 11.9465C9.42226 11.8449 9.47933 11.7071 9.47933 11.5635H8.396ZM11.9168 9.93848C11.9168 9.79482 11.8598 9.65704 11.7582 9.55546C11.6566 9.45388 11.5188 9.39681 11.3752 9.39681C11.2315 9.39681 11.0937 9.45388 10.9921 9.55546C10.8906 9.65704 10.8335 9.79482 10.8335 9.93848H11.9168ZM10.8335 12.1051C10.8335 12.2488 10.8906 12.3866 10.9921 12.4882C11.0937 12.5897 11.2315 12.6468 11.3752 12.6468C11.5188 12.6468 11.6566 12.5897 11.7582 12.4882C11.8598 12.3866 11.9168 12.2488 11.9168 12.1051H10.8335ZM5.9585 4.52181V6.68848H7.04183V4.52181H5.9585ZM6.28675 7.18681L8.18258 7.99931L8.60941 7.00264L6.71358 6.19014L6.28675 7.18681ZM2.16683 7.23014C2.16683 6.08087 2.62338 4.97867 3.43603 4.16601C4.24869 3.35336 5.35089 2.89681 6.50016 2.89681V1.81348C3.50854 1.81348 1.0835 4.23852 1.0835 7.23014H2.16683ZM6.50016 2.89681C7.64943 2.89681 8.75164 3.35336 9.56429 4.16601C10.377 4.97867 10.8335 6.08087 10.8335 7.23014H11.9168C11.9168 4.23852 9.49179 1.81348 6.50016 1.81348V2.89681ZM1.0835 9.93848V12.1051H2.16683V9.93848H1.0835ZM3.521 10.4801V11.5635H4.60433V10.4801H3.521ZM5.9585 9.93848V12.1051H7.04183V9.93848H5.9585ZM8.396 10.4801V11.5635H9.47933V10.4801H8.396ZM10.8335 9.93848V12.1051H11.9168V9.93848H10.8335Z" fill="#838383"/>
</svg>
