<svg width="16" height="17" viewBox="0 0 16 17" fill="none" xmlns="http://www.w3.org/2000/svg">
<path fill-rule="evenodd" clip-rule="evenodd" d="M7.99978 12.0632C7.82299 12.0632 7.65345 11.9929 7.52845 11.8679L3.52845 7.86787C3.40701 7.74214 3.33981 7.57374 3.34133 7.39894C3.34285 7.22414 3.41297 7.05693 3.53657 6.93333C3.66018 6.80972 3.82738 6.73961 4.00218 6.73809C4.17698 6.73657 4.34538 6.80377 4.47112 6.92521L7.99978 10.4539L11.5285 6.92521C11.5899 6.86153 11.6635 6.81074 11.7448 6.7758C11.8262 6.74086 11.9137 6.72247 12.0022 6.7217C12.0907 6.72094 12.1785 6.7378 12.2604 6.77132C12.3424 6.80485 12.4168 6.85435 12.4794 6.91694C12.542 6.97954 12.5915 7.05397 12.625 7.1359C12.6585 7.21783 12.6754 7.30562 12.6746 7.39414C12.6738 7.48266 12.6555 7.57014 12.6205 7.65148C12.5856 7.73281 12.5348 7.80637 12.4711 7.86787L8.47112 11.8679C8.34612 11.9929 8.17658 12.0632 7.99978 12.0632Z" fill="#838383"/>
</svg>
